<svg xmlns="http://www.w3.org/2000/svg" width="38" height="38" viewBox="0 0 38 38">
  <path fill="#676767" fill-rule="evenodd" d="M12.2054977,12.4495452 L12.3223305,12.3223305 C13.0622712,11.5823897 14.2377554,11.5434455 15.0235428,12.2054977 L15.1507576,12.3223305 L29.999544,27.170544 L44.8492424,12.3223305 C45.5891832,11.5823897 46.7646673,11.5434455 47.5504548,12.2054977 L47.6776695,12.3223305 C48.4176103,13.0622712 48.4565545,14.2377554 47.7945023,15.0235428 L47.6776695,15.1507576 L32.828544,29.999544 L47.6776695,44.8492424 C48.4176103,45.5891832 48.4565545,46.7646673 47.7945023,47.5504548 L47.6776695,47.6776695 C46.9377288,48.4176103 45.7622446,48.4565545 44.9764572,47.7945023 L44.8492424,47.6776695 L29.999544,32.828544 L15.1507576,47.6776695 C14.4108168,48.4176103 13.2353327,48.4565545 12.4495452,47.7945023 L12.3223305,47.6776695 C11.5823897,46.9377288 11.5434455,45.7622446 12.2054977,44.9764572 L12.3223305,44.8492424 L27.170544,29.999544 L12.3223305,15.1507576 C11.5823897,14.4108168 11.5434455,13.2353327 12.2054977,12.4495452 L12.3223305,12.3223305 L12.2054977,12.4495452 Z" transform="translate(-11 -11)"/>
</svg>
