<svg height="50" viewBox="0 0 35 50" width="35" xmlns="http://www.w3.org/2000/svg"><path d="m46.5100853 5c.1364058 0 .2659004.02494971.3917574.05943896.0305549.00807202.0596547.01724468.0894822.02788507.120037.04109363.2346179.09319445.3382862.16217305.00291.0022015.0065476.00293526.0094575.00513675.1073059.07301452.1996981.16253995.2848153.25940352.0207336.02311519.0400123.04733104.0596547.07191386.079661.10383484.1502283.2157416.2018805.33902251.0007276.00073386.001455.00146763.001455.00220149.0007276.00366903.0007276.00770504.0021826.0106403.0469235.11704351.075296.24179205.0916646.37131036.004365.03375549.0080025.06677721.010185.10126647.0018187.03082022.0090937.06090659.0090937.09246068v10.51997118c0 .8295777-.6674789 1.502853-1.4899147 1.502853-.8224357 0-1.4899146-.6732753-1.4899146-1.502853v-6.8919901l-8.7159405 8.7912979c.1916144.2488506.3746316.5048786.5486292.7676587.4748655.7150096.8785071 1.475598 1.2049699 2.2706943.3256455.7915631.5728278 1.6137476.7379274 2.4544227.3313667 1.6984275.3313667 3.4458493 0 5.1443946-.1648661.8423239-.4120484 1.6660395-.7379274 2.4591336-1.2041526 2.9383586-3.4200364 5.3389583-6.2396895 6.7602622-1.2520245.632214-2.5974575 1.0554959-3.9838735 1.2531217-.1210808.0168418-.232237.0770246-.3129186.1695954-.0811487.0941019-.125868.2144676-.1261015.3391909v3.7075444c-.0005838.1376785.0532428.2698217.1494536.3674568.0967946.0970463.2278001.1513404.3642933.1507515h5.4597283c.3675625.0015311.7198294.1487493.9807895.4098556l.1821466.1837284c.0535931.0798512.099013.16512.1354424.2543931.1388284.3427241.1388284.7266693 0 1.0693934-.0667871.1759552-.1686024.3362465-.2989073.4710984-.133691.1315542-.2926022.2341359-.4670426.301503-.1690695.0691337-.3499317.1043483-.5324286.1036416h-5.4503875c-.1364932-.0005888-.2674986.0537052-.3642932.1507515-.0962108.0976352-.1500375.2297783-.1494537.3674568v5.5071403c.0007006.1840817-.0342108.3665146-.1027493.5370522-.0667871.1759553-.1686024.3362465-.2989073.4710984-.133691.1314365-.2926022.2341359-.4670426.301503-.3397736.140034-.7204133.140034-1.0601868 0-.1744404-.0672493-.3333517-.1699488-.4670426-.301503-.1303049-.1348519-.2321202-.2951431-.2989073-.4710984-.0685385-.1705376-.10345-.3529705-.1027494-.5370522v-5.5071403c.0018682-.1323787-.0465875-.2605174-.1354424-.3580348-.0967945-.0970463-.2278-.1513404-.3642932-.1507515h-5.4550579c-.1812125-.0012955-.3604401-.038159-.5277581-.1083526-.1740902-.0680738-.3328847-.1706554-.4670427-.301503l-.0280225-.0235549c-.5026546-.5553073-.4861914-1.4103509.0373634-1.9456364.2609601-.2611063.613227-.4083246.9807895-.4098557h5.445717c.2837284 0 .5137469-.2320159.5137469-.5182082v-3.7216774c.0110923-.2759459-.1944065-.5122018-.4670426-.5370522-1.3671505-.213172-2.6915667-.6457581-3.9231581-1.2813877-2.0309348-1.0258167-3.7626121-2.5664263-5.0253786-4.4707238-.9494977-1.4255438-1.609896-3.0266895-1.9428973-4.7109841-.3313668-1.6985453-.3313668-3.4458493 0-5.1443946.3332349-1.6842945.9935164-3.2853225 1.9428973-4.710984.9554524-1.4405012 2.1821399-2.6778411 3.6102395-3.6415907 1.413271-.957743 3.0006321-1.6238762 4.6704262-1.9597694 1.6839222-.3341265 3.4161833-.3341265 5.1001055 0 1.6697941.336011 3.2570385 1.0021441 4.6704263 1.9597694.3376547.2281251.6640314.471541.9782079.7293194l8.691783-8.76710236h-6.8319281c-.8224358 0-1.4899146-.67327524-1.4899146-1.50285302s.6674788-1.50285302 1.4899146-1.50285302zm-18.4713711 11.7420102c-5.5817432-1.1545444-11.0345826 2.4737377-12.1791873 8.1039525-1.1446048 5.6302148 2.4524408 11.1304065 8.034184 12.2849509 5.5817431 1.1545444 11.0345826-2.4737377 12.1791873-8.1039525v-.018844c.1353256-.6635421.2057322-1.3389794.2103168-2.0163011.0260067-4.9623151-3.425088-9.2529616-8.2445008-10.2498058z" fill="#e3000f" fill-rule="evenodd" transform="translate(-13 -5)"/></svg>