<svg xmlns="http://www.w3.org/2000/svg" width="40" height="40" viewBox="0 0 40 40">
  <path fill-rule="evenodd" d="M49.1958789,11.4234043 C49.1779268,11.2825799 49.1468097,11.1469415 49.0953469,11.0196809 C49.0937512,11.0164894 49.0937512,11.0121011 49.0929533,11.0081118 C49.0929533,11.0073138 49.0921554,11.006516 49.0913575,11.0057181 C49.0347086,10.8716755 48.957315,10.75 48.8699479,10.6371011 C48.8484054,10.6103723 48.8272618,10.5840426 48.8045225,10.5589096 C48.7111714,10.4535904 48.6098416,10.35625 48.4921554,10.2768618 C48.4889639,10.2744681 48.4849745,10.2736703 48.481783,10.2712766 C48.3680862,10.1962766 48.2424213,10.1396277 48.1107724,10.0949469 C48.0780596,10.0833776 48.0461447,10.0734043 48.0126341,10.0646276 C47.8746022,10.0271277 47.7325809,10 47.5829798,10 L36.1446816,10 C35.2426869,10 34.510639,10.7320479 34.510639,11.6340426 C34.510639,12.5360373 35.2426869,13.2680852 36.1446816,13.2680852 L43.6375011,13.2680852 L33.8847082,23.0208781 C31.2840432,20.9408248 28.0821814,19.8042556 24.7063834,19.8042556 C16.5976065,19.8042556 10,26.4018621 10,34.510639 C10,42.6194159 16.5976065,49.2170224 24.7063834,49.2170224 C32.8151603,49.2170224 39.4127668,42.6194159 39.4127668,34.510639 C39.4127668,31.1364369 38.2769955,27.9353729 36.1953466,25.3323143 L45.9489372,15.5787236 L45.9489372,23.0723408 C45.9489372,23.9743355 46.6809852,24.7063834 47.5829798,24.7063834 C48.4849745,24.7063834 49.2170224,23.9743355 49.2170224,23.0723408 L49.2170224,11.6340426 C49.2170224,11.599734 49.2090437,11.5670213 49.2070491,11.5335107 C49.2046554,11.4960107 49.2006661,11.4601064 49.1958789,11.4234043 Z M24.7063834,45.9489372 C18.3988034,45.9489372 13.2680852,40.818219 13.2680852,34.510639 C13.2680852,28.203059 18.3988034,23.0723408 24.7063834,23.0723408 C27.7602399,23.0723408 30.635373,24.2611706 32.7972081,26.415426 C34.9558518,28.5816494 36.1446816,31.4567825 36.1446816,34.510639 C36.1446816,40.818219 31.0139634,45.9489372 24.7063834,45.9489372 Z" transform="translate(-10 -10)"/>
</svg>
