<svg xmlns="http://www.w3.org/2000/svg" width="50" height="40" viewBox="0 0 50 40">
  <path fill="#FFF" fill-rule="evenodd" d="M48,36 C49.1045695,36 50,36.8954305 50,38 C50,39.1045695 49.1045695,40 48,40 L48,40 L2,40 C0.8954305,40 1.3527075e-16,39.1045695 0,38 C-1.3527075e-16,36.8954305 0.8954305,36 2,36 L2,36 Z M48,18 C49.1045695,18 50,18.8954305 50,20 C50,21.1045695 49.1045695,22 48,22 L48,22 L2,22 C0.8954305,22 1.3527075e-16,21.1045695 0,20 C-1.3527075e-16,18.8954305 0.8954305,18 2,18 L2,18 Z M48,0 C49.1045695,-2.02906125e-16 50,0.8954305 50,2 C50,3.1045695 49.1045695,4 48,4 L48,4 L2,4 C0.8954305,4 1.3527075e-16,3.1045695 0,2 C-1.3527075e-16,0.8954305 0.8954305,2.02906125e-16 2,0 L2,0 Z"/>
</svg>
