<svg xmlns="http://www.w3.org/2000/svg" width="40" height="40" viewBox="0 0 40 40">
  <path fill-rule="evenodd" d="M46,10 C48.209139,10 50,11.790861 50,14 L50,46 C50,48.209139 48.209139,50 46,50 L14,50 C11.790861,50 10,48.209139 10,46 L10,14 C10,11.790861 11.790861,10 14,10 L46,10 Z M40.6485876,24 C39.8531034,24 39.1269336,24.1331348 38.4700565,24.3994083 C37.8131794,24.6656818 37.2497199,25.0502933 36.779661,25.5532544 C36.3096022,26.0562155 35.9450107,26.6775111 35.6858757,27.4171598 C35.4267407,28.1568084 35.2971751,29 35.2971751,29.9467456 C35.2971751,30.8934959 35.4267407,31.7396412 35.6858757,32.4852071 C35.9450107,33.230773 36.3096022,33.8639027 36.779661,34.3846154 C37.2497199,34.905328 37.8131794,35.3047323 38.4700565,35.5828402 C39.1269336,35.8609481 39.8531034,36 40.6485876,36 C41.4440718,36 42.1702415,35.8609481 42.8271186,35.5828402 C43.4839958,35.3047323 44.0474553,34.905328 44.5175141,34.3846154 C44.987573,33.8639027 45.3521644,33.230773 45.6112994,32.4852071 C45.8704344,31.7396412 46,30.8934959 46,29.9467456 C46,29.0118296 45.8704344,28.1745599 45.6112994,27.4349112 C45.3521644,26.6952626 44.987573,26.0710085 44.5175141,25.5621302 C44.0474553,25.0532519 43.4839958,24.6656818 42.8271186,24.3994083 C42.1702415,24.1331348 41.4440718,24 40.6485876,24 Z M18.0497175,24.2130178 L14,24.2130178 L14,35.7869822 L16.6576271,35.7869822 L16.6576271,31.8639053 L18.1220339,31.8639053 C18.748779,31.8639053 19.3393569,31.786983 19.8937853,31.6331361 C20.4482137,31.4792892 20.9363444,31.2426051 21.3581921,30.9230769 C21.7800398,30.6035487 22.1144997,30.1952688 22.3615819,29.6982249 C22.6086641,29.2011809 22.7322034,28.615388 22.7322034,27.9408284 C22.7322034,27.2426001 22.6086641,26.6538486 22.3615819,26.1745562 C22.1144997,25.6952639 21.7800398,25.3106523 21.3581921,25.0207101 C20.9363444,24.7307678 20.4421874,24.5236693 19.8757062,24.3994083 C19.309225,24.2751473 18.7005682,24.2130178 18.0497175,24.2130178 L18.0497175,24.2130178 Z M29.0237288,24.2130178 L24.7751412,24.2130178 L24.7751412,35.7869822 L27.4327684,35.7869822 L27.4327684,31.6153846 L28.8971751,31.6153846 L31.1570621,35.7869822 L34.140113,35.7869822 L31.4644068,31.1538462 C32.1032047,30.8816554 32.6124275,30.470417 32.9920904,29.9201183 C33.3717533,29.3698197 33.5615819,28.6686433 33.5615819,27.816568 C33.5615819,27.1301741 33.4410558,26.5562153 33.2,26.0946746 C32.9589442,25.6331338 32.6335237,25.263315 32.2237288,24.9852071 C31.8139339,24.7070992 31.3348427,24.5088763 30.7864407,24.3905325 C30.2380387,24.2721888 29.6504739,24.2130178 29.0237288,24.2130178 L29.0237288,24.2130178 Z M40.6485876,26.2544379 C41.4561246,26.2544379 42.0949129,26.5798784 42.5649718,27.2307692 C43.0350306,27.8816601 43.2700565,28.7869764 43.2700565,29.9467456 C43.2700565,31.1183491 43.0350306,32.0443753 42.5649718,32.7248521 C42.0949129,33.4053288 41.4561246,33.7455621 40.6485876,33.7455621 C39.8410506,33.7455621 39.2022622,33.4053288 38.7322034,32.7248521 C38.2621445,32.0443753 38.0271186,31.1183491 38.0271186,29.9467456 C38.0271186,28.7869764 38.2621445,27.8816601 38.7322034,27.2307692 C39.2022622,26.5798784 39.8410506,26.2544379 40.6485876,26.2544379 Z M17.8870056,26.2899408 C18.6101731,26.2899408 19.1645932,26.4141999 19.5502825,26.6627219 C19.9359718,26.9112438 20.1288136,27.3372751 20.1288136,27.9408284 C20.1288136,29.1716038 19.4056569,29.7869822 17.959322,29.7869822 L17.959322,29.7869822 L16.6576271,29.7869822 L16.6576271,26.2899408 Z M28.8067797,26.2899408 C29.5058415,26.2899408 30.0391695,26.4023657 30.4067797,26.6272189 C30.7743898,26.8520721 30.9581921,27.2485179 30.9581921,27.816568 C30.9581921,28.3846182 30.7743898,28.813608 30.4067797,29.1035503 C30.0391695,29.3934926 29.5058415,29.5384615 28.8067797,29.5384615 L28.8067797,29.5384615 L27.4327684,29.5384615 L27.4327684,26.2899408 Z" transform="translate(-10 -10)"/>
</svg>
