<svg height="46" viewBox="0 0 30 46" width="30" xmlns="http://www.w3.org/2000/svg"><path d="m44.0680565 18.808594c-.18584-.9381371-.4640743-1.8556399-.8306286-2.7389713-.3674742-.8872743-.8218228-1.73604-1.3563428-2.5339428-1.0749542-1.6094743-2.4557428-2.9919714-4.0637713-4.06902853-1.5909428-1.06864569-3.3775828-1.81200567-5.2571428-2.18697138-1.8954628-.37286285-3.845337-.37286285-5.7407998 0-1.87956.37483428-3.6663314 1.11819426-5.2571428 2.18697138-1.6075028 1.07547993-2.9882913 2.45626853-4.0637713 4.06377133-1.0686457 1.5909428-1.8118743 3.3775828-2.1869714 5.2571428-.3729943 1.8954628-.3729943 3.845337 0 5.7407998.3748343 1.87956 1.1181943 3.6663314 2.1869714 5.2571428 1.4214 2.1250685 3.3706171 3.8442856 5.6566856 4.9890284 1.3863085.70932 2.8771028 1.1920571 4.4159999 1.4299428.3068857.0277315.5382.2913772.5257143.5993143v4.1531428c0 .3193714-.2589143.5782857-.5782858.5782857h-6.1298284c-.4137371.0017086-.8102571.1659943-1.104.4573714-.5893257.5973428-.6078571 1.5515143-.0420571 2.1712l.0315429.0262857c.1510114.1460171.3297542.2604914.5257142.3364571.1883372.0783314.39008.1194686.5940572.1209143h6.1403427c.15364-.0006572.3011028.0599314.4100571.1682286.1000172.1088228.15456.2518171.1524572.3995428v6.1455999c-.0007886.2054228.0385085.4090057.1156571.5993142.0751771.1963543.1897828.3752286.3364571.5257143.1504857.1468057.32936.2614114.5257143.3364571.3824571.1562686.8109143.1562686 1.1933714 0 .1963543-.0751771.3752286-.1897828.5257143-.3364571.1466743-.1504857.26128-.32936.3364571-.5257143.0771486-.1903085.1164457-.3938914.1156572-.5993142v-6.1455999c-.0006572-.15364.0599314-.3011028.1682285-.4100571.1089543-.1082972.2564172-.1688857.4100572-.1682286h6.1350855c.2054229.0007886.4090057-.0385086.5993143-.1156571.1963543-.0751772.3752286-.1896515.5257143-.3364572.1466743-.1504857.26128-.32936.3364571-.5257142.1562686-.3824572.1562686-.8109143 0-1.1933714-.0410057-.0996229-.0921314-.1947772-.1524571-.2838858l-.2050286-.2050285c-.2937428-.2913772-.6902628-.4556629-1.104-.4573714h-6.1455998c-.15364.0006571-.3011029-.0599315-.4100572-.1682286-.1082971-.1089543-.1688857-.2564171-.1682285-.4100571v-3.8692571-.2681143c.0002628-.1391828.0506-.2735028.1419428-.3785143.0908172-.1033028.2159372-.1704628.3522286-.1892571 1.5605828-.2205371 3.0750342-.6928914 4.4843427-1.3984 3.1738685-1.5860799 5.6681199-4.2649884 7.0235427-7.5439998.3668172-.88504.6450515-1.8042514.8306286-2.7442285.3729943-1.8954628.3729943-3.8454685 0-5.7407999zm-3.0649142 5.1257142v.0210286c-1.2883943 6.2829427-7.4262399 10.3318626-13.7091826 9.0434683-6.2829427-1.2883942-10.3318626-7.4262398-9.0434683-13.7091825 1.2883942-6.2829427 7.4262398-10.33186264 13.7091825-9.0434684 5.4248456 1.1124114 9.3094798 5.9004856 9.280206 11.4380969-.0051605.7558457-.0844119 1.5095885-.2367376 2.2500571z" fill="#e3000f" fill-rule="evenodd" transform="translate(-15 -7)"/></svg>