<svg xmlns="http://www.w3.org/2000/svg" width="42" height="42" viewBox="0 0 42 42">
  <path fill="#2d2d2c" fill-rule="evenodd" d="m39.244225 20.353975c.277-.1385.604-.1385.88125 0l19.69975 9.84975c.3335.1675.54425.508.54425.88125s-.21075.71375-.54425.881l-8.08775 4.044 8.08775 4.04375c.3335.16725.54425.508.54425.88125s-.21075.7135-.54425.881l-8.08775 4.04375 8.08775 4.044c.3335.1675.54425.50775.54425.881s-.21075.714-.54425.88125l-19.69975 9.84975c-.13875.06925-.28975.104-.44075.104s-.302-.03475-.4405-.104l-19.69975-9.84975c-.33375-.16725-.5445-.508-.5445-.88125s.21075-.7135.5445-.881l8.08775-4.044-8.08775-4.04375c-.33375-.1675-.5445-.50775-.5445-.881s.21075-.714.5445-.88125l8.0875-4.04375-8.0875-4.044c-.33375-.16725-.5445-.50775-.5445-.881s.21075-.71375.5445-.88125zm10.29025 26.60725-9.409 4.70475c-.13875.06925-.28975.104-.44075.104s-.302-.03475-.4405-.104l-9.40925-4.70475-7.64775 3.8235 17.4975 8.7485 17.4975-8.7485zm.00025-9.85-9.40925 4.70475-.88125.4405c-.1415.07025-.292.104-.43975.104-.3615 0-.70925-.19925-.882-.5445-.112-.22425-.127-.46975-.06675-.69425l-3.096-1.54775-.4405.22c-.14125.0705-.29175.10375-.4395.10375-.36175 0-.7095-.19875-.88225-.544-.112-.2245-.12675-.47-.06675-.6945l-3.09575-1.548-7.64775 3.82375 2.7235 1.3615.44075-.22c.48625-.245 1.07825-.045 1.32125.44175.11125.223.12.46625.06075.68975l3.10225 1.551.44075-.21975c.4865-.24625 1.07775-.0455 1.321.44125.1115.22325.12.4665.061.68975l3.10225 1.55125.4405-.22c.4865-.24625 1.07775-.045 1.32125.44175.1115.223.12025.466.06075.6895l3.1015 1.55075 17.4975-8.7485-2.72225-1.361-.44075.22c-.14175.0705-.292.10375-.43975.10375-.3615 0-.7095-.19875-.882-.544-.11175-.224-.12125-.46775-.06125-.692zm-9.442025 7.44335c.48725-.2435 1.07825-.04625 1.3215.4405.2435.48675.04625 1.07825-.4405 1.32175l-1.631.81575c-.14125.07-.29175.10375-.4395.10375-.36175 0-.70925-.199-.882-.5445-.2435-.4865-.04625-1.07825.44075-1.3215zm4.892075-2.4453c.48575-.2415 1.07825-.04525 1.32125.44075.2435.48675.04575 1.078-.441 1.3215l-1.6305.815c-.14075.07-.2915.10375-.439.10375-.36175 0-.7095-.199-.882-.5445-.2435-.4865-.04575-1.07825.441-1.3215zm-9.856575.002925c.48775-.2425 1.07875-.04625 1.32175.44075.24325.4865.04625 1.07825-.44075 1.3215l-1.61725.809c-.1415.07-.292.10375-.43975.10375-.3615 0-.7095-.199-.882-.5445-.24325-.4865-.04625-1.07825.4405-1.3215zm14.748925-2.448975c.48625-.2425 1.0775-.04625 1.32125.44075.24325.4865.04575 1.078-.441 1.3215l-1.6305.81475c-.14075.07025-.2915.104-.43925.104-.3615 0-.70925-.19925-.88175-.5445-.2435-.48675-.046-1.0785.441-1.32175zm-19.67385-.013425c.48725-.2425 1.07875-.04625 1.32175.4405.24325.48675.04625 1.07825-.44075 1.32175l-1.61725.80875c-.1415.07025-.292.104-.43975.104-.3615 0-.7095-.199-.882-.5445-.24325-.48675-.04625-1.07825.4405-1.3215zm9.48145-17.313575-17.4975 8.74875 17.4975 8.7485 17.4975-8.7485z" transform="translate(-19 -20)"/>
</svg>
