<svg xmlns="http://www.w3.org/2000/svg" width="68" height="42" viewBox="0 0 68 42">
  <path fill="#353535" fill-rule="evenodd" d="m24.16275 17.5086-4.8645-8.7885-8.2755 14.9475 3.783-1.08975c.2925-.08475.60975-.0105.8355.19425l3.82125 3.46425 3.4635-3.4365c.2265-.22575.55725-.31125.86475-.222l3.7815 1.089zm5.382 21.78375 3.33825-6.03075-4.1055-7.416-4.97775-1.4325-3.68925 3.6615c-.17175.17025-.396.25575-.62025.25575-.21225 0-.42375-.07575-.59175-.228l-4.07625-3.696-4.956 1.4265-7.4925 13.4595zm37.36275 1.761h-66.02775c-.30975 0-.6-.165-.75825-.4335s-.162-.60075-.0105-.873l18.41625-33.27225c.1545-.27975.45075-.45375.771-.45375.3195 0 .61425.174.7695.45375l4.85925 8.778 8.1915-14.799c.15525-.2805.45-.45375.771-.45375.32025 0 .615.17325.7695.45375l8.19225 14.799 4.8585-8.778c.156-.27975.45-.45375.771-.45375.32025 0 .61425.174.7695.45375l18.35925 33.16575c.11175.14775.17925.33225.17925.5325 0 .486-.3945.8805-.88125.8805zm-26.70075-17.3865 3.7815-1.089c.29325-.08475.609-.0105.8355.19425l3.82125 3.46425 3.46425-3.4365c.22575-.22575.55725-.31125.8625-.222l3.78225 1.089-8.27325-14.94675-4.8555 8.76975zm8.466 4.6635c-.21225 0-.42375-.07575-.591-.228l-4.07775-3.696-4.9545 1.4265-7.4925 13.4595h33.84675l-7.44375-13.44675-4.97775-1.4325-3.68925 3.6615c-.17175.17025-.396.25575-.62025.25575zm-19.209-17.63775 4.5975 3.38025 4.26075-3.36825-4.4325-8.007zm4.61775 5.36775c-.18375 0-.36675-.057-.522-.171l-4.95525-3.6435-2.6715 4.82475 7.95675 14.373 7.95525-14.373-2.6595-4.8045-4.5585 3.60375c-.15975.12675-.3525.1905-.54525.1905z"/>
</svg>
