<svg xmlns="http://www.w3.org/2000/svg" width="29" height="45" viewBox="0 0 29 45">
  <path fill="#2d2d2c" fill-rule="evenodd" d="m43.445925 18.249925c.54525 0 .99275.4325 1.01075.97775.0675 2.00675.573 2.96625 1.803 3.422l5.73475 2.124c.87925.32525 2.352.86975 2.352 2.40375 0 3.1025-.79125 4.19425-2.102 6.00375-.337.4645-.71875.991-1.1385 1.6255l-.1.151c-1.446 2.18525-2.83225 5.4375-2.5525 7.16125.00925.05675.01375.11375.01325.17075.14225.459 1.23275 1.80725 1.95975 2.706 1.12725 1.39325 2.29225 2.8335 2.79275 3.9985l.1525.35375c.3805.88475 1.55275 4.565.33825 6.4095-.4535.68875-1.18725 1.06775-2.06675 1.06775h-8.025v4.41975c0 .5585-.45275 1.0115-1.0115 1.0115h-4.86675c-.55875 0-1.0115-.453-1.0115-1.0115v-4.41975h-8.02475c-.8795 0-1.61325-.379-2.0665-1.0675-1.21475-1.84425-.04275-5.52475.3375-6.40925l.1525-.35475c.50125-1.16475 1.66625-2.605 2.793-3.998.7275-.89875 1.818-2.247 1.96025-2.706-.00075-.057.004-.114.013-.17075.28-1.72275-1.1065-4.9755-2.5525-7.16125l-.09925-.149c-.42125-.6365-.80275-1.163-1.13975-1.6275-1.31075-1.8095-2.102-2.90125-2.102-6.00375 0-1.533 1.47275-2.078 2.35275-2.40375l5.73475-2.124c1.22975-.45575 1.7355-1.41525 1.80275-3.422.018-.54525.46575-.97775 1.011-.97775zm-1.85075 38.575h-2.84375v3.4085h2.84375zm.91075-36.55175h-4.665c-.192 1.6175-.841 3.455-3.05125 4.2735l-5.735 2.12425c-.2555.0945-.93525.346-1.03725.516.0055 2.437.5085 3.131 1.7225 4.807.34875.481.7435 1.026 1.187 1.69625l.0995.149c1.25525 1.8975 3.25225 5.793 2.87975 8.4995-.004.90925-.815 1.954-2.413 3.92925-.99225 1.2265-2.11675 2.6165-2.50775 3.52525l-.1525.3545c-.47025 1.094-1.0335 3.69675-.50625 4.49725.0435.0665.10325.15725.377.15725h22.9395c.274 0 .33375-.09075.37725-.15725.527-.8005-.03675-3.40325-.50675-4.4975l-.15275-.354c-.39025-.909-1.51475-2.299-2.507-3.5255-1.59825-1.97525-2.40925-3.02-2.413-3.929-.37275-2.70825 1.6245-6.60325 2.8785-8.49775l.1-.151c.443-.67025.838-1.21525 1.1865-1.69625 1.2145-1.67625 1.7175-2.37 1.7175-4.8165-.0965-.161-.7755-.41225-1.03125-.5065l-5.73475-2.12425c-2.21025-.8185-2.8595-2.656-3.0515-4.2735zm-9.279325 30.8129c.55875 0 1.0115.453 1.0115 1.0115s-.45275 1.0115-1.0115 1.0115h-2.049c-.55875 0-1.0115-.453-1.0115-1.0115s.45275-1.0115 1.0115-1.0115zm5.340825 0c.55875 0 1.0115.453 1.0115 1.0115s-.45275 1.0115-1.0115 1.0115h-2.049c-.55875 0-1.0115-.453-1.0115-1.0115s.45275-1.0115 1.0115-1.0115zm5.340225 0c.55875 0 1.0115.453 1.0115 1.0115s-.45275 1.0115-1.0115 1.0115h-2.049c-.55875 0-1.0115-.453-1.0115-1.0115s.45275-1.0115 1.0115-1.0115zm5.3408 0c.55875 0 1.0115.453 1.0115 1.0115s-.45275 1.0115-1.0115 1.0115h-2.0495c-.559 0-1.0115-.453-1.0115-1.0115s.4525-1.0115 1.0115-1.0115z" transform="translate(-26 -18)"/>
</svg>
