<svg xmlns="http://www.w3.org/2000/svg" width="46" height="43" viewBox="0 0 46 43">
  <path fill="#2d2d2c" fill-rule="evenodd" d="m31.1653 20.1286c2.34075-1.07075 4.958-1.16575 7.3695-.2685 2.41175.898 4.33025 2.6815 5.40125 5.022 1.0705 2.3405 1.1655 4.958.2675 7.37025-.8145 2.18875-3.96225 7.64975-6.9945 12.69425.76025.046 1.6035.07275 2.40875.07275 1.379 0 2.50075 1.133 2.50075 2.526 0 .0035-.001.00675-.001.01025s.001.00675.001.01025v8.693c0 1.393-1.12175 2.5265-2.50075 2.5265-4.91125 0-7.11125.94175-9.05225 1.77275-1.2555.53775-2.44125 1.04525-4.09425 1.17925-.26725.02175-.53075.0325-.791.0325-4.28625 0-7.56675-2.90925-8.4645-7.60125-.83725-4.37675.732-9.7565 5.214-11.5145.3495-1.88675.7385-3.84 1.1225-5.7635.37025-1.854.71975-3.60525 1.019-5.226.46925-2.547.98375-4.55425 1.57175-6.13525.89775-2.4115 2.6815-4.33 5.02225-5.40075zm-9.15675 24.90625c-2.64125 1.79275-3.51075 5.59375-2.90275 8.772.60075 3.14075 2.80925 6.36975 7.21 6.0125 1.33975-.1085 2.29-.51525 3.4925-1.03025 2.00625-.85875 4.5035-1.928 9.8095-1.928.3125 0 .5765-.27575.5765-.60225l.0005-8.698125c.0005-.008625-.0005-.011875-.0005-.015375 0-.326-.264-.60175-.5765-.60175-1.2295 0-2.5105-.057-3.52375-.1515-.91525 1.507-1.788 2.9265-2.55175 4.159h3.528c.53125 0 .96225.43075.96225.962s-.431.96225-.96225.96225h-4.72625c-.367.586-.68175 1.0855-.92225 1.464-.0295.04675-.06325.09075-.10025.1315-1.4 1.53975-2.90275 2.313-4.4855 2.313-.625 0-1.26225-.1205-1.911-.362-4.241-1.5785-3.62675-6.42675-3.425-8.01975.134-1.0555.30975-2.19075.5085-3.36725zm32.79245 4.76525c.53125 0 .96225.431.96225.96225v5.19275c0 .53125-.431.96225-.96225.96225s-.96225-.431-.96225-.96225v-5.19275c0-.53125.431-.96225.96225-.96225zm-6.734375 0c.53125 0 .96225.431.96225.96225v5.19275c0 .53125-.431.96225-.96225.96225s-.96225-.431-.96225-.96225v-5.19275c0-.53125.431-.96225.96225-.96225zm13.46875 0c.53125 0 .962.431.962.96225v5.19275c0 .53125-.43075.96225-.962.96225s-.96225-.431-.96225-.96225v-5.19275c0-.53125.431-.96225.96225-.96225zm-26.365325-28.625c-1.09225 0-2.18125.235-3.20425.70325-1.8735.857-3.30075 2.392-4.01925 4.32225-.549 1.475-1.034 3.3765-1.48275 5.81325-.302 1.63475-.653 3.39225-1.02425 5.2535-.792 3.96675-1.6105 8.0685-2.0305 11.37675-.43775 3.454.2165 5.241 2.187 5.97425 1.52525.56725 2.83775.142 4.247-1.382.07325-.11575.15125-.239.2285-.361h-2.82225c-.53125 0-.96225-.431-.96225-.96225s.431-.962.96225-.962h4.03c.9905-1.58825 2.139-3.45325 3.31775-5.3975.0475-.21075.16-.3915.3165-.52275 3.278-5.42325 6.6925-11.3155 7.4865-13.44975.71875-1.9305.643-4.0255-.21375-5.8985-.85725-1.873-2.3925-3.30025-4.323-4.019-.87575-.32625-1.7855-.4885-2.69325-.4885zm23.018875 26.03395c.5315 0 .96225.431.96225.96225v5.19275c0 .53125-.43075.96225-.96225.96225-.53125 0-.962-.431-.962-.96225v-5.19275c0-.53125.43075-.96225.962-.96225zm-6.734125 0c.53125 0 .96225.431.96225.96225v5.19275c0 .53125-.431.96225-.96225.96225s-.96225-.431-.96225-.96225v-5.19275c0-.53125.431-.96225.96225-.96225zm-6.734125 0c.53125 0 .96225.431.96225.96225v5.19275c0 .53125-.431.96225-.96225.96225s-.96225-.431-.96225-.96225v-5.19275c0-.53125.431-.96225.96225-.96225zm-11.961875-22.9517c1.40675-.6435 2.98-.7015 4.43125-.16125 1.45125.5405 2.60425 1.61325 3.247 3.02025.64375 1.406.70075 2.98.161 4.4305-.5395 1.45-1.61175 2.603-3.01925 3.247-.76825.35175-1.5865.5285-2.407.5285-.682 0-1.36575-.122-2.02425-.36725-1.44975-.54-2.60325-1.61225-3.24675-3.01925-.644-1.4075-.701-2.981-.16125-4.43125.54-1.45025 1.61225-2.60375 3.01925-3.24725zm3.75975 1.64225c-.9675-.3605-2.019-.3225-2.959.1075s-1.656 1.2-2.0165 2.169c-.3605.9685-.3225 2.0195.1075 2.95925s1.2 1.65575 2.1685 2.01625c.9685.36125 2.01975.323 2.959-.1075.94025-.43 1.65625-1.20025 2.0165-2.16825.36075-.969.3225-2.02-.1075-2.9595-.42925-.94-1.19925-1.656-2.1685-2.01675z" transform="translate(-17 -19)"/>
</svg>
