<svg xmlns="http://www.w3.org/2000/svg" width="15" height="16" viewBox="0 0 15 16">
  <path fill-rule="evenodd" d="M9.59743082,2.20541728 C9.93272794,1.91541641 10.4343095,1.93247529 10.7500437,2.25659391 L10.7500437,2.25659391 L10.7998965,2.3123182 L10.8695256,2.41015184 C11.0769021,2.74856084 11.0370749,3.20088559 10.7500437,3.49553888 L10.7500437,3.49553888 L5.268,9.123 L15.7357221,9 L15.8186835,9.0021964 C16.3105849,9.03422569 16.691743,9.40095983 16.6852316,9.85340413 L16.6852316,9.85340413 L16.6805284,9.9280584 C16.6319895,10.3712023 16.2138612,10.7235419 15.71051,10.7294705 L15.71051,10.7294705 L5.245,10.853 L10.7500437,16.5044611 L10.7998965,16.5601854 C11.0823956,16.9043864 11.065778,17.4192875 10.7500437,17.7434061 L10.7500437,17.7434061 L10.6957609,17.7945827 C10.3604638,18.0845836 9.85888227,18.0675247 9.54314802,17.7434061 L9.54314802,17.7434061 L3.20714015,11.2389962 L2,9.99980027 L3.20714015,8.76060436 L9.54314802,2.25659391 Z" transform="translate(-2 -2)"/>
</svg>
