<svg xmlns="http://www.w3.org/2000/svg" width="17" height="16" viewBox="0 0 17 16">
  <path fill="#FFF" fill-rule="evenodd" d="M9.59742666,2.20541313 C9.93272379,1.91541226 10.4343053,1.93247113 10.7500396,2.25658975 L10.7500396,2.25658975 L10.7998923,2.31231404 C11.0823914,2.65651502 11.0657738,3.17141611 10.7500396,3.49553472 L10.7500396,3.49553472 L5.26799584,9.12299584 L15.7357179,8.99999584 L15.8186794,9.00219225 C16.3105808,9.03422153 16.6917388,9.40095567 16.6852275,9.85339998 L16.6852275,9.85339998 L16.6805242,9.92805424 C16.6319853,10.3711981 16.213857,10.7235377 15.7105058,10.7294664 L15.7105058,10.7294664 L5.24499584,10.8529958 L10.7500396,16.504457 L10.7998923,16.5601813 C11.0823914,16.9043822 11.0657738,17.4192833 10.7500396,17.7434019 L10.7500396,17.7434019 L10.6957568,17.7945786 C10.3604596,18.0845794 9.85887811,18.0675206 9.54314386,17.7434019 L9.54314386,17.7434019 L1.99999584,9.99979612 L9.54314386,2.25658975 Z" transform="rotate(-90 7.843 9.5)"/>
</svg>
