<svg xmlns="http://www.w3.org/2000/svg" width="15" height="16" viewBox="0 0 15 16">
  <path fill="#E3000F" fill-rule="evenodd" d="M10.5974225,2.20541728 C10.9327196,1.91541641 11.4343012,1.93247529 11.7500354,2.25659391 L11.7500354,2.25659391 L11.7998882,2.3123182 L11.8695173,2.41015184 C12.0768938,2.74856084 12.0370665,3.20088559 11.7500354,3.49553888 L11.7500354,3.49553888 L6.26799169,9.123 L16.7357138,9 L16.8186752,9.0021964 C17.3105766,9.03422569 17.6917347,9.40095983 17.6852233,9.85340413 L17.6852233,9.85340413 L17.6805201,9.9280584 C17.6319812,10.3712023 17.2138529,10.7235419 16.7105016,10.7294705 L16.7105016,10.7294705 L6.24499169,10.853 L11.7500354,16.5044611 L11.7998882,16.5601854 C12.0823872,16.9043864 12.0657697,17.4192875 11.7500354,17.7434061 L11.7500354,17.7434061 L11.6957526,17.7945827 C11.3604555,18.0845836 10.858874,18.0675247 10.5431397,17.7434061 L10.5431397,17.7434061 L4.20713184,11.2389962 L2.99999169,9.99980027 L4.20713184,8.76060436 L10.5431397,2.25659391 Z" transform="matrix(-1 0 0 1 17.685 -2)"/>
</svg>
