<svg xmlns="http://www.w3.org/2000/svg" width="17" height="16" viewBox="0 0 17 16">
  <path fill="#E3000F" fill-rule="evenodd" d="M2.59924665,10.2004953 L2.54807003,10.2547781 C2.28443287,10.5595936 2.2745641,11.0018343 2.51846372,11.3169384 L2.59924665,11.407391 L2.65497094,11.4572437 L2.75280459,11.5268728 C3.05737269,11.7135117 3.45421255,11.6999155 3.74533708,11.4860842 L3.83819163,11.407391 L9.48065275,5.91034725 L9.34265275,16.4890989 L9.34484915,16.56367 C9.37420933,16.9689764 9.68481456,17.2906389 10.0848755,17.3369265 L10.1960569,17.3425789 L10.2707111,17.3383513 C10.6769263,17.2983573 11.0068408,16.979214 11.0635721,16.5778039 L11.0721233,16.4664367 L11.2106527,5.91734725 L16.8471139,11.407391 L16.9028382,11.4572437 C17.2157481,11.7140611 17.6697326,11.7236746 17.9932043,11.4860842 L18.0860588,11.407391 L18.1372355,11.3531082 C18.4008726,11.0482926 18.4107414,10.6060519 18.1668418,10.2909478 L18.0860588,10.2004953 L10.342453,2.65734725 L2.59924665,10.2004953 L2.54807003,10.2547781 L2.59924665,10.2004953 Z" transform="translate(-2 -2)"/>
</svg>
