<svg xmlns="http://www.w3.org/2000/svg" width="18" height="18" viewBox="0 0 18 18">
  <path fill="#676767" fill-rule="evenodd" d="M6.40000037,15.4 C5.4100003,15.4 4.60900025,16.21 4.60900025,17.2 C4.60900025,18.19 5.4100003,19 6.40000037,19 C7.39000044,19 8.20000049,18.19 8.20000049,17.2 C8.20000049,16.21 7.39000044,15.4 6.40000037,15.4 Z M1,1 L1,2.8 L2.80000012,2.8 L6.04000034,9.631 L4.82500026,11.836 C4.68100025,12.088 4.60000025,12.385 4.60000025,12.7 C4.60000025,13.69 5.4100003,14.5 6.40000037,14.5 L17.2000011,14.5 L17.2000011,12.7 L6.77800039,12.7 C6.65200039,12.7 6.55300038,12.601 6.55300038,12.475 L6.58000038,12.367 L7.39000044,10.9 L14.0950009,10.9 C14.7700009,10.9 15.364001,10.531 15.670001,9.973 L18.8920012,4.132 C18.9640012,4.006 19,3.853 19,3.7 C19,3.205 18.5950012,2.8 18.1000012,2.8 L4.78900026,2.8 L3.9430002,1 L1,1 Z M15.400001,15.4 C14.4100009,15.4 13.6090009,16.21 13.6090009,17.2 C13.6090009,18.19 14.4100009,19 15.400001,19 C16.390001,19 17.2000011,18.19 17.2000011,17.2 C17.2000011,16.21 16.390001,15.4 15.400001,15.4 Z" transform="translate(-1 -1)"/>
</svg>
