<svg xmlns="http://www.w3.org/2000/svg" width="16" height="18" viewBox="0 0 16 18">
  <path fill-rule="evenodd" d="M4.67490909,12.6225455 C8.09672727,11.6749091 11.904,11.6749091 15.3250909,12.6225455 C16.8996364,13.0589091 18,14.5010909 18,16.1309091 L18,16.1309091 L18,18.4545455 L2,18.4545455 L2,16.1309091 C2,14.5010909 3.10036364,13.0589091 4.67490909,12.6225455 Z M10,1 C12.4065455,1 14.3636364,2.95709091 14.3636364,5.36363636 L14.3636364,5.36363636 L14.3636364,6.09090909 C14.3636364,8.49745455 12.4065455,10.4545455 10,10.4545455 C7.59345455,10.4545455 5.63636364,8.49745455 5.63636364,6.09090909 L5.63636364,6.09090909 L5.63636364,5.36363636 C5.63636364,2.95709091 7.59345455,1 10,1 Z" transform="translate(-2 -1)"/>
</svg>
