<svg xmlns="http://www.w3.org/2000/svg" width="20" height="20" viewBox="0 0 20 20">
  <path fill-rule="evenodd" d="M19.3333333,4.66666667 C21.5424723,4.66666667 23.3333333,6.45752767 23.3333333,8.66666667 L23.3333333,19.3333333 C23.3333333,21.5424723 21.5424723,23.3333333 19.3333333,23.3333333 L8.66666667,23.3333333 C6.45752767,23.3333333 4.66666667,21.5424723 4.66666667,19.3333333 L4.66666667,8.66666667 C4.66666667,6.45752767 6.45752767,4.66666667 8.66666667,4.66666667 L19.3333333,4.66666667 Z M18.9693409,11.2 C18.5981149,11.2 18.2592357,11.2621296 17.952693,11.3863905 C17.6461504,11.5106515 17.3832026,11.6901369 17.1638418,11.9248521 C16.944481,12.1595672 16.7743383,12.4495052 16.6534087,12.7946746 C16.532479,13.1398439 16.4720151,13.5333311 16.4720151,13.9751479 C16.4720151,14.4169647 16.532479,14.8118326 16.6534087,15.1597633 C16.7743383,15.507694 16.944481,15.8031546 17.1638418,16.0461538 C17.3832026,16.2891531 17.6461504,16.4755418 17.952693,16.6053254 C18.2592357,16.7351091 18.5981149,16.8 18.9693409,16.8 C19.3405668,16.8 19.6794461,16.7351091 19.9859887,16.6053254 C20.2925314,16.4755418 20.5554791,16.2891531 20.7748399,16.0461538 C20.9942007,15.8031546 21.1643434,15.507694 21.2852731,15.1597633 C21.4062027,14.8118326 21.4666667,14.4169647 21.4666667,13.9751479 C21.4666667,13.5388538 21.4062027,13.148128 21.2852731,12.8029586 C21.1643434,12.4577892 20.9942007,12.1664706 20.7748399,11.9289941 C20.5554791,11.6915176 20.2925314,11.5106515 19.9859887,11.3863905 C19.6794461,11.2621296 19.3405668,11.2 18.9693409,11.2 Z M8.42320151,11.2994083 L6.53333333,11.2994083 L6.53333333,16.7005917 L7.77355932,16.7005917 L7.77355932,14.8698225 L8.45694915,14.8698225 C8.74943021,14.8698225 9.02503323,14.8339254 9.28376648,14.7621302 C9.54249972,14.6903349 9.77029406,14.5798824 9.96715631,14.4307692 C10.1640186,14.2816561 10.3200999,14.0911254 10.4354049,13.8591716 C10.5507099,13.6272178 10.6083616,13.3538477 10.6083616,13.0390533 C10.6083616,12.7132134 10.5507099,12.4384627 10.4354049,12.2147929 C10.3200999,11.9911231 10.1640186,11.8116378 9.96715631,11.6763314 C9.77029406,11.541025 9.53968745,11.444379 9.27532957,11.3863905 C9.01097169,11.3284021 8.72693184,11.2994083 8.42320151,11.2994083 L8.42320151,11.2994083 Z M13.5444068,11.2994083 L11.5617326,11.2994083 L11.5617326,16.7005917 L12.8019586,16.7005917 L12.8019586,14.7538462 L13.4853484,14.7538462 L14.5399623,16.7005917 L15.9320527,16.7005917 L14.6833898,14.5384615 C14.9814955,14.4114392 15.2191328,14.2195279 15.3963089,13.9627219 C15.5734849,13.7059159 15.6620716,13.3787002 15.6620716,12.9810651 C15.6620716,12.6607479 15.605826,12.3929005 15.4933333,12.1775148 C15.3808406,11.9621291 15.2289777,11.789547 15.0377401,11.6597633 C14.8465025,11.5299796 14.6229266,11.4374756 14.3670056,11.3822485 C14.1110847,11.3270214 13.8368878,11.2994083 13.5444068,11.2994083 L13.5444068,11.2994083 Z M18.9693409,12.252071 C19.3461915,12.252071 19.6442927,12.4039433 19.8636535,12.7076923 C20.0830143,13.0114414 20.192693,13.4339223 20.192693,13.9751479 C20.192693,14.5218962 20.0830143,14.9540418 19.8636535,15.2715976 C19.6442927,15.5891535 19.3461915,15.747929 18.9693409,15.747929 C18.5924903,15.747929 18.294389,15.5891535 18.0750282,15.2715976 C17.8556675,14.9540418 17.7459887,14.5218962 17.7459887,13.9751479 C17.7459887,13.4339223 17.8556675,13.0114414 18.0750282,12.7076923 C18.294389,12.4039433 18.5924903,12.252071 18.9693409,12.252071 Z M8.3472693,12.2686391 C8.68474745,12.2686391 8.94347682,12.3266266 9.12346516,12.4426036 C9.30345351,12.5585805 9.39344633,12.757395 9.39344633,13.0390533 C9.39344633,13.6134151 9.05597324,13.9005917 8.38101695,13.9005917 L8.38101695,13.9005917 L7.77355932,13.9005917 L7.77355932,12.2686391 Z M13.4431638,12.2686391 C13.7693927,12.2686391 14.0182791,12.321104 14.1898305,12.4260355 C14.3613819,12.530967 14.4471563,12.715975 14.4471563,12.9810651 C14.4471563,13.2461552 14.3613819,13.4463504 14.1898305,13.5816568 C14.0182791,13.7169632 13.7693927,13.7846154 13.4431638,13.7846154 L13.4431638,13.7846154 L12.8019586,13.7846154 L12.8019586,12.2686391 Z" transform="translate(-4 -4)"/>
</svg>
