<svg height="60" viewBox="0 0 83 60" width="83" xmlns="http://www.w3.org/2000/svg" xmlns:xlink="http://www.w3.org/1999/xlink"><mask id="a" fill="#fff"><path d="m.29242303.06587397h5.9257595v4.40521005h-5.9257595z" fill="#fff" fill-rule="evenodd"/></mask><mask id="b" fill="#fff"><path d="m0 .13304263h82.4258408v43.65510637h-82.4258408z" fill="#fff" fill-rule="evenodd"/></mask><g fill="none" fill-rule="evenodd" transform="translate(-.076918 .471633)"><g fill="#1d1d1b"><path d="m76.538994 41.2437296h.727776c.3441987 0 .5790122-.0558885.7131914-.1572331.1159483-.0953831.1830378-.2481452.1830378-.4187915 0-.1095416-.0247939-.2138669-.0896958-.2943464-.0656311-.0916572-.1458469-.1579783-.2479397-.2049247-.108656-.0484367-.3099247-.0573789-.6045354-.0573789h-.6818343zm-.5899507 2.1289812v-3.7765756h1.2630342c.4411868 0 .7540284.0305524.9509217.1020897.1961641.0648307.3456572.1848048.4652516.362903.1071975.1736271.1706409.3554512.1706409.5559048 0 .2727361-.1020928.5134295-.2902353.725806-.1917887.1952373-.4513962.3144662-.7678839.3338409.1305329.0573789.2391889.1304066.3128416.206415.1509515.1490362.3318017.3986717.5483843.7518873l.4528546.7377289h-.7343391l-.3245094-.5976349c-.255232-.4664831-.4710854-.763065-.6242247-.8815487-.1086559-.086441-.270546-.1326422-.4740024-.1326422h-.3587834v1.6118258zm1.5073277-4.8772075c-.4863994 0-.9560264.1311518-1.4125272.3860036-.4608762.2496355-.8152842.6117933-1.0770794 1.0842379-.2479397.4612668-.3813896.9553216-.3813896 1.46428 0 .499271.130533.9828933.3748265 1.4531023.2566906.4590313.612557.8293861 1.069787 1.0857282.4528547.2570874.9312325.3860036 1.4263827.3860036s.9662357-.1289162 1.421278-.3860036c.4550424-.2563421.8094503-.6266969 1.0573901-1.0857282.2566905-.470209.3777434-.9538313.3777434-1.4531023 0-.5089584-.1334499-1.0030132-.3813896-1.46428-.2545029-.4724446-.6096401-.8346024-1.0748917-1.0842379-.4513961-.2548518-.9239401-.3860036-1.4001302-.3860036zm0-.5819861c.5724491 0 1.1383351.1490362 1.6867194.4508343.5461966.30925.9800912.7451807 1.2819942 1.3092825.307737.561121.4623347 1.1520493.4623347 1.7563908 0 .602106-.1494931 1.1833469-.44775 1.7511746-.3055492.5506885-.7292345.9903451-1.2739726 1.2973595-.5476551.3032886-1.1157288.4612669-1.7093257.4612669-.597243 0-1.1682336-.1579783-1.7107841-.4612669-.5447382-.3070144-.9698819-.746671-1.2725142-1.2973595-.3055493-.5678277-.4565008-1.1490686-.4565008-1.7511746 0-.6043415.1509515-1.1952698.460147-1.7563908.3055492-.5641018.740173-1.0000325 1.2863696-1.3092825.5476551-.3017981 1.1171873-.4508343 1.6932825-.4508343z"/><path d="m5.90760156 55.7576881c-.10209283-.053653-.211478-.094638-.3339894-.094638h-1.31043438c-.13344992 0-.24575203.040985-.32742629.094638-.14511767.0625951-.21366571.1795885-.21366571.3144662v1.9888872c0 .1199741.06854804.2116313.21366571.2965819.08167426.0551434.19397637.0804795.32742629.0804795h1.31043438c.1225114 0 .23189657-.0253361.3339894-.0804795.13636685-.0849506.20564413-.1766078.20564413-.2965819v-1.9888872c0-.1348777-.06927728-.2518711-.20564413-.3144662zm-2.21395592 3.5045847c-.36534649 0-.71683751-.0901669-1.06395313-.2608133-.46233467-.2399482-.69204354-.5886927-.69204354-1.0372915v-1.7914143c0-.4366759.22970887-.7869108.69204354-1.0253686.34711562-.1736271.69860664-.2690102 1.06395313-.2690102h2.45752024c.36097107 0 .71173287.0953831 1.05666078.2690102.46014697.2384578.69496047.5886927.69496047 1.0253686v1.7914143c0 .4739349-.2348135.7988337-.69496047 1.0372915-.34492791.1706464-.69568971.2608133-1.05666078.2608133z"/><path d="m11.4900375 57.4703368c-.1487639 0-.2771092-.0156488-.3879528-.0789892-.177204-.0804795-.2720045-.1833144-.2720045-.3196825 0-.1453102.0948005-.2473999.2720045-.3375668.1210529-.0521627.2545028-.0789892.3879528-.0789892h1.6502576c.1422007 0 .261066.0268265.3872235.0789892.180121.0901669.2639829.1922566.2639829.3375668 0 .0469464-.0175016.0894217-.0525049.1542524-.0386494.0648308-.0882373.102835-.15241.131897-.059068.0335331-.1290745.0640856-.2092903.0871862-.0824035.0253361-.1553269.0253361-.2370012.0253361zm.3091954-1.7340354c-.3864943 0-.7131914.0767536-.9837373.2459096-.3864943.222809-.5651568.5797506-.5651568 1.0536855v1.6230035c0 .2101409-.1195944.3696096-.36170029.4866029-.14511767.0827151-.32888476.1162482-.52723654.1162482-.21658265 0-.39014046-.0335331-.541092-.1162482-.23554274-.1169933-.35367872-.276462-.35367872-.4866029v-1.6282198c0-.7571036.34930332-1.3592095 1.04572226-1.7213673.51119339-.263794 1.08364249-.4128301 1.70422099-.4128301h1.9142406c.1407422 0 .267629.037259.3923281.0767536.1735578.0789891.2683583.1959825.2683583.3360765 0 .119974-.0772988.2220638-.208561.2995626-.1319915.0812247-.2880477.1274259-.4521254.1274259z"/><path d="m18.3661353 54.984116c.1757456-.037259.4047252-.0879313.6584988-.1058156.2625244-.0216103.5717198-.0216103.917377-.0216103h1.9200744c.1341792 0 .2654414.0216103.3828481.0767536.1830379.0774988.2727337.2011988.2727337.3308602 0 .1326422-.0896958.2600681-.2727337.3375669-.1174067.0432205-.2486689.0611048-.3828481.0611048h-1.3417915c-.6008892 0-1.0012389.0268265-1.2112585.0819699-.258149.0417301-.3894112.1922566-.3894112.4009072 0 .2384578.177204.3785518.5447382.4448728.0546926 0 .1319914.0126681.2493982.0126681h.435353c.6169324 0 1.0843717.0521627 1.3928379.1311518.6541233.2011988.9808204.5849668.9808204 1.1468331 0 .8673903-.9100847 1.2906529-2.7514018 1.2906529h-1.9105944c-.1509515 0-.2851306-.0268265-.3850358-.0678115-.1830378-.0812247-.2727337-.206415-.2727337-.3412927 0-.1438199.0875082-.2563422.270546-.3248988.105739-.053653.236272-.0804795.3872235-.0804795h1.3417915c.3091954 0 .5615106 0 .7554869-.0074518.2122073-.0283169.354408-.0432205.4302484-.0573789.2756506-.0558886.4091006-.1922566.4091006-.4061235 0-.3085048-.3617004-.4649927-1.0734332-.4649927-1.6808855 0-2.5209637-.4120849-2.5209637-1.2757493 0-.6035964.3974328-.9843837 1.163129-1.1617367"/><path d="m29.2861302 58.9570468c-.1298037.2153572-.3689927.3263891-.7204837.3263891-.2844014 0-.5374458-.0968735-.7656962-.2727361-.0211478-.0186296-.0350033-.0305524-.0459418-.053653-.0175016-.0111778-.0284401-.0111778-.0422956-.032788l-1.4402381-2.1520818c-.0386494-.0596144-.0612557-.1169933-.0612557-.1885307 0-.152762.0860497-.2637939.2493982-.3539608.1261576-.0573789.2552321-.0834602.3740973-.0834602.2282504 0 .3915989.0678114.4776486.2235542l.833515 1.3390896 1.4329458-2.4948649c.1298037-.2280252.3653465-.3360764.730693-.3360764.3303432 0 .6045354.1058156.786844.2913656.1020928.1020898.1531392.2384578.1531392.3725903 0 .0938928-.0262524.1758627-.0824035.2786976zm-3.5841875.3263891c-.3522203 0-.5935969-.1110319-.7161083-.3263891l-1.8828835-3.1364655c-.0517756-.0842054-.0845912-.1758626-.0845912-.2786976 0-.2198283.1261576-.3942005.3689927-.5179005.1961641-.0901669.3792019-.1460554.5760952-.1460554.3405525 0 .5797415.1080512.7131914.3360764l1.8974681 3.1431721c.0452126.070047.0663604.1490361.0663604.2623036 0 .2444193-.1582439.4292241-.4499377.5670825-.1684532.0499271-.3281555.0968735-.4885871.0968735z"/><path d="m32.0443138 59.1382747c-.2442935-.1147578-.3580541-.2854042-.3580541-.4918192v-3.163292c0-.2116313.1137606-.3696096.3580541-.4970355.189601-.0894217.376285-.1207193.5374458-.1207193.1604316 0 .3376356.0312976.5308828.1207193.2406473.1274259.3617003.2854042.3617003.4970355v3.163292c0 .206415-.121053.3770614-.3617003.4918192-.1830379.0804795-.3602419.1237-.5308828.1237-.1611608 0-.3478448-.0432205-.5374458-.1237"/><path d="m35.98991 55.6626775h-1.2644926-.3390941c-.1020928-.0089421-.1728285-.0178843-.2231457-.0268265-.1793917-.070047-.2690876-.1848048-.2690876-.3360765 0-.2891301.2727337-.4344403.8313274-.4344403h4.3177974c.2588783 0 .5308827.1080512.8094503.3032885.0109385.0126681.0269817.0447109.0269817.1311518 0 .1512717-.0948005.2660295-.2851307.3360765-.0503172.0089422-.1188652.0178844-.214395.0268265h-.3369063-1.2601172v2.9747613c0 .2131216-.1210529.3860036-.3595126.5007614-.1509515.0625952-.3361771.0983638-.5374458.0983638-.2005395 0-.3864943-.0357686-.5272366-.0983638-.2530443-.1147578-.363888-.2876398-.363888-.5007614z"/><path d="m40.2517751 58.5939202c0-.1005994.0350033-.1974729.1020929-.2727361l2.2307283-2.6588046h-1.5634788c-.3033615 0-.4827532 0-.5658859-.0178844-.1786625-.0693018-.2683583-.169156-.2683583-.3353313 0-.2980722.2778383-.4433825.8342442-.4433825h2.6267027c.208561 0 .4054543.0305524.6038061.1199741.2800261.1274259.4236853.3144663.4236853.55665 0 .1020897-.0386495.2026891-.105739.2779524l-2.2248945 2.635704h1.7654767c.273463 0 .5491136.0879313.811638.292856.0065631 0 .0138555.0514175.0138555.1199741 0 .1728819-.0845912.276462-.2690875.3502349-.0510465.0089422-.1174068.0178843-.214395.0178843-.0969882.024591-.2122072.024591-.342011.024591h-2.923501c-.1494931 0-.3019031-.0335331-.4572301-.0894217-.3194047-.1304066-.4776486-.3211729-.4776486-.5782602"/><path d="m47.9008616 57.4703368c-.1356376 0-.270546-.0357687-.3901405-.0789892-.1757455-.0894216-.2690875-.1922566-.2690875-.3390572 0-.1333873.093342-.2563421.2690875-.3398023.1195945-.0462012.2545029-.0752633.3901405-.0752633h1.6458822c.1370961 0 .2617952.0290621.3864943.0752633.177204.0834602.2720045.206415.2720045.3398023 0 .057379-.0175016.1005994-.059068.1557428-.037191.0611048-.0882374.1028349-.1480346.1311518-.0649019.0342783-.127616.0648307-.2034564.0827151-.0882374.0231006-.1655363.0484367-.2479398.0484367zm-.2778384 1.7914143c-.6431848 0-1.2054246-.1468006-1.6932825-.4180463-.6920435-.3986717-1.0435345-.9821481-1.0435345-1.7720397 0-.7809493.351491-1.3815649 1.0435345-1.7623522.4951503-.2854042 1.0661409-.4314597 1.6932825-.4314597h1.9215329c.130533 0 .2603368.0357687.3872236.0953832.1772039.0789891.2668998.1959825.2668998.3263891 0 .1296614-.0896959.2429289-.2668998.3360765-.1268868.0357687-.2566906.0678114-.3872236.0678114h-1.3352283c-.379202 0-.7234006.0834603-1.0187406.2682651-.3930574.2421837-.5935969.6192451-.5935969 1.1088288 0 .4925644.2041857.849506.6059939 1.1006319.2902353.1758626.6307878.2563421 1.0063436.2563421h1.337416c.1370961 0 .2617952.0268265.3864943.0812247.177204.0752632.2720045.193747.2720045.3248988 0 .0543982-.0175016.1132674-.059068.1795885-.037191.0462012-.0882374.0804795-.1480346.1222096-.0649019.0268265-.127616.0551434-.2034564.0827151-.0882374.0089422-.1655363.0335331-.2479398.0335331z"/><path d="m2.83963912 2.09052985c.15824388-.07004698.28440145-.10059939.38649428-.10059939h.72704679c.12324063 0 .22897963-.03055241.32378012-.07526325.15095154-.06110481.21074877-.17213673.21074877-.30552407v-.45754093c0-.18853071-.17574552-.30179817-.53452889-.30179817h-1.32064367c-.35805413 0-.53744582.11326746-.53744582.30179817v.06259517l-.01239699 2.63197813c0 .21014095-.11813598.36960961-.36534648.48660298-.14220072.08271505-.32888475.11699336-.52942424.11699336-.2071026 0-.3806604-.03427831-.53744582-.11699336-.23481351-.11699337-.35805414-.27646203-.35805414-.48660298v-2.48592271c0-.02682651.00218771-.06110482.00875082-.08420542.04083713-.42624334.28658915-.73847404.72923449-.94637945.32305088-.16841083.66943727-.26379396 1.01874059-.26379396h2.245313c.7481946 0 1.28928659.17437228 1.62619293.51864575.1903302.19002107.28658915.38972949.28658915.62967766v.31968251c0 .55664996-.34274021.94488909-1.0274914 1.17067883l.79559483.63712948c.16334853.11848372.24283509.28391383.24283509.46499274 0 .21163131-.13344991.38227768-.39232816.51939092-.1925179.08942168-.38941122.14531023-.56223979.14531023-.19835179 0-.36826342-.05588855-.52140267-.17958854l-1.97622547-1.58723483c-.13199145-.08271505-.1881425-.17809818-.1881425-.29062046 0-.12742589.08313273-.24441926.26179518-.32340841" mask="url(#a)" transform="translate(50.31718 54.812575)"/><path d="m59.8502439 59.2619747c-.646831 0-1.2090708-.1475458-1.6932825-.4187916-.6891266-.3979264-1.0435346-.9814029-1.0435346-1.7712944v-1.5745668c0-.2257897.1174067-.383768.354408-.5111939.1392837-.0529078.3332601-.1080512.5272365-.1080512.2107488 0 .3864943.0551434.5483843.1080512.2311674.1274259.354408.2854042.354408.4970355v1.5887252c0 .5059777.1779332.8919813.5447382 1.109574.2566905.1758627.5760952.2563422.9837373.2563422h1.3417915c.1370961 0 .267629.0268265.3799311.0812247.1823087.0752632.2720045.1937469.2720045.3241535 0 .1371133-.0896958.2608133-.2865891.3435283-.1101145.0417302-.2370013.0752633-.3682635.0752633z"/><path d="m66.4835067 56.0720053c0-.1348777-.0736527-.2511259-.2180412-.3144663-.0926127-.053653-.196164-.0946379-.3157585-.0946379h-2.3539689c-.4324361 0-.6519357-.1207193-.6519357-.3807873 0-.1348777.0896959-.2369675.2654414-.3085048.1108436-.0596145.2355427-.0953832.373368-.0953832h2.929335c.354408 0 .7131913.0953832 1.0646824.2690103.4703562.239203.6993358.5886927.6993358 1.0253686v2.4739998c0 .2056699-.1203236.3763162-.3624295.4918192-.1830379.0804795-.3617003.1237-.5352581.1237-.1655363 0-.3427402-.0432205-.5279658-.1237-.2399181-.115503-.3668049-.2861493-.3668049-.4918192v-1.1386361c0-.1162482-.0736527-.2168476-.2180412-.2995626-.0926127-.0685566-.196164-.0827151-.3157585-.0827151h-1.327936c-.1195945 0-.2289796.0141585-.320134.0827151-.1407422.082715-.2071025.1833144-.2071025.2995626v.5529241c0 .1207192.0663603.2116313.2071025.2965819.0911544.0558885.2005395.0804795.320134.0804795h.6533941c.1436592 0 .2683583.0268265.3864943.0812247.1896009.0745181.270546.193747.270546.3241536 0 .136368-.0809451.2608132-.270546.3435283-.1093852.0409849-.2413766.0752632-.3864943.0752632h-1.2258432c-.3500325 0-.7037113-.0901668-1.0581192-.2608132-.4535839-.2399482-.6883974-.5737891-.6883974-1.0372915v-.3427831c0-.43295.2348135-.7884012.6883974-1.0179168.3288847-.1721367.6760003-.2570873 1.0581192-.2570873h2.4341848z"/><path d="m74.4730727 58.6372152c0 .2064151-.1210529.3733355-.3602418.4776608-.1910595.0856958-.3719096.1222097-.5352582.1222097-.1669947 0-.3485741-.0365139-.5308827-.1222097-.245752-.1043253-.3668049-.2712457-.3668049-.4776608l-.0051047-2.5544793c0-.1274259-.0780281-.2280253-.2216873-.3070145-.0911543-.0573789-.2019979-.0856957-.3194047-.0856957h-.9407125c-.1203237 0-.2370012.0283168-.3245093.0856957-.1436592.0789892-.2107488.1795886-.2107488.3070145l-.0087508 2.5544793c0 .2064151-.1210529.3860036-.3565957.4776608-.1983517.0856958-.3777434.1222097-.541092.1222097-.1655362 0-.3427402-.0365139-.5359873-.1222097-.2318966-.1043253-.3507618-.2712457-.3507618-.4776608l.0014585-2.4792161c0-.4545602.233355-.7988337.7044405-1.023133.3427402-.1706464.693502-.2697554 1.0500977-.2697554h2.0856106c.3478449 0 .7007944.099109 1.0508269.2697554.4550423.2242993.6876681.5685728.705899 1.023133l.0102093 1.4203144z"/><path d="m77.6495452 59.2619747c-.140013 0-.2668998-.0335331-.3901404-.0752633-.177204-.082715-.2668999-.206415-.2668999-.3435283 0-.1304066.0896959-.2488903.2668999-.3241535.1232406-.0543982.2501274-.0812247.3901404-.0812247h.1545977c.3828481 0 .7161083-.0804795 1.0187406-.2563422.3901405-.2518711.5848461-.622971.5848461-1.109574 0-.5208813-.1910594-.8994331-.5760953-1.1274584-.2895061-.1870403-.6271416-.2816783-1.0165528-.2816783h-.4389992c-.1232406 0-.2253335.040985-.320134.094638-.1465761.0633403-.2165826.1803337-.2165826.3144662v2.5745993c0 .206415-.1210529.3770614-.3595126.4918192-.1954348.0804795-.3726388.1237-.5337997.1237-.1677239 0-.3471156-.0432205-.5308827-.1237-.2391889-.1147578-.3653464-.2854042-.3653464-.4918192v-2.4739999c0-.4359307.2318965-.7861656.6993358-1.0246234.354408-.1743723.7022529-.2697554 1.0639532-.2697554h1.5722295c.6132862 0 1.178443.1460554 1.7013041.4433825.6949605.3964361 1.0428053.9873644 1.0428053 1.7593716 0 .7720071-.3478448 1.356974-1.0486392 1.7623522-.5053595.2712458-1.0661408.4187916-1.6983871.4187916z"/><path d="m6.54852576 52.9395638c-1.08947634 0-2.05352434-.2049247-2.88266396-.5946542-1.18063064-.5648469-1.76912288-1.394233-1.76912288-2.4971004 0-1.1036126.58849224-1.9329987 1.76912288-2.4754902.84809972-.400162 1.80777231-.5991252 2.88266396-.5991252h3.25019814c.2267919 0 .4513961.0357686.6621449.0894216.2982569.1311518.4492085.3017982.4492085.4687187 0 .2175927-.1509516.3658837-.4492085.499271-.2107488.0842054-.435353.111032-.6621449.111032h-2.26427311c-.64318482 0-1.21928007.1207192-1.73266116.3718451-.66579109.3494897-.99030044.8651548-.99030044 1.5656246 0 .6155192.26325365 1.080512.78538555 1.4173336.42295601.263794.89695843.4217723 1.43805042.4560506.57171985-.0029807.8539336-.1922566.8539336-.5275879v-1.0842379c0-.3070144.19835178-.5365301.60818156-.6945084.25596131-.1169933.55859363-.1669204.90643848-.1669204s.6497479.0499271.9100846.1669204c.4069129.1579783.612557.387494.612557.6945084v.9895999c0 .634894-.398162 1.117771-1.18208909 1.4538475-.58119989.2205735-1.17990141.3554512-1.80558461.3554512z"/><path d="m18.5841035 48.0169748c-.1582438-.0752632-.3376355-.1311518-.5476551-.1311518h-2.2460422c-.2071026 0-.3945159.0558886-.5476551.1311518-.2442936.0827151-.354408.2250446-.354408.4269885v2.775798c0 .1922567.1101144.3248988.354408.4307145.1531392.0752632.3405525.1020897.5476551.1020897h2.2460422c.2100196 0 .3894113-.0268265.5476551-.1020897.239189-.1058157.3653465-.2384578.3653465-.4307145v-2.775798c0-.2019439-.1261575-.3442734-.3653465-.4269885zm-3.7592038 4.9226635c-.6008892 0-1.2017784-.1348777-1.8077723-.3681192-.7788224-.3479994-1.1645875-.8219343-1.1645875-1.4501216v-2.528398c0-.6311681.3857651-1.1140451 1.1645875-1.4486312.6059939-.2526163 1.2068831-.3711 1.8077723-.3711h4.1755967c.6183909 0 1.2243847.1184837 1.8041262.3711.786844.3345861 1.1835476.8174631 1.1835476 1.4486312v2.528398c0 .6281873-.3967036 1.1147903-1.1835476 1.4501216-.5797415.2332415-1.1857353.3681192-1.8041262.3681192z"/><path d="m27.5819821 52.9395638c-1.0851009 0-2.0484197-.2049247-2.8666208-.5946542-1.187923-.5648469-1.7764152-1.394233-1.7764152-2.4971004v-2.2258547c0-.3085048.2019979-.5290782.5994307-.6892921.261066-.1035801.5585937-.1594686.9166478-.1594686.3478449 0 .6461018.0558885.9100847.1594686.4039959.1602139.6008892.3807873.6008892.6892921v2.2154222c0 .7265511.3128416 1.249668.9239401 1.5745667.432436.2317512.9910297.3405476 1.6757808.3405476h2.2737532c.2472105 0 .460147.0596145.6497479.115503.3091955.1289163.4565008.2816783.4565008.4769156 0 .2064151-.1545977.3554512-.4674393.4672283-.2136657.0819699-.4244145.1274259-.6533941.1274259z"/><path d="m36.4923525 52.9395638c-.2355427 0-.4601469-.045456-.6621449-.1274259-.3077369-.1117771-.4586885-.2608132-.4586885-.4672283 0-.1952373.1509516-.3479993.4586885-.4769156.201998-.0558885.4266022-.115503.6621449-.115503h.2566906c.6497479 0 1.2156339-.1087964 1.7231811-.3696096.6767296-.3301151 1.0063436-.8472704 1.0063436-1.5350722 0-.7317674-.3281555-1.2548842-.976445-1.579783-.4951502-.2511259-1.0734332-.3822777-1.7253688-.3822777h-.7554869c-.2034565 0-.3901405.0558886-.5447382.1311518-.2450228.0827151-.3646173.2250446-.3646173.4269885v3.6267943c0 .3017982-.2078318.5313139-.6118277.6855663-.3332602.1095415-.6286001.1833144-.9100846.1833144-.2771091 0-.5848461-.0737729-.9027923-.1833144-.3967036-.1542524-.6045354-.3837681-.6045354-.6855663v-3.4777581c0-.6311681.3959743-1.1140451 1.1704213-1.4486313.6008892-.2526162 1.1981323-.3710999 1.8114185-.3710999h2.6879584c1.0289498 0 1.9791424.1989632 2.864433.6050867 1.1806307.5760246 1.778603 1.4001944 1.778603 2.4807064 0 1.0916897-.5979723 1.9061722-1.7851661 2.4859227-.8539336.3897295-1.8063138.5946542-2.8775593.5946542z"/><path d="m45.596043 47.871441h-2.1468663c-.2267919 0-.4287899-.0067066-.5760953-.0245909-.1684531-.0044711-.2880476-.016394-.3740973-.032788-.3004446-.0894217-.4623346-.2496355-.4623346-.4828771 0-.3800421.4725439-.5849668 1.4125272-.5849668h7.3273482c.4462915 0 .9086262.1363681 1.3753362.4180464.0196894.0089421.024794.0648307.024794.1669204 0 .2332416-.1422007.3934554-.4535838.4828771-.0875082.016394-.2136657.0283169-.3719096.032788-.1618901.0178843-.3602419.0245909-.5746368.0245909h-2.1505125l.0160431 4.1990931c0 .3122307-.2034564.5424915-.6154739.6945084-.2501274.1222096-.5600521.1743723-.9078969.1743723-.3456572 0-.6475603-.0521627-.9006046-.1743723-.4222268-.1520169-.6096401-.3822777-.6096401-.6945084z"/><path d="m56.976039 50.4173508c-.2391889 0-.4528546-.0380042-.6606864-.1207193-.3055493-.1140126-.4586885-.2690102-.4586885-.4731897 0-.1922566.1531392-.3576867.4586885-.4508343.2078318-.0931476.4214975-.1326422.6606864-.1326422h2.786405c.2355428 0 .4565008.0394946.6636034.1326422.3062785.0931476.4535839.2585777.4535839.4508343 0 .0819699-.0269817.1542524-.0933421.2399482-.0597972.0774988-.1509515.1348777-.258149.1721367-.1020928.0611048-.220958.0901669-.3529495.1296614-.1349083.0342784-.2720044.0521627-.4127467.0521627zm-.4710855 2.5224366c-1.0923932 0-2.0476904-.2049247-2.8804762-.5946542-1.1842768-.564847-1.7654767-1.3949782-1.7654767-2.4971004 0-1.1043578.5811999-1.9329987 1.7654767-2.4754902.8466412-.4009072 1.8041261-.5998705 2.8804762-.5998705h3.246552c.2370012 0 .45723.0365139.6679788.0901669.2982569.1311518.4550423.3017982.4550423.4679735 0 .2175927-.1567854.3666288-.4550423.499271-.2107488.0849506-.4309776.1117771-.6679788.1117771h-2.2628146c-.6424556 0-1.2229263.1199741-1.7173473.362903-.6716249.3442735-1.0129067.8666451-1.0129067 1.5537017 0 .6952536.3449279 1.1945246 1.0194698 1.5246396.4995257.2608133 1.0770794.3696097 1.7107842.3696097h2.2737531c.2355428 0 .4565008.0596144.6636034.1147578.3062785.1296614.4535839.2824234.4535839.4776608 0 .0752632-.0269817.1579783-.0933421.239203-.0597972.0730277-.1509515.1237-.258149.1810789-.1020928.0394946-.220958.0946379-.3529495.1214644-.1349083.0365139-.2720044.0529079-.4127467.0529079z"/><path d="m63.6060932 46.8915285c.29534-.0469464.6679788-.086441 1.1120826-.1184838.4441038-.0342783.9647772-.0447108 1.5620203-.0447108h3.2429058c.233355 0 .4601469.0387494.6694372.1162482.2960692.1192289.4528547.2660295.4528547.4687186 0 .1810789-.1567855.3375669-.4528547.4418921-.2092903.0752633-.4360822.1162482-.6694372.1162482h-2.2526054c-1.0311376 0-1.7180764.0432205-2.0535243.0901669-.4550423.0819699-.6796466.2801879-.6796466.577515 0 .3286247.3055493.5424915.9275863.6326584.0802158 0 .2282504.0067066.4149344.0156488.1998103 0 .4492085.0126681.7481946.0126681 1.0486392 0 1.8369417.0611048 2.3656367.1974728 1.0996856.2816783 1.6641131.8092663 1.6641131 1.5797831 0 1.2153896-1.5583741 1.8279281-4.6576207 1.8279281h-3.2757213c-.2377305 0-.4462915-.0402397-.6431848-.1050704-.3004446-.1162482-.4535839-.2794428-.4535839-.4769157 0-.2086505.1480346-.3681192.4433746-.4739349.2107487-.0767536.4251437-.1058156.6533941-.1058156h2.279587c.5257781 0 .9706111 0 1.306059-.0216103.3347186-.0268265.5884922-.0469463.7285053-.066321.4674393-.0789892.6920435-.2675199.6920435-.55665 0-.4344403-.6059939-.6535234-1.8303786-.6535234-2.8498484 0-4.2725849-.610303-4.2725849-1.8167505 0-.8308765.6570403-1.3644258 1.9784132-1.6371619"/><path d="m74.669966 47.871441h-2.1359278c-.2253335 0-.4200391-.0067066-.5797414-.0245909-.1560562-.0044711-.2807553-.016394-.3726389-.032788-.2953399-.0894217-.4528546-.2496355-.4528546-.4828771 0-.3800421.4630639-.5849668 1.4052349-.5849668h7.3200558c.4550423 0 .9151893.1363681 1.3840871.4180464.0196893.0089421.0335448.0648307.0335448.1669204 0 .2332416-.1545977.3934554-.4652516.4828771-.0794866.016394-.2122073.0283169-.366805.032788-.16189.0178843-.3587833.0245909-.5855753.0245909h-2.1373863l.0138555 4.1990931c0 .3122307-.2056441.5424915-.6147447.6945084-.2603367.1222096-.565886.1743723-.9151893.1743723-.339094 0-.6446433-.0521627-.9035215-.1743723-.4054544-.1520169-.612557-.3822777-.612557-.6945084z"/><path d="m82.3579207 23.1876294c-.0298987-1.0358011-1.3111637-1.6878342-4.1442397-2.111842-1.5678541-.2779524-3.4281313-.3994169-5.6479211-.379297-1.990081.0171392-3.6607572.1445651-5.0798475.3867488.0072923-.0499271.0153139-.0976187.021877-.148291l.0043754-.0365138-.0036461-.0357687c-.1042806-.9910903-.2975277-1.7847077-.5615106-2.4255631l7.899068-.0730277c.9385248-.008197 1.8580895-.1020897 2.7462971-.1922566.4455623-.045456.88602-.090912 1.3221022-.1237 2.1658264-.1669204 3.1605023-.7928722 3.1306037-1.9933583-.0262525-.7913818-.4178514-1.740742-3.2450935-2.0619149-1.1514613-.1289162-2.4188709-.1944921-3.7679547-.1944921l-14.1865278.128171c-.0918836-2.6871215-.9676942-6.40482783-3.3792727-9.26855714-2.7988019-3.32276061-7.0261743-4.83622255-12.5092885-4.4718292-6.2349549.40984936-6.7687545 3.85258406-7.1975444 6.62018507-.3055493 1.97100287-.5476551 3.52917567-2.6179519 3.78179187l-1.7406827-.053653c-2.574927-.0804795-4.6094912-.1438198-6.7220836-.1438198-2.2897963 0-4.4541642.0760084-7.0196112.2466548-5.0732844.3368216-9.2124194 1.7474486-10.80215055 3.6811925-.55057205.6699174-.79121943 1.3800746-.71392057 2.1103516l.00802158.0424753c.76205004 2.9933908 4.55406944 3.8443871 8.22138964 4.6678117 1.5970236.3584319 3.116019.6989795 4.3724901 1.1997409-2.1971836 1.6528107-5.5217636 3.2951889-8.7420631 4.8868949-6.24078885 3.0850479-12.1359205 5.9987043-12.00101211 9.52788.24356432 2.3070794 3.02778162 5.0023978 10.07218681 5.0016527.7875733 0 1.6203591-.0335332 2.472105-.1013446 6.4114296-.43295 22.3262432-3.4285763 27.9500996-5.8533942.1465762-.0640855.2763799-.0961283.3850358-.0961283.4652517 0 .705899.6572494 1.0916641 1.818986.7780932 2.3428481 2.0790475 6.2647339 8.4146368 6.2647339.4236853 0 .8699768-.0171391 1.3293945-.0521626 2.9315227-.2578325 5.2760116-1.4538475 6.9685648-3.5537666 2.375846-2.9471896 2.9132918-7.056861 2.9366273-9.2916578l2.2737532-.0208651c3.5849167-.0320427 7.2062952-.3599222 11.0807181-1.0030132 5.0645336-.9545764 7.500906-2.318257 7.4484011-4.170031z" mask="url(#b)" transform="translate(0 .140839)"/></g><path d="m55.3776299 30.6776639c-6.6579109.0558885-12.5822119-.4038879-17.6839364-1.3502674-7.242757-1.3696421-10.9144527-3.4337925-10.9968562-6.2312008-.0772989-2.7907016 3.3603125-5.4509966 10.5257707-6.8929212 5.1710018-1.0536854 11.0121701-1.6118258 17.5927821-1.6714402l19.8898709-.1818241c1.3811701-.0104325 2.7506725.045456 4.0508976.1907663 2.8884978.3286246 2.8739131 1.2750041 2.8884978 1.687089.0138555.55665-.2107488 1.3554836-2.7601526 1.5514662-1.3089759.1005993-2.655872.3032885-4.0421468.3159566l-13.86056.1274259c-3.9349493.0305524-7.4279825.3696096-10.557857 1.0343107-4.0377714.9202981-5.9541996 1.9911228-5.899507 3.7646528.0525048 1.5522113 1.7005748 2.7191642 4.9062896 3.54706 2.6157642.6497975 5.5319729 1.0194071 8.8419683 1.0782764 3.4901163-.0462012 5.2067343-.5350397 5.1826695-1.3875264l-.0816742-2.7504619c-.0240648-.7734975 1.1740675-1.369642 3.6629448-1.7854529 1.5583741-.3107403 3.3975035-.4582861 5.5319729-.4754252 2.1279062-.0223554 3.9794326.0894217 5.5764562.3725903 2.5151297.3770614 3.7891024.9463795 3.8117087 1.719877l.0670895 2.5082781c.0459418 1.6080999-2.3561566 2.8577679-7.1202456 3.7549654-3.5462673.5894379-7.1902521.9627735-11.0114408.9963066z" fill="#fefefe"/><path d="m32.5730818 30.4353311c1.0274914.6207355 2.547216 1.6945409 3.7526407 1.7839625.7955948.0663211 1.7902706-.297327 1.8675695-1.1863276.071465-.8971975-1.4475305-2.6476269-2.0156041-3.4285762.7554869-.6028512 2.0834229-1.4903614 2.161451-2.4903938.0649019-.7302771-.4025374-1.2332741-1.1419812-1.2973596-1.1791722-.0894217-2.397723.7451807-3.541892.6535235-.233355-.0126681-1.0595777-1.8584806-2.8863101-2.0015553-1.9463268-.1527621-2.6719152.6460716-3.0533048 2.3778715-.9385248.0126681-5.1855865-.160959-5.2789285.9963065-.0896959 1.0738054 3.725659 2.1722017 4.6568915 2.4725095-.1108437.610303-.354408 1.2310385-.4112883 1.8450674-.0962589 1.146833 1.5496233 2.0343432 2.5566962 2.1073709 1.3563761.1028349 2.3612612-1.0693343 3.3340601-1.8323993" fill="#e20714"/><path d="m34.3701343 27.916695c-.0875081-1.3301475-.0138554-.3487446-.0948005-2.0268915-.6395386.1274259-1.2017784.2168476-1.7217226.2876398-.0539634-.8442897-.15241-1.5820186-.2895061-1.9285276-.985925.0722825-.7015236.0231006-1.9944563.1058157.1502223.4366758.242835 1.1654625.3040907 1.9642962-.5987015.0126681-1.2418863.0089422-1.9951855-.0201199.2260627.7742428.0999051 2.0343433.0999051 2.0343433s.8852907.0514174 1.9849763.0447108c.0233355 1.0127005.0145847 1.7951402.0145847 1.7951402l1.9849763-.1043253s.0036461-.7787138-.0218771-1.7787462c.6891266-.0678115 1.3111637-.18555 1.729015-.3733355" fill="#fefefe"/><path d="m20.0489169 33.7439333c-.6745419.3569415-2.41012 1.0179168-3.2516566 1.1967602-.9064385.1967276-1.5510818-.0678115-1.6283807-.4195368-.1108436-.5104487 1.6035867-1.6736758 2.1840573-2.2444841-.5469258-.1952374-1.2790773-.1304067-1.489826-.6907825-.0758404-.3658837.4812947-.7645554 1.3352283-.9508506.7547577-.1564879 1.1733383-.1922566 1.9623701-.2786975.7095451-.540256-.2326259-1.3286572 1.0712454-1.6036288 1.8143354-.3852584 2.8812055.5372752 2.8753716 1.0633728 1.2550126-.140094 2.0046657.1631945 2.1629095.853977.2741922 1.1855825-1.4650321 1.6736758-1.3913794 2.0231656.0510464.2108861-.1968933 1.4829095-1.8405878 1.8115342-1.1303135.2421837-1.4657614-.4635024-1.9893517-.7608295" fill="#e20714"/><path d="m10.7982127 33.8927459-.2391889-.2749717c-.5935969-.5812409-1.12375038-.4575409-1.65244538.1005994-.54692588.5626114-.44118687 1.4203144-.5221319 1.5045198-.4987964.5260975-1.234594.8651547-1.76037207 1.4076463-.0802158.0879313-.59578458.6319132-.44264534.7846752.10063436.1058157 1.5707711-.614774 1.88871734-.725806-.03573249.1728819-.19178867.7056861-.05104641.8420542.66068645.6550138 2.10821696-1.0521951 2.51221286-1.1989957.4178513-.1423295 1.8930927.486603 2.3328211.0268265.3194047-.3360765-.6008892-1.0991415-.824035-1.3085373.2377305-.1922566.5308827-.3539608.7314222-.5722987.2297089-.2250446.1925179-.5551596-.0415663-.7846753-.4740025-.4739349-1.4292996-.0074518-1.9317422.1989633" fill="#e20714"/></g></svg>