<svg xmlns="http://www.w3.org/2000/svg" xmlns:xlink="http://www.w3.org/1999/xlink" viewBox="0 0 125.46 52.05"><defs><style>.cls-1{fill:none;}.cls-2{clip-path:url(#clip-path);}.cls-3{fill:#fff;}.cls-4{fill:red;}</style><clipPath id="clip-path"><rect class="cls-1" width="125.47" height="52.01"/></clipPath></defs><title>logo-goldtest-2022</title><g id="Calque_2" data-name="Calque 2"><g id="Calque_1-2" data-name="Calque 1"><g class="cls-2"><path d="M68.93,36.11h.65a1.11,1.11,0,0,0,.64-.14.47.47,0,0,0,.17-.37.4.4,0,0,0-.08-.26.54.54,0,0,0-.22-.18,1.66,1.66,0,0,0-.54-.05h-.61ZM68.4,38V34.66h1.14a2.76,2.76,0,0,1,.86.09.79.79,0,0,1,.42.32.91.91,0,0,1,.15.49.93.93,0,0,1-.26.64,1,1,0,0,1-.69.29,1,1,0,0,1,.28.18,3.73,3.73,0,0,1,.49.66l.41.65h-.66l-.29-.53a2.75,2.75,0,0,0-.56-.78.69.69,0,0,0-.43-.12h-.32V38Zm1.36-4.3a2.62,2.62,0,0,0-1.27.34,2.37,2.37,0,0,0-1,1,2.66,2.66,0,0,0-.34,1.29,2.71,2.71,0,0,0,.34,1.28,2.48,2.48,0,0,0,1,1,2.59,2.59,0,0,0,2.57,0,2.4,2.4,0,0,0,1-1,2.59,2.59,0,0,0,.34-1.28A2.67,2.67,0,0,0,72,35a2.31,2.31,0,0,0-1-1,2.59,2.59,0,0,0-1.26-.34m0-.51a3.17,3.17,0,0,1,1.52.4,2.88,2.88,0,0,1,1.15,1.15,3.14,3.14,0,0,1,.42,1.55,3.21,3.21,0,0,1-.4,1.54A2.93,2.93,0,0,1,71.3,39a3.12,3.12,0,0,1-3.08,0,2.91,2.91,0,0,1-1.15-1.14,3.16,3.16,0,0,1-.41-1.54,3.12,3.12,0,0,1,.42-1.55,2.91,2.91,0,0,1,1.16-1.15,3.18,3.18,0,0,1,1.53-.4"/><path d="M5.32,48.9a.65.65,0,0,0-.3-.08H3.84a.55.55,0,0,0-.29.08.29.29,0,0,0-.19.28v1.75c0,.11.06.19.19.26a.54.54,0,0,0,.29.07H5a.63.63,0,0,0,.3-.07.31.31,0,0,0,.18-.26V49.18a.3.3,0,0,0-.18-.28M3.33,52a2.18,2.18,0,0,1-1-.23,1,1,0,0,1-.62-.91V49.27a1,1,0,0,1,.62-.9,2.17,2.17,0,0,1,1-.24H5.54a2.13,2.13,0,0,1,1,.24,1,1,0,0,1,.63.9v1.58a1,1,0,0,1-.63.91,2.15,2.15,0,0,1-1,.23Z"/><path d="M10.35,50.41a.71.71,0,0,1-.35-.07c-.16-.07-.24-.16-.24-.28s.08-.22.24-.3a.9.9,0,0,1,.35-.07h1.49a.89.89,0,0,1,.35.07c.16.08.24.17.24.3a.3.3,0,0,1-.19.25l-.19.08a.71.71,0,0,1-.21,0Zm.28-1.53a1.67,1.67,0,0,0-.89.22,1,1,0,0,0-.51.93v1.43a.47.47,0,0,1-.32.43,1,1,0,0,1-.48.1,1,1,0,0,1-.49-.1.47.47,0,0,1-.32-.43V50a1.62,1.62,0,0,1,.94-1.52,3.39,3.39,0,0,1,1.53-.36h1.72a1.17,1.17,0,0,1,.35.07.34.34,0,0,1,.24.3.32.32,0,0,1-.19.26.8.8,0,0,1-.41.11Z"/><path d="M16.54,48.22a4.29,4.29,0,0,1,.59-.09c.24,0,.51,0,.83,0h1.73a.82.82,0,0,1,.35.07.3.3,0,0,1,0,.59,1,1,0,0,1-.35.05H18.48a5.19,5.19,0,0,0-1.09.07c-.23,0-.35.17-.35.35s.16.33.49.39h.62a5.44,5.44,0,0,1,1.26.12c.59.18.88.52.88,1,0,.76-.82,1.14-2.48,1.14H16.09a.93.93,0,0,1-.35-.06.34.34,0,0,1-.25-.3c0-.13.08-.23.24-.29a.79.79,0,0,1,.35-.07H18l.39-.05c.25,0,.37-.17.37-.36s-.33-.41-1-.41c-1.51,0-2.27-.36-2.27-1.12,0-.53.36-.87,1-1"/><path d="M26.38,51.72a.7.7,0,0,1-.65.29,1.12,1.12,0,0,1-.69-.24l0,0,0,0-1.3-1.9a.29.29,0,0,1-.06-.17.35.35,0,0,1,.22-.31.83.83,0,0,1,.34-.08.45.45,0,0,1,.43.2l.75,1.18,1.29-2.2a.69.69,0,0,1,.66-.3,1,1,0,0,1,.71.26.47.47,0,0,1,.14.33.49.49,0,0,1-.07.25ZM23.15,52a.69.69,0,0,1-.65-.29L20.81,49a.46.46,0,0,1-.08-.25.51.51,0,0,1,.33-.46,1.26,1.26,0,0,1,.52-.13.68.68,0,0,1,.64.3l1.71,2.77a.39.39,0,0,1,.06.23c0,.22-.14.38-.4.5a1.58,1.58,0,0,1-.44.09"/><path d="M28.86,51.88a.47.47,0,0,1-.32-.43V48.66a.48.48,0,0,1,.32-.44,1.15,1.15,0,0,1,.48-.11,1.14,1.14,0,0,1,.48.11.49.49,0,0,1,.33.44v2.79a.48.48,0,0,1-.33.43,1.21,1.21,0,0,1-.48.11,1.3,1.3,0,0,1-.48-.11"/><path d="M32.41,48.82H31l-.2,0a.32.32,0,0,1-.24-.3c0-.25.25-.38.75-.38h3.89a1.32,1.32,0,0,1,.73.27s0,0,0,.12-.09.23-.26.3l-.19,0H34v2.62a.48.48,0,0,1-.32.44,1.3,1.3,0,0,1-.48.09,1.22,1.22,0,0,1-.48-.09.47.47,0,0,1-.33-.44Z"/><path d="M36.25,51.4a.35.35,0,0,1,.09-.24l2-2.34H36.95a3.79,3.79,0,0,1-.51,0c-.16-.06-.24-.15-.24-.3s.25-.39.75-.39h2.37a1.31,1.31,0,0,1,.54.11.54.54,0,0,1,.38.49.37.37,0,0,1-.09.25l-2,2.32h1.59a1.19,1.19,0,0,1,.73.26.25.25,0,0,1,0,.11.31.31,0,0,1-.24.31L40,52a1.32,1.32,0,0,1-.31,0H37.09a1.24,1.24,0,0,1-.41-.08c-.29-.12-.43-.28-.43-.51"/><path d="M43.14,50.41a1.07,1.07,0,0,1-.35-.07c-.16-.08-.24-.17-.24-.3a.35.35,0,0,1,.24-.3,1,1,0,0,1,.35-.07h1.48a1,1,0,0,1,.35.07.35.35,0,0,1,.25.3.21.21,0,0,1-.05.14.3.3,0,0,1-.13.12.78.78,0,0,1-.18.07.88.88,0,0,1-.22,0ZM42.89,52a3.14,3.14,0,0,1-1.53-.37,1.69,1.69,0,0,1-.94-1.56,1.67,1.67,0,0,1,.94-1.55,3.06,3.06,0,0,1,1.53-.38h1.73a.84.84,0,0,1,.35.08c.16.07.24.17.24.29s-.08.21-.24.3a1.34,1.34,0,0,1-.35.06h-1.2a1.72,1.72,0,0,0-.92.24,1.07,1.07,0,0,0-.53,1,1.06,1.06,0,0,0,.55,1,1.74,1.74,0,0,0,.91.23h1.2a.86.86,0,0,1,.35.07c.16.07.25.17.25.29a.29.29,0,0,1-.05.16.55.55,0,0,1-.13.11l-.18.07-.22,0Z"/><path d="M47.88,49.91a.9.9,0,0,1,.35-.09h.65a.67.67,0,0,0,.29-.07.27.27,0,0,0,.19-.27v-.4c0-.17-.16-.27-.48-.27H47.69c-.32,0-.48.1-.48.27v2.37a.47.47,0,0,1-.33.43,1,1,0,0,1-.48.1,1,1,0,0,1-.48-.1.48.48,0,0,1-.32-.43V49.27a.29.29,0,0,1,0-.07,1,1,0,0,1,.66-.83,2,2,0,0,1,.92-.23h2a2,2,0,0,1,1.46.46.75.75,0,0,1,.26.56v.28c0,.49-.31.83-.93,1l.72.56a.49.49,0,0,1,.22.41c0,.19-.12.34-.35.46a1.28,1.28,0,0,1-.51.13.73.73,0,0,1-.47-.16l-1.78-1.4a.3.3,0,0,1-.17-.26c0-.11.07-.21.24-.29"/><path d="M53.9,52a3.12,3.12,0,0,1-1.53-.37,1.69,1.69,0,0,1-.94-1.56V48.67a.49.49,0,0,1,.32-.45,1.43,1.43,0,0,1,.47-.1,1.58,1.58,0,0,1,.49.1.5.5,0,0,1,.32.44v1.4a1,1,0,0,0,.49,1,1.53,1.53,0,0,0,.89.23h1.21a.8.8,0,0,1,.34.07c.16.07.24.17.24.29s-.08.23-.26.3a1,1,0,0,1-.33.07Z"/><path d="M59.88,49.18a.29.29,0,0,0-.2-.28.57.57,0,0,0-.28-.08H57.28c-.39,0-.59-.11-.59-.33s.08-.21.24-.27a.71.71,0,0,1,.34-.08H59.9a2.2,2.2,0,0,1,1,.24,1,1,0,0,1,.63.9v2.18a.48.48,0,0,1-.33.43,1.1,1.1,0,0,1-1,0,.49.49,0,0,1-.33-.43v-1a.31.31,0,0,0-.2-.26.46.46,0,0,0-.28-.07H58.2a.46.46,0,0,0-.29.07.31.31,0,0,0-.19.26v.49a.3.3,0,0,0,.19.26.55.55,0,0,0,.29.07h.59a.84.84,0,0,1,.35.07c.17.07.24.17.24.29a.33.33,0,0,1-.24.3,1,1,0,0,1-.35.07h-1.1a2.23,2.23,0,0,1-1-.23,1,1,0,0,1-.62-.91v-.3a1,1,0,0,1,.62-.9,2,2,0,0,1,1-.23h2.19Z"/><path d="M67.07,51.44a.46.46,0,0,1-.32.42,1.2,1.2,0,0,1-.48.11,1.13,1.13,0,0,1-.48-.11.46.46,0,0,1-.33-.42V49.19a.31.31,0,0,0-.2-.27.55.55,0,0,0-.29-.08h-.85a.55.55,0,0,0-.29.08.3.3,0,0,0-.19.27v2.25a.45.45,0,0,1-.32.42,1.24,1.24,0,0,1-.49.11,1.2,1.2,0,0,1-.48-.11.46.46,0,0,1-.32-.42V49.25a1,1,0,0,1,.63-.9,2.16,2.16,0,0,1,.95-.24h1.88a2.2,2.2,0,0,1,.94.24,1,1,0,0,1,.64.9v2.18Z"/><path d="M69.93,52a1.1,1.1,0,0,1-.35-.07.35.35,0,0,1-.24-.3.33.33,0,0,1,.24-.29.87.87,0,0,1,.35-.07h.14A1.8,1.8,0,0,0,71,51a1.08,1.08,0,0,0,.53-1,1.06,1.06,0,0,0-.52-1,1.67,1.67,0,0,0-.92-.25h-.4a.58.58,0,0,0-.29.08.29.29,0,0,0-.19.28v2.27a.48.48,0,0,1-.32.43,1.31,1.31,0,0,1-.48.11,1.23,1.23,0,0,1-.48-.11.49.49,0,0,1-.33-.43V49.27a1,1,0,0,1,.63-.9,2.2,2.2,0,0,1,1-.24H70.6a3.08,3.08,0,0,1,1.53.39,1.75,1.75,0,0,1,0,3.1,3.24,3.24,0,0,1-1.53.37Z"/><path d="M5.9,46.42a6.15,6.15,0,0,1-2.6-.52,2.36,2.36,0,0,1-1.59-2.2A2.32,2.32,0,0,1,3.3,41.51,6.12,6.12,0,0,1,5.9,41H8.82a2.51,2.51,0,0,1,.6.08c.27.12.4.27.4.41s-.14.32-.4.44a1.63,1.63,0,0,1-.6.1h-2a3.55,3.55,0,0,0-1.56.33,1.46,1.46,0,0,0-.89,1.38A1.39,1.39,0,0,0,5,45a2.76,2.76,0,0,0,1.3.4c.51,0,.77-.17.77-.46V44c0-.27.18-.47.55-.61a2,2,0,0,1,.82-.15,2,2,0,0,1,.82.15c.37.14.55.34.55.61v.87c0,.56-.36,1-1.06,1.28a4.66,4.66,0,0,1-1.63.31Z"/><path d="M16.74,42.08a1.14,1.14,0,0,0-.49-.12h-2a1.13,1.13,0,0,0-.49.12c-.22.07-.32.2-.32.38V44.9c0,.17.1.29.32.38a1.14,1.14,0,0,0,.49.09h2a1.15,1.15,0,0,0,.49-.09c.22-.09.33-.21.33-.38V42.46c0-.18-.11-.3-.33-.38m-3.39,4.34a4.63,4.63,0,0,1-1.63-.32c-.7-.31-1-.73-1-1.28V42.59c0-.56.35-1,1-1.28A4.26,4.26,0,0,1,13.35,41h3.76a4.1,4.1,0,0,1,1.63.33c.71.29,1.07.72,1.07,1.28v2.23c0,.55-.36,1-1.07,1.28a4.44,4.44,0,0,1-1.62.32Z"/><path d="M24.84,46.42a6.07,6.07,0,0,1-2.58-.52,2.36,2.36,0,0,1-1.6-2.2v-2c0-.27.18-.47.54-.61a2.47,2.47,0,0,1,1.65,0c.36.14.54.34.54.61v2a1.46,1.46,0,0,0,.83,1.39,3.24,3.24,0,0,0,1.51.3h2a2.07,2.07,0,0,1,.58.1c.28.11.41.25.41.42s-.14.31-.42.41a1.65,1.65,0,0,1-.59.11Z"/><path d="M32.87,46.42a1.62,1.62,0,0,1-.6-.11c-.28-.1-.41-.23-.41-.41s.14-.31.41-.42a2.28,2.28,0,0,1,.6-.1h.23A3.38,3.38,0,0,0,34.65,45a1.42,1.42,0,0,0,.91-1.35,1.45,1.45,0,0,0-.88-1.39A3.47,3.47,0,0,0,33.12,42h-.68a1.14,1.14,0,0,0-.49.12c-.22.07-.33.2-.33.38v3.2c0,.27-.19.47-.55.61a2.75,2.75,0,0,1-.82.16,2.64,2.64,0,0,1-.81-.16c-.36-.14-.54-.34-.54-.61V42.59c0-.56.36-1,1.05-1.28A4.22,4.22,0,0,1,31.58,41H34a6.21,6.21,0,0,1,2.58.53,2.29,2.29,0,0,1,0,4.38,6.26,6.26,0,0,1-2.59.52Z"/><path d="M41.07,42H39.13a4.69,4.69,0,0,1-.52,0,2,2,0,0,1-.34,0c-.27-.08-.42-.22-.42-.42s.42-.52,1.27-.52h6.6a2.43,2.43,0,0,1,1.24.37s0,.06,0,.15-.13.35-.41.42l-.34,0-.52,0H43.79v3.7c0,.27-.18.48-.55.61a1.91,1.91,0,0,1-.82.15,1.89,1.89,0,0,1-.81-.15c-.38-.13-.55-.34-.55-.61Z"/><path d="M51.31,44.19a1.6,1.6,0,0,1-.6-.11c-.28-.1-.41-.24-.41-.42s.14-.32.41-.4a1.44,1.44,0,0,1,.6-.12h2.51a1.46,1.46,0,0,1,.6.12c.28.08.41.23.41.4a.33.33,0,0,1-.08.21.5.5,0,0,1-.23.15,1.41,1.41,0,0,1-.32.11,1.54,1.54,0,0,1-.37,0Zm-.42,2.22a6.15,6.15,0,0,1-2.6-.52,2.36,2.36,0,0,1-1.59-2.2,2.31,2.31,0,0,1,1.59-2.18,6.1,6.1,0,0,1,2.6-.53h2.92a2.46,2.46,0,0,1,.6.08c.27.12.41.27.41.41s-.14.32-.41.44a1.62,1.62,0,0,1-.6.1h-2a3.56,3.56,0,0,0-1.55.32,1.47,1.47,0,0,0-.91,1.37A1.42,1.42,0,0,0,50.24,45a3.35,3.35,0,0,0,1.54.33h2a2.33,2.33,0,0,1,.6.1c.28.11.41.25.41.42a.33.33,0,0,1-.08.21.73.73,0,0,1-.23.16,2,2,0,0,1-.32.11,1.45,1.45,0,0,1-.37,0Z"/><path d="M57.29,41.09c.27,0,.6-.08,1-.1s.87,0,1.41,0h2.92a1.78,1.78,0,0,1,.6.1c.27.1.41.23.41.41s-.14.3-.41.39a1.83,1.83,0,0,1-.6.1h-2a15.81,15.81,0,0,0-1.85.08c-.41.07-.61.25-.61.51s.28.48.83.56l.37,0H60a9.39,9.39,0,0,1,2.13.17c1,.25,1.5.71,1.5,1.39,0,1.07-1.4,1.61-4.19,1.61h-3a1.85,1.85,0,0,1-.58-.09c-.27-.1-.41-.25-.41-.42s.13-.32.4-.42a1.71,1.71,0,0,1,.59-.09h2.05c.47,0,.87,0,1.18,0l.66-.06c.42-.07.62-.24.62-.49s-.55-.58-1.65-.58c-2.57,0-3.85-.54-3.85-1.6,0-.73.59-1.2,1.78-1.44"/><path d="M67.25,42H65.33l-.52,0-.34,0c-.26-.08-.41-.22-.41-.42s.42-.52,1.27-.52h6.59a2.44,2.44,0,0,1,1.25.37s0,.06,0,.15-.14.35-.42.42l-.33,0-.53,0H70v3.7c0,.27-.18.48-.55.61a2,2,0,0,1-.82.15,1.93,1.93,0,0,1-.81-.15c-.37-.13-.55-.34-.55-.61Z"/><path d="M74.18,20.32c0-.91-1.18-1.49-3.73-1.86a28.54,28.54,0,0,0-5.09-.33,29.49,29.49,0,0,0-4.58.34l0-.13v-.06a7.63,7.63,0,0,0-.51-2.14l7.11-.06c.85,0,1.67-.09,2.47-.17l1.19-.11c2-.15,2.85-.7,2.82-1.76,0-.7-.38-1.53-2.92-1.82A31.32,31.32,0,0,0,67.58,12l-12.78.11a13.59,13.59,0,0,0-3-8.17C49.24,1.06,45.43-.27,40.49,0c-5.61.36-6.1,3.4-6.48,5.83-.28,1.74-.49,3.11-2.36,3.33l-1.57,0C27.76,9.1,25.93,9,24,9c-2.06,0-4,.07-6.32.22-4.57.3-8.3,1.54-9.73,3.24a2.44,2.44,0,0,0-.64,1.86v0c.69,2.64,4.1,3.39,7.4,4.11a27.67,27.67,0,0,1,3.94,1.06,54.81,54.81,0,0,1-7.87,4.31C5.19,26.6-.12,29.16,0,32.28c.22,2,2.73,4.41,9.07,4.41.71,0,1.46,0,2.23-.09,5.77-.38,20.11-3,25.17-5.16a.92.92,0,0,1,.35-.08c.42,0,.64.58,1,1.6.7,2.07,1.87,5.52,7.58,5.52.38,0,.78,0,1.2,0a8.76,8.76,0,0,0,6.28-3.13,13.73,13.73,0,0,0,2.64-8.19l2,0a65.17,65.17,0,0,0,10-.88c4.56-.84,6.76-2,6.71-3.67Z"/><path class="cls-3" d="M49.88,26.8a86.16,86.16,0,0,1-15.93-1.19c-6.52-1.21-9.83-3-9.9-5.49s3-4.81,9.48-6.08a85.12,85.12,0,0,1,15.85-1.47l17.91-.16a31.74,31.74,0,0,1,3.65.17c2.6.29,2.59,1.12,2.6,1.49s-.19,1.19-2.49,1.37c-1.18.09-2.39.27-3.64.28l-12.48.11a48.7,48.7,0,0,0-9.51.91c-3.64.81-5.36,1.76-5.31,3.32,0,1.37,1.53,2.4,4.42,3.13a36.27,36.27,0,0,0,8,1c3.14,0,4.69-.47,4.67-1.22l-.07-2.42c0-.68,1.06-1.21,3.3-1.57a27.62,27.62,0,0,1,5-.42,28.09,28.09,0,0,1,5,.33c2.27.33,3.41.83,3.43,1.52l.06,2.21c0,1.42-2.12,2.52-6.41,3.31a65,65,0,0,1-9.92.88Z"/><path class="cls-4" d="M29.34,26.58a9.51,9.51,0,0,0,3.38,1.57c.72.06,1.61-.26,1.68-1s-1.3-2.33-1.81-3c.68-.53,1.88-1.31,1.95-2.19a1,1,0,0,0-1-1.14c-1.06-.08-2.16.66-3.19.58-.21,0-1-1.64-2.6-1.76s-2.41.57-2.75,2.1c-.85,0-4.67-.14-4.75.88s3.36,1.91,4.19,2.18c-.1.54-.32,1.09-.37,1.63-.09,1,1.39,1.79,2.3,1.86,1.22.09,2.13-.94,3-1.62"/><path class="cls-3" d="M31,24.36c-.08-1.17,0-.31-.09-1.79-.57.11-1.08.19-1.55.25a6.83,6.83,0,0,0-.26-1.7c-.89.06-.63,0-1.8.09A7.84,7.84,0,0,1,27.54,23c-.54,0-1.12,0-1.8,0a5.84,5.84,0,0,1,.09,1.79s.8,0,1.79,0c0,.89,0,1.58,0,1.58l1.79-.09s0-.69,0-1.57A5.46,5.46,0,0,0,31,24.36"/><path class="cls-4" d="M18.06,29.5a16.28,16.28,0,0,1-2.93,1.06c-.82.17-1.4-.06-1.47-.37s1.44-1.48,2-2c-.49-.17-1.15-.11-1.34-.61-.07-.32.43-.67,1.2-.84a16.21,16.21,0,0,1,1.77-.25c.64-.48-.21-1.17,1-1.41,1.63-.34,2.6.47,2.59.94,1.13-.12,1.81.14,1.95.75.25,1-1.32,1.48-1.25,1.78s-.18,1.31-1.66,1.6c-1,.21-1.32-.41-1.79-.67"/><path class="cls-4" d="M9.73,29.63l-.22-.24A.93.93,0,0,0,8,29.48c-.49.5-.4,1.25-.47,1.33C7.1,31.27,6.44,31.57,6,32c-.07.08-.54.56-.4.69a10,10,0,0,0,1.7-.64c0,.15-.17.62,0,.74.6.58,1.9-.93,2.26-1.06s1.71.43,2.1,0-.54-1-.74-1.15a6,6,0,0,0,.66-.51.46.46,0,0,0,0-.69c-.43-.42-1.29,0-1.74.18"/><path d="M98.09,32.78a5,5,0,0,0,3-4.82c0-4-3.37-6.73-8-6.73-4.44,0-8,2.51-8.07,6.7h4.82a3,3,0,0,1,3.26-2.84,3,3,0,0,1,3.22,3c0,1.65-1,2.94-3.33,2.94h-.7v3.73H93c2.37,0,3.7,1.29,3.7,3.24,0,2.11-1.48,3.27-3.56,3.27-1.89,0-3.52-1-3.59-3.07H84.72c.07,4.92,4.11,6.93,8.41,6.93,4.52,0,8.37-2.31,8.37-7a5.55,5.55,0,0,0-3.41-5.35"/><path d="M111.13,21.22c-4.28,0-8,2.49-8,6.93h0V38.29h0c0,4.45,3.72,6.93,8,6.93V41.36a3,3,0,0,1-3.19-3.2V28.29a3.2,3.2,0,0,1,6.41,0V38h4.82v-9.8c0-4.49-3.7-7-8-7"/><path d="M115.4,44a.08.08,0,0,1-.08-.07v-.24h0a1.4,1.4,0,0,1-1.11.39c-.72,0-1.35-.33-1.35-1.1s.68-1.16,1.68-1.16h.72s.05,0,.05,0v-.13c0-.33-.18-.49-.83-.49a1.64,1.64,0,0,0-.9.23.07.07,0,0,1-.11,0l-.38-.59a.07.07,0,0,1,0-.1,2.8,2.8,0,0,1,1.51-.36c1.32,0,1.8.4,1.8,1.3V44a.07.07,0,0,1-.08.07Zm-.1-1.2v-.25s0,0-.05,0h-.57c-.49,0-.72.13-.72.41s.2.38.59.38S115.3,43.16,115.3,42.83Z"/><path d="M120,44a.08.08,0,0,1-.08-.07V41.88a.58.58,0,0,0-.63-.66.6.6,0,0,0-.64.66V44a.07.07,0,0,1-.08.07h-1a.07.07,0,0,1-.08-.07V40.5a.07.07,0,0,1,.08-.07h1a.07.07,0,0,1,.08.07v.25h0a1.31,1.31,0,0,1,1-.41A1.26,1.26,0,0,1,121,41.68V44A.08.08,0,0,1,121,44Z"/><path d="M121.81,43.55a.07.07,0,0,1,0-.1l.54-.54a.09.09,0,0,1,.12,0,2.28,2.28,0,0,0,1.24.4c.43,0,.63-.14.63-.34s-.11-.28-.58-.31l-.45,0c-.85-.07-1.32-.45-1.32-1.1s.61-1.15,1.66-1.15a3,3,0,0,1,1.64.45.07.07,0,0,1,0,.11l-.47.51a.09.09,0,0,1-.12,0,2.31,2.31,0,0,0-1.1-.29c-.34,0-.51.12-.51.3s.1.26.56.3l.44,0c1,.08,1.35.49,1.35,1.09s-.65,1.24-1.81,1.24A3,3,0,0,1,121.81,43.55Z"/><path d="M87.44,52a.07.07,0,0,1-.08-.07v-.26h0a1.27,1.27,0,0,1-1.06.42,1.34,1.34,0,0,1-1.37-.86,3.73,3.73,0,0,1,0-2,1.33,1.33,0,0,1,1.37-.86,1.27,1.27,0,0,1,1.06.42h0V47a.07.07,0,0,1,.08-.07h1a.08.08,0,0,1,.08.07v4.92a.08.08,0,0,1-.08.07Zm-.16-1.18a2.56,2.56,0,0,0,0-1.24.69.69,0,0,0-1.25,0,2.58,2.58,0,0,0,0,1.24.69.69,0,0,0,1.25,0Z"/><path d="M89.52,51a2.34,2.34,0,0,1-.14-.86,2.38,2.38,0,0,1,.13-.86,2,2,0,0,1,3.49,0,3.1,3.1,0,0,1,.13,1.11s0,.07-.09.07H90.59s-.05,0-.05,0a.73.73,0,0,0,.05.2.8.8,0,0,0,.84.48,1.39,1.39,0,0,0,.93-.32s.08,0,.12,0l.55.46a.06.06,0,0,1,0,.1,2.46,2.46,0,0,1-1.72.6A1.73,1.73,0,0,1,89.52,51Zm2.41-1.24s.05,0,.05,0a.81.81,0,0,0,0-.27.78.78,0,0,0-1.35,0,.81.81,0,0,0,0,.27s0,0,.05,0Z"/><path d="M95.89,51a3,3,0,0,1,0-1.73,1.7,1.7,0,0,1,1.75-1,1.87,1.87,0,0,1,1.53.68.07.07,0,0,1,0,.1l-.73.42a.09.09,0,0,1-.13,0,.74.74,0,0,0-.64-.31.6.6,0,0,0-.63.39,2.58,2.58,0,0,0,0,1.24.6.6,0,0,0,.63.39.74.74,0,0,0,.64-.31.09.09,0,0,1,.13,0l.73.42a.07.07,0,0,1,0,.1,1.87,1.87,0,0,1-1.53.68A1.7,1.7,0,0,1,95.89,51Z"/><path d="M100.07,52a.07.07,0,0,1-.08-.07V48.44a.07.07,0,0,1,.08-.07h1a.07.07,0,0,1,.08.07v.31h0a1.37,1.37,0,0,1,1.76-.25.07.07,0,0,1,0,.1l-.47.76s-.07,0-.12,0a1.07,1.07,0,0,0-.58-.16c-.44,0-.63.3-.63.78v1.9a.07.07,0,0,1-.08.07Z"/><path d="M103.27,51a2.34,2.34,0,0,1-.14-.86,2.38,2.38,0,0,1,.13-.86,2,2,0,0,1,3.49,0,3.1,3.1,0,0,1,.13,1.11s0,.07-.09.07h-2.45s-.05,0-.05,0a.73.73,0,0,0,.05.2.8.8,0,0,0,.84.48,1.39,1.39,0,0,0,.93-.32s.08,0,.12,0l.55.46a.06.06,0,0,1,0,.1,2.46,2.46,0,0,1-1.72.6A1.73,1.73,0,0,1,103.27,51Zm2.41-1.24s.05,0,.05,0a.81.81,0,0,0,0-.27.78.78,0,0,0-1.35,0,.81.81,0,0,0,0,.27s0,0,.05,0Zm-1.17-1.92s-.08,0,0-.07l.64-1a.17.17,0,0,1,.15-.07h1c.05,0,.08,0,0,.07l-.83,1a.17.17,0,0,1-.16.07Z"/><path d="M110.11,52a.08.08,0,0,1-.08-.07v-.24h0a1.4,1.4,0,0,1-1.11.39c-.72,0-1.35-.33-1.35-1.1s.68-1.16,1.68-1.16H110s.05,0,.05,0v-.13c0-.33-.18-.49-.83-.49a1.64,1.64,0,0,0-.9.23.07.07,0,0,1-.11,0l-.38-.59a.07.07,0,0,1,0-.1,2.8,2.8,0,0,1,1.51-.36c1.32,0,1.8.4,1.8,1.3v2.31A.08.08,0,0,1,111,52Zm-.1-1.2v-.25s0,0-.05,0h-.57c-.49,0-.72.13-.72.41s.2.38.59.38S110,51.1,110,50.77Z"/><path d="M113.52,52c-.94,0-1.29-.37-1.29-1.2V49.17s0,0-.05,0h-.25a.08.08,0,0,1-.08-.07v-.62a.08.08,0,0,1,.08-.07h.25s.05,0,.05,0v-1a.08.08,0,0,1,.08-.07h1a.08.08,0,0,1,.08.07v1s0,0,.05,0H114a.07.07,0,0,1,.08.07v.62a.07.07,0,0,1-.08.07h-.52s-.05,0-.05,0v1.59c0,.27.1.36.37.36h.2a.07.07,0,0,1,.08.07v.74A.08.08,0,0,1,114,52Z"/><path d="M115,47.79a.07.07,0,0,1-.08-.07V47a.07.07,0,0,1,.08-.07h1a.07.07,0,0,1,.08.07v.74a.07.07,0,0,1-.08.07ZM115,52a.07.07,0,0,1-.08-.07V48.44a.07.07,0,0,1,.08-.07h1a.07.07,0,0,1,.08.07v3.46A.07.07,0,0,1,116,52Z"/><path d="M117.07,51a2.9,2.9,0,0,1,0-1.74,2,2,0,0,1,3.51,0,2.9,2.9,0,0,1,0,1.74,2,2,0,0,1-3.51,0Zm2.38-.25a2.56,2.56,0,0,0,0-1.24.7.7,0,0,0-1.25,0,2.58,2.58,0,0,0,0,1.24.7.7,0,0,0,1.25,0Z"/><path d="M124.25,52a.08.08,0,0,1-.08-.07V49.82a.58.58,0,0,0-.63-.66.6.6,0,0,0-.64.66v2.07a.07.07,0,0,1-.08.07h-1a.07.07,0,0,1-.08-.07V48.44a.07.07,0,0,1,.08-.07h1a.07.07,0,0,1,.08.07v.25h0a1.31,1.31,0,0,1,1-.41,1.26,1.26,0,0,1,1.38,1.34v2.27a.08.08,0,0,1-.08.07Z"/></g></g></g></svg>