<svg xmlns="http://www.w3.org/2000/svg" width="120" height="85" viewBox="0 0 120 85">
  <path fill="#FFF" fill-rule="evenodd" d="M239.576288,13684.6853 C240.05703,13684.6853 240.458702,13684.8326 240.724375,13685.1006 C240.874079,13685.2468 240.947877,13685.4438 240.947877,13685.6335 C240.947877,13685.768 240.90887,13685.8866 240.825583,13686.0371 L238.087676,13690.5352 C237.894747,13690.8425 237.545788,13690.9993 237.037635,13690.9993 C236.621204,13690.9993 236.251159,13690.8605 235.918014,13690.6105 C235.889549,13690.5882 235.867409,13690.5713 235.850541,13690.5352 C235.827348,13690.5172 235.812588,13690.5172 235.786232,13690.4886 L233.691421,13687.3995 C233.633437,13687.3136 233.60181,13687.2353 233.60181,13687.1272 C233.60181,13686.9132 233.723049,13686.7522 233.965528,13686.624 C234.148969,13686.5414 234.336627,13686.4979 234.507417,13686.4979 C234.842671,13686.4979 235.081987,13686.6017 235.209553,13686.8242 L236.41984,13688.7481 L238.510433,13685.1684 C238.701254,13684.8389 239.045996,13684.6853 239.576288,13684.6853 Z M230.323068,13684.6853 C230.820678,13684.6853 231.169637,13684.8389 231.362566,13685.1684 L234.129993,13689.674 C234.195357,13689.7735 234.229093,13689.8848 234.229093,13690.049 C234.229093,13690.3996 233.999265,13690.6677 233.57229,13690.8605 C233.325594,13690.9325 233.093657,13690.9993 232.860666,13690.9993 C232.348297,13690.9993 231.991958,13690.8425 231.812734,13690.5352 L229.066393,13686.0371 C228.992595,13685.9121 228.946208,13685.7828 228.946208,13685.6335 C228.946208,13685.3188 229.12754,13685.072 229.484933,13684.8929 C229.767474,13684.7637 230.03631,13684.6853 230.323068,13684.6853 Z M204.346369,13684.6852 C204.871389,13684.6852 205.384813,13684.8219 205.88664,13685.0719 C206.558202,13685.4119 206.900836,13685.912 206.900836,13686.5412 L206.900836,13689.1081 C206.900836,13689.7914 206.558202,13690.2555 205.88664,13690.5955 C205.384813,13690.8424 204.871389,13690.9716 204.346369,13690.9716 L200.764001,13690.9716 C200.229493,13690.9716 199.720286,13690.8424 199.21108,13690.5955 C198.538463,13690.2523 198.201101,13689.7554 198.201101,13689.1081 L198.201101,13686.5412 C198.201101,13685.912 198.538463,13685.4119 199.21108,13685.0719 C199.720286,13684.8219 200.229493,13684.6852 200.764001,13684.6852 L204.346369,13684.6852 Z M214.523857,13684.7149 C214.730491,13684.7149 214.913932,13684.7636 215.097373,13684.8219 C215.352503,13684.932 215.490611,13685.1005 215.490611,13685.3007 C215.490611,13685.4755 215.377805,13685.6217 215.183822,13685.7329 C214.993001,13685.8473 214.763173,13685.912 214.523857,13685.912 L212.587185,13685.912 C212.022103,13685.912 211.547687,13686.0264 211.149178,13686.2658 C210.587258,13686.5879 210.321585,13687.0985 210.321585,13687.7786 L210.326857,13690.1061 C210.326857,13690.407 210.149741,13690.639 209.797619,13690.8032 C209.587822,13690.9218 209.318986,13690.9716 209.029066,13690.9716 C208.712788,13690.9716 208.459766,13690.9218 208.239427,13690.8032 C207.894684,13690.639 207.724949,13690.407 207.724949,13690.1061 L207.724949,13687.767 C207.724949,13686.6843 208.235209,13685.823 209.249405,13685.3007 C209.994766,13684.9214 210.829738,13684.7149 211.734291,13684.7149 L214.523857,13684.7149 Z M242.892456,13684.6638 C243.126501,13684.6638 243.38374,13684.7146 243.669444,13684.8386 C244.017349,13685.0219 244.19341,13685.2475 244.19341,13685.5547 L244.19341,13690.0879 C244.19341,13690.3856 244.017349,13690.6282 243.669444,13690.7924 C243.400608,13690.91 243.140206,13690.9714 242.892456,13690.9714 C242.656302,13690.9714 242.386412,13690.91 242.108088,13690.7924 C241.751749,13690.6282 241.587285,13690.3856 241.587285,13690.0879 L241.587285,13685.5547 C241.587285,13685.2475 241.751749,13685.0219 242.108088,13684.8386 C242.386412,13684.7146 242.656302,13684.6638 242.892456,13684.6638 Z M267.63114,13684.6852 C267.819852,13684.6852 268.012781,13684.736 268.192005,13684.8219 C268.452407,13684.932 268.584189,13685.1005 268.584189,13685.2869 C268.584189,13685.4755 268.452407,13685.6333 268.192005,13685.769 C268.012781,13685.823 267.819852,13685.8685 267.63114,13685.8685 L265.683926,13685.8685 C265.131495,13685.8685 264.630722,13685.9829 264.199531,13686.2552 C263.626015,13686.6016 263.332931,13687.1387 263.332931,13687.8432 C263.332931,13688.5467 263.628123,13689.0626 264.217453,13689.4196 C264.640211,13689.6739 265.136766,13689.7914 265.683926,13689.7914 L267.634303,13689.7914 C267.83672,13689.7914 268.015944,13689.8275 268.19833,13689.9059 C268.459786,13690.0129 268.595786,13690.1845 268.595786,13690.3709 C268.595786,13690.4493 268.571538,13690.5351 268.506174,13690.6284 C268.452407,13690.6962 268.379663,13690.7417 268.288997,13690.8032 C268.19833,13690.8424 268.105556,13690.8858 267.994859,13690.9218 C267.866239,13690.9324 267.754488,13690.9716 267.634303,13690.9716 L264.828923,13690.9716 C263.888525,13690.9716 263.069367,13690.7608 262.359851,13690.3709 C261.348818,13689.7989 260.838557,13688.9619 260.838557,13687.8284 C260.838557,13686.7129 261.348818,13685.8473 262.359851,13685.3007 C263.079909,13684.8928 263.914881,13684.6852 264.828923,13684.6852 L267.63114,13684.6852 Z M259.029451,13684.6644 C259.335186,13684.6644 259.624053,13684.7142 259.913973,13684.8392 C260.319863,13685.0214 260.527551,13685.2863 260.527551,13685.6327 C260.527551,13685.7831 260.471676,13685.9262 260.376793,13686.0374 L257.12757,13689.8131 L259.706285,13689.8131 C260.10374,13689.8131 260.508575,13689.9412 260.890216,13690.2347 C260.897596,13690.2347 260.908138,13690.3099 260.908138,13690.4063 C260.908138,13690.6532 260.789007,13690.8036 260.515955,13690.9106 C260.444265,13690.9212 260.346219,13690.9318 260.20284,13690.9318 C260.098469,13690.9612 259.976306,13690.9685 259.843025,13690.9704 L255.444975,13690.971 C255.222527,13690.971 255.002187,13690.9212 254.775521,13690.8428 C254.309539,13690.6532 254.077603,13690.382 254.077603,13690.0133 C254.077603,13689.8703 254.130316,13689.7273 254.229416,13689.6234 L257.482855,13685.8086 L254.902213,13685.8082 C254.636491,13685.807 254.466097,13685.8022 254.372795,13685.7831 C254.115556,13685.6836 253.983774,13685.5437 253.983774,13685.3001 C253.983774,13684.871 254.387555,13684.6644 255.200387,13684.6644 L259.029451,13684.6644 Z M252.317414,13684.6642 C252.69273,13684.6642 253.089131,13684.821 253.498183,13685.1007 C253.511888,13685.1187 253.535082,13685.1685 253.535082,13685.2861 C253.535082,13685.5043 253.398028,13685.6685 253.120758,13685.7681 C253.045906,13685.7829 252.944697,13685.7978 252.805535,13685.8084 L250.478789,13685.8084 L250.478789,13690.0735 C250.478789,13690.3817 250.302728,13690.6286 249.95166,13690.7928 C249.733428,13690.885 249.463538,13690.9316 249.167292,13690.9316 C248.87948,13690.9316 248.603264,13690.885 248.398738,13690.7928 C248.032911,13690.6286 247.870555,13690.3817 247.870555,13690.0735 L247.86423,13685.8084 L245.523777,13685.8084 C245.373019,13685.7978 245.270756,13685.7829 245.20012,13685.7681 C244.938664,13685.6685 244.807936,13685.5043 244.807936,13685.2861 C244.807936,13684.8719 245.204337,13684.6642 246.01717,13684.6642 L252.317414,13684.6642 Z M227.260028,13684.65 C227.455065,13684.65 227.644832,13684.685 227.814567,13684.7644 C228.086566,13684.8714 228.215185,13685.0505 228.215185,13685.2359 C228.215185,13685.4255 228.086566,13685.6119 227.814567,13685.7221 C227.644832,13685.7825 227.455065,13685.8079 227.260028,13685.8079 L225.302271,13685.8079 C224.425129,13685.8079 223.840016,13685.8471 223.537444,13685.9266 C223.162128,13685.9827 222.970253,13686.201 222.970253,13686.4987 C222.970253,13686.8408 223.228546,13687.0453 223.763055,13687.1385 C223.840016,13687.1385 223.953876,13687.1597 224.12572,13687.1597 L224.763546,13687.1597 C225.661773,13687.1597 226.339661,13687.2349 226.792992,13687.3462 C227.750258,13687.6322 228.223619,13688.1863 228.223619,13688.9903 C228.223619,13690.2351 226.896309,13690.8422 224.21006,13690.8422 L221.422603,13690.8422 C221.202263,13690.8422 221.007225,13690.803 220.861738,13690.7426 C220.597119,13690.6282 220.465337,13690.4491 220.465337,13690.2563 C220.465337,13690.0487 220.591848,13689.8845 220.856466,13689.7912 C221.012497,13689.7128 221.202263,13689.6736 221.422603,13689.6736 L223.380359,13689.6736 C223.831582,13689.6736 224.199518,13689.6736 224.482059,13689.6588 C224.789902,13689.6228 224.997591,13689.6016 225.110396,13689.5836 C225.513123,13689.4978 225.709215,13689.3092 225.709215,13688.9978 C225.709215,13688.5549 225.177869,13688.3293 224.142588,13688.3293 C221.68933,13688.3293 220.465337,13687.7392 220.465337,13686.4987 C220.465337,13685.6331 221.04307,13685.0897 222.158475,13684.8322 C222.416768,13684.7824 222.749913,13684.7146 223.121012,13684.685 C223.425482,13684.657 223.775833,13684.6514 224.162889,13684.6503 L227.260028,13684.65 Z M203.502963,13685.8081 L201.592648,13685.8081 C201.399719,13685.8081 201.2342,13685.8685 201.118232,13685.948 C200.905272,13686.037 200.804063,13686.2012 200.804063,13686.394 L200.804063,13689.2448 C200.804063,13689.4196 200.905272,13689.5552 201.118232,13689.6739 C201.2342,13689.7554 201.399719,13689.7914 201.592648,13689.7914 L203.502963,13689.7914 C203.684295,13689.7914 203.842434,13689.7554 203.99003,13689.6739 C204.189285,13689.5552 204.292602,13689.4196 204.292602,13689.2448 L204.292602,13686.394 C204.292602,13686.2012 204.189285,13686.037 203.99003,13685.948 C203.842434,13685.8685 203.684295,13685.8081 203.502963,13685.8081 Z M214.538616,13687.2351 C214.744197,13687.2351 214.921312,13687.2743 215.103698,13687.3453 C215.3641,13687.4746 215.490611,13687.625 215.490611,13687.8284 C215.490611,13687.9004 215.462146,13687.9576 215.410487,13688.0498 C215.355666,13688.1473 215.281868,13688.1971 215.189093,13688.2363 C215.103698,13688.2861 215.003544,13688.3295 214.885467,13688.3613 C214.763173,13688.4005 214.663019,13688.4005 214.538616,13688.4005 L212.129637,13688.4005 C211.914569,13688.4005 211.727965,13688.3793 211.56561,13688.2861 C211.308371,13688.1759 211.169209,13688.0254 211.169209,13687.8284 C211.169209,13687.625 211.308371,13687.4746 211.56561,13687.3453 C211.743779,13687.2743 211.938817,13687.2351 212.129637,13687.2351 L214.538616,13687.2351 Z M267.634303,13687.2097 C267.83672,13687.2097 268.015944,13687.2457 268.19833,13687.3135 C268.459786,13687.4354 268.595786,13687.6133 268.595786,13687.804 C268.595786,13687.8824 268.571538,13687.9471 268.506174,13688.0254 C268.452407,13688.1144 268.379663,13688.1759 268.288997,13688.2151 C268.19833,13688.2617 268.105556,13688.3072 267.994859,13688.3295 C267.866239,13688.3613 267.754488,13688.4005 267.634303,13688.4005 L265.231649,13688.4005 C265.036612,13688.4005 264.839465,13688.3507 264.66235,13688.2861 C264.410383,13688.1579 264.271221,13688.0106 264.271221,13687.804 C264.271221,13687.6133 264.410383,13687.4354 264.66235,13687.3135 C264.839465,13687.2457 265.036612,13687.2097 265.231649,13687.2097 L267.634303,13687.2097 Z M308.333078,13660.357 C309.173321,13660.357 309.998805,13660.5678 310.793715,13661.0043 C311.593897,13661.445 312.227506,13662.0658 312.670294,13662.8783 C313.115191,13663.6824 313.341856,13664.5299 313.341856,13665.3954 C313.341856,13666.2641 313.124679,13667.0968 312.689271,13667.9094 C312.238048,13668.6954 311.62447,13669.3279 310.82956,13669.7718 C310.030433,13670.205 309.202841,13670.4296 308.333078,13670.4296 C307.46437,13670.4296 306.631506,13670.205 305.83765,13669.7718 C305.048011,13669.3279 304.429162,13668.6954 303.988482,13667.9094 C303.540422,13667.0968 303.319028,13666.2641 303.319028,13665.3954 C303.319028,13664.5299 303.540422,13663.6824 303.989536,13662.8783 C304.434433,13662.0658 305.068042,13661.445 305.871386,13661.0043 C306.668405,13660.5678 307.497052,13660.357 308.333078,13660.357 Z M308.333078,13661.1897 C307.626725,13661.1897 306.941458,13661.3761 306.277275,13661.7405 C305.603605,13662.1018 305.089127,13662.6209 304.70854,13663.2968 C304.341658,13663.9578 304.146621,13664.6666 304.146621,13665.3954 C304.146621,13666.1179 304.340604,13666.8044 304.695889,13667.4792 C305.068042,13668.1414 305.587791,13668.67 306.25619,13669.0355 C306.915101,13669.4073 307.616183,13669.5927 308.333078,13669.5927 C309.060516,13669.5927 309.743675,13669.4073 310.406803,13669.0355 C311.072039,13668.67 311.588626,13668.1414 311.95129,13667.4792 C312.323443,13666.8044 312.506884,13666.1179 312.506884,13665.3954 C312.506884,13664.6666 312.307629,13663.9578 311.946019,13663.2968 C311.57492,13662.6209 311.055171,13662.1018 310.377284,13661.7405 C309.72259,13661.3761 309.030997,13661.1897 308.333078,13661.1897 Z M307.980956,13662.7671 C308.625107,13662.7671 309.078438,13662.8137 309.365196,13662.9143 C309.649846,13663.0107 309.872294,13663.1824 310.045192,13663.4356 C310.201223,13663.6824 310.293997,13663.943 310.293997,13664.2333 C310.293997,13664.6231 310.147455,13664.9695 309.872294,13665.2704 C309.592916,13665.5554 309.214437,13665.7207 308.750564,13665.7524 C308.941385,13665.8351 309.099523,13665.9389 309.208112,13666.0491 C309.427397,13666.2641 309.690962,13666.618 310.006185,13667.1254 L310.66615,13668.1837 L309.599241,13668.1837 L309.123771,13667.3256 C308.750564,13666.6572 308.435341,13666.2355 308.211838,13666.0597 C308.0537,13665.9389 307.821763,13665.8711 307.519191,13665.8711 L306.998388,13665.8711 L306.998388,13668.1837 L306.139168,13668.1837 L306.139168,13662.7671 L307.980956,13662.7671 Z M307.990444,13663.5034 L306.998388,13663.5034 L306.998388,13665.1306 L308.058971,13665.1306 C308.561852,13665.1306 308.907648,13665.0522 309.099523,13664.9017 C309.270313,13664.7661 309.365196,13664.5511 309.365196,13664.3043 C309.365196,13664.1475 309.329351,13663.997 309.236577,13663.8794 C309.140639,13663.7502 309.023617,13663.6538 308.872858,13663.5892 C308.716828,13663.5214 308.420581,13663.5034 307.990444,13663.5034 Z M275.020959,13684.685 C276.11317,13684.685 276.902809,13684.9318 277.391985,13685.4255 C277.669255,13685.7009 277.809471,13685.9827 277.809471,13686.3302 L277.809471,13686.7879 C277.809471,13687.5888 277.310807,13688.1471 276.310316,13688.4681 L277.472108,13689.3834 C277.710371,13689.555 277.826339,13689.7912 277.826339,13690.0487 C277.826339,13690.3527 277.63341,13690.5953 277.25704,13690.7924 C276.973444,13690.9216 276.687741,13691 276.431556,13691 C276.146906,13691 275.89283,13690.9216 275.673545,13690.7426 L272.791204,13688.4681 C272.599329,13688.3505 272.517097,13688.2149 272.517097,13688.0507 C272.517097,13687.8716 272.640445,13687.7 272.899793,13687.5888 C273.130675,13687.4892 273.314116,13687.4458 273.462766,13687.4458 L274.524404,13687.4458 C274.701519,13687.4458 274.858604,13687.3991 274.993549,13687.3388 C275.218105,13687.2455 275.299283,13687.0919 275.299283,13686.8991 L275.299283,13686.2444 C275.299283,13685.9732 275.045207,13685.8079 274.524404,13685.8079 L272.594058,13685.8079 C272.076417,13685.8079 271.814962,13685.9732 271.814962,13686.2444 L271.814962,13686.3302 L271.795985,13690.1059 C271.795985,13690.4067 271.622032,13690.6387 271.260422,13690.803 C271.05695,13690.9216 270.783897,13690.9714 270.490814,13690.9714 C270.188242,13690.9714 269.93522,13690.9216 269.706446,13690.803 C269.363812,13690.6387 269.185643,13690.4067 269.185643,13690.1059 L269.185643,13686.541 C269.185643,13686.4987 269.186697,13686.4552 269.19724,13686.4192 C269.258387,13685.8079 269.617888,13685.3609 270.263094,13685.0611 C270.734347,13684.8216 271.238283,13684.685 271.748543,13684.685 L275.020959,13684.685 Z M279.955729,13684.6849 C280.263572,13684.6849 280.516594,13684.7643 280.751693,13684.8385 C281.091164,13685.0218 281.269334,13685.2474 281.269334,13685.5546 L281.269334,13687.8281 C281.269334,13688.5548 281.53079,13689.1078 282.064244,13689.4193 C282.43956,13689.6735 282.910813,13689.7911 283.501197,13689.7911 L285.456845,13689.7911 C285.658209,13689.7911 285.847975,13689.8272 286.012439,13689.9055 C286.279166,13690.0136 286.406732,13690.1842 286.406732,13690.3706 C286.406732,13690.5708 286.279166,13690.7425 285.992408,13690.8611 C285.831107,13690.9215 285.645558,13690.9713 285.452628,13690.9713 L282.657791,13690.9713 C281.716339,13690.9713 280.897181,13690.7605 280.189774,13690.3706 C279.185066,13689.7985 278.666371,13688.9616 278.666371,13687.8281 L278.666371,13685.5716 C278.666371,13685.2474 278.840324,13685.0218 279.185066,13684.8385 C279.391701,13684.7643 279.672133,13684.6849 279.955729,13684.6849 Z M309.691067,13684.6849 C310.582969,13684.6849 311.411616,13684.8925 312.170681,13685.3184 C313.18804,13685.8873 313.689867,13686.7337 313.689867,13687.8429 C313.689867,13688.951 313.18804,13689.7911 312.164356,13690.3706 C311.425321,13690.7605 310.61038,13690.9713 309.691067,13690.9713 L308.618887,13690.9713 C308.411198,13690.9713 308.227758,13690.9215 308.053805,13690.8611 C307.792349,13690.7425 307.658458,13690.5708 307.658458,13690.3706 C307.658458,13690.1842 307.792349,13690.0136 308.053805,13689.9055 C308.227758,13689.8272 308.411198,13689.7911 308.618887,13689.7911 L308.845553,13689.7911 C309.403255,13689.7911 309.891376,13689.6735 310.326785,13689.4193 C310.896084,13689.0623 311.183896,13688.5294 311.183896,13687.8281 C311.183896,13687.0844 310.902409,13686.5409 310.34049,13686.2125 C309.920895,13685.9477 309.427503,13685.8078 308.856095,13685.8078 L308.218269,13685.8078 C308.039045,13685.8078 307.890395,13685.8693 307.753342,13685.9477 C307.539327,13686.0367 307.438119,13686.2019 307.438119,13686.3947 L307.438119,13690.0888 C307.438119,13690.3854 307.259949,13690.628 306.91099,13690.7923 C306.628449,13690.9098 306.368047,13690.9713 306.134002,13690.9713 C305.886251,13690.9713 305.629012,13690.9098 305.358068,13690.7923 C305.007,13690.628 304.830939,13690.3854 304.830939,13690.0888 L304.830939,13686.5409 C304.830939,13685.9117 305.164085,13685.4116 305.845135,13685.0716 C306.361721,13684.8215 306.868819,13684.6849 307.40122,13684.6849 L309.691067,13684.6849 Z M292.375728,13684.6856 C292.89126,13684.6856 293.418389,13684.8212 293.929704,13685.0712 C294.616025,13685.4113 294.949171,13685.9113 294.949171,13686.5417 L294.949171,13690.0885 C294.949171,13690.3851 294.77311,13690.6288 294.416771,13690.7919 C294.152152,13690.9106 293.893859,13690.971 293.638729,13690.971 C293.400466,13690.971 293.140065,13690.9106 292.86912,13690.7919 C292.516998,13690.6288 292.334612,13690.3851 292.334612,13690.0885 L292.334612,13688.4581 C292.334612,13688.2865 292.226023,13688.1466 292.018334,13688.0248 C291.877064,13687.9284 291.730522,13687.9072 291.554461,13687.9072 L289.619898,13687.9072 C289.443837,13687.9072 289.286753,13687.9284 289.151808,13688.0248 C288.947282,13688.1466 288.851344,13688.2865 288.851344,13688.4581 L288.851344,13689.2442 C288.851344,13689.419 288.947282,13689.5556 289.151808,13689.6732 C289.286753,13689.7559 289.443837,13689.7919 289.619898,13689.7919 L290.571893,13689.7919 C290.779582,13689.7919 290.963023,13689.8268 291.136975,13689.9052 C291.410028,13690.0133 291.532322,13690.1849 291.532322,13690.3703 C291.532322,13690.5705 291.410028,13690.7421 291.136975,13690.8608 C290.979891,13690.9212 290.784853,13690.971 290.571893,13690.971 L288.78598,13690.971 C288.274665,13690.971 287.754916,13690.8428 287.241493,13690.5959 C286.579419,13690.2527 286.237839,13689.7739 286.237839,13689.1086 L286.237839,13688.6149 C286.237839,13687.9962 286.579419,13687.4888 287.241493,13687.1593 C287.72118,13686.9125 288.227224,13686.7885 288.78598,13686.7885 L292.334612,13686.7885 L292.334612,13686.3944 C292.334612,13686.2016 292.226023,13686.0374 292.018334,13685.9484 C291.877064,13685.869 291.730522,13685.8086 291.554461,13685.8086 L288.123907,13685.8086 C287.491352,13685.8086 287.172966,13685.6327 287.172966,13685.2609 C287.172966,13685.0712 287.303694,13684.9219 287.561987,13684.8212 C287.72118,13684.7354 287.903567,13684.6856 288.105984,13684.6856 L292.375728,13684.6856 Z M301.407237,13684.6645 C301.913281,13684.6645 302.43303,13684.8065 302.942237,13685.0502 C303.602202,13685.3754 303.947998,13685.8691 303.970138,13686.5163 L303.98806,13688.5546 L303.98806,13690.0738 C303.98806,13690.3704 303.811999,13690.6098 303.461986,13690.7603 C303.181553,13690.8853 302.916934,13690.9319 302.680781,13690.9319 C302.43303,13690.9319 302.171574,13690.8853 301.905901,13690.7603 C301.550616,13690.6098 301.36823,13690.3704 301.36823,13690.0738 L301.362959,13686.4094 C301.362959,13686.2303 301.250153,13686.0831 301.040356,13685.9729 C300.910682,13685.8871 300.746218,13685.8479 300.576482,13685.8479 L299.202784,13685.8479 C299.027778,13685.8479 298.856988,13685.8871 298.727314,13685.9729 C298.52068,13686.0831 298.423688,13686.2303 298.423688,13686.4094 L298.40682,13690.0738 C298.40682,13690.3704 298.234976,13690.6278 297.888125,13690.7603 C297.599259,13690.8853 297.338857,13690.9319 297.09954,13690.9319 C296.860224,13690.9319 296.599822,13690.8853 296.318335,13690.7603 C295.979919,13690.6098 295.803858,13690.3704 295.803858,13690.0738 L295.809129,13686.5163 C295.809129,13685.8691 296.1486,13685.3754 296.835976,13685.0502 C297.335694,13684.8065 297.848063,13684.6645 298.367812,13684.6645 L301.407237,13684.6645 Z M282.517997,13673.0605 C282.862739,13673.0605 283.181125,13673.1071 283.488968,13673.1898 C283.926485,13673.3762 284.155259,13673.6231 284.155259,13673.8625 C284.155259,13674.1729 283.926485,13674.3879 283.488968,13674.5776 C283.181125,13674.6983 282.862739,13674.7375 282.517997,13674.7375 L279.219224,13674.7375 C278.278826,13674.7375 277.43542,13674.9102 276.711145,13675.2598 C275.733848,13675.7503 275.23413,13676.5014 275.23413,13677.4845 C275.23413,13678.4814 275.734903,13679.1965 276.721688,13679.6722 C277.449126,13680.0483 278.291477,13680.2019 279.219224,13680.2019 L282.530648,13680.2019 C282.87539,13680.2019 283.200101,13680.2877 283.500565,13680.3692 C283.945462,13680.5515 284.164747,13680.7697 284.164747,13681.0494 C284.164747,13681.1596 284.123631,13681.2782 284.026639,13681.3958 C283.939136,13681.4996 283.807354,13681.5717 283.649215,13681.6532 C283.500565,13681.7104 283.326612,13681.7888 283.133683,13681.8291 C282.936537,13681.8789 282.738336,13681.9043 282.530648,13681.9043 L277.782271,13681.9043 C276.187179,13681.9043 274.79345,13681.6109 273.576837,13681.0494 C271.852071,13680.2368 271.004448,13679.0503 271.004448,13677.4697 C271.004448,13675.8891 271.852071,13674.6983 273.576837,13673.9186 C274.813481,13673.3444 276.210373,13673.0605 277.782271,13673.0605 L282.517997,13673.0605 Z M311.832159,13673.0215 C312.497396,13673.0215 313.166849,13673.2186 313.853171,13673.6233 C313.881636,13673.6339 313.903776,13673.7123 313.903776,13673.8627 C313.903776,13674.1911 313.673947,13674.4273 313.221671,13674.5524 C313.104648,13674.5767 312.911719,13674.5916 312.689271,13674.599 C312.451009,13674.6276 312.16425,13674.6382 311.832159,13674.6382 L308.716828,13674.6382 L308.735804,13680.6597 C308.735804,13681.1057 308.435341,13681.4352 307.839685,13681.6534 C307.461207,13681.8293 307.015256,13681.9035 306.503941,13681.9035 C306.011602,13681.9035 305.562489,13681.8293 305.187173,13681.6534 C304.598897,13681.4352 304.294217,13681.1057 304.294217,13680.6597 L304.276294,13674.6382 L301.158854,13674.6382 C300.827817,13674.6382 300.546331,13674.6276 300.314394,13674.599 C300.086674,13674.5916 299.904288,13674.5767 299.77356,13674.5524 C299.339205,13674.4273 299.108323,13674.1911 299.108323,13673.8627 C299.108323,13673.3118 299.787265,13673.0215 301.158854,13673.0215 L311.832159,13673.0215 Z M209.665732,13673.0612 C209.998877,13673.0612 210.32148,13673.1078 210.629323,13673.1893 C211.06684,13673.3758 211.286126,13673.6226 211.286126,13673.8621 C211.286126,13674.1735 211.06684,13674.3875 210.629323,13674.5771 C210.32148,13674.699 209.998877,13674.7382 209.665732,13674.7382 L206.361688,13674.7382 C205.424453,13674.7382 204.586318,13674.9098 203.835687,13675.2679 C202.86577,13675.7679 202.392408,13676.5084 202.392408,13677.5127 C202.392408,13678.3962 202.776158,13679.0647 203.536277,13679.5467 C204.154072,13679.926 204.847774,13680.1548 205.636359,13680.2014 C206.468168,13680.1951 206.879329,13679.926 206.879329,13679.444 L206.879329,13677.8877 C206.879329,13677.4523 207.173467,13677.1197 207.767014,13676.894 C208.139167,13676.7256 208.579846,13676.6514 209.089053,13676.6514 C209.596151,13676.6514 210.035776,13676.7256 210.416363,13676.894 C211.012019,13677.1197 211.311428,13677.4523 211.311428,13677.8877 L211.311428,13679.3073 C211.311428,13680.2194 210.729478,13680.9133 209.587717,13681.3964 C208.736931,13681.71 207.86506,13681.9039 206.954181,13681.9039 L204.927898,13681.9039 C203.339131,13681.9039 201.929589,13681.6104 200.720355,13681.049 C199.001915,13680.2375 198.143749,13679.0509 198.143749,13677.4693 C198.143749,13675.8897 199.001915,13674.699 200.720355,13673.9193 C201.960162,13673.344 203.359162,13673.0612 204.927898,13673.0612 L209.665732,13673.0612 Z M223.087065,13673.0611 C223.98951,13673.0611 224.869815,13673.2295 225.715329,13673.5907 C226.86447,13674.0728 227.441149,13674.7667 227.441149,13675.6714 L227.441149,13679.2977 C227.441149,13680.195 226.86447,13680.8952 225.715329,13681.3783 C224.869815,13681.7099 223.98951,13681.9038 223.087065,13681.9038 L216.997672,13681.9038 C216.117367,13681.9038 215.245496,13681.7099 214.360974,13681.3783 C213.222376,13680.874 212.66151,13680.195 212.66151,13679.2977 L212.66151,13675.6714 C212.66151,13674.7667 213.222376,13674.0728 214.360974,13673.5907 C215.245496,13673.2295 216.117367,13673.0611 216.997672,13673.0611 L223.087065,13673.0611 Z M231.042704,13673.0612 C231.54664,13673.0612 231.983102,13673.1396 232.367906,13673.29 C232.957236,13673.5188 233.24294,13673.8335 233.24294,13674.2805 L233.24294,13677.4555 C233.24294,13678.4958 233.701542,13679.2512 234.589227,13679.7152 C235.222836,13680.0478 236.037777,13680.2014 237.037214,13680.2014 L240.3518,13680.2014 C240.712356,13680.2014 241.025471,13680.2873 241.298523,13680.3699 C241.746583,13680.5521 241.96376,13680.7703 241.96376,13681.049 C241.96376,13681.3498 241.738149,13681.5638 241.289035,13681.7217 C240.974866,13681.8393 240.665969,13681.9039 240.330715,13681.9039 L235.601315,13681.9039 C234.018874,13681.9039 232.612494,13681.6104 231.421183,13681.049 C229.687983,13680.2375 228.831926,13679.0509 228.831926,13677.4693 L228.831926,13674.2805 C228.831926,13673.8335 229.12501,13673.5188 229.703797,13673.29 C230.087547,13673.1396 230.518738,13673.0612 231.042704,13673.0612 Z M250.432823,13673.0612 C251.936194,13673.0612 253.319381,13673.344 254.611901,13673.9299 C256.336666,13674.7562 257.202212,13675.9363 257.202212,13677.4841 C257.202212,13679.0509 256.336666,13680.2194 254.601358,13681.049 C253.35628,13681.6104 251.969931,13681.9039 250.40225,13681.9039 L248.595252,13681.9039 C248.251564,13681.9039 247.925798,13681.8393 247.630606,13681.7217 C247.183601,13681.5638 246.959044,13681.3498 246.959044,13681.049 C246.959044,13680.7703 247.183601,13680.5521 247.630606,13680.3699 C247.925798,13680.2873 248.251564,13680.2014 248.595252,13680.2014 L248.968459,13680.2014 C249.918345,13680.2014 250.741721,13680.0478 251.481809,13679.6728 C252.468595,13679.1971 252.953553,13678.4534 252.953553,13677.4693 C252.953553,13676.4226 252.473866,13675.6715 251.526088,13675.2032 C250.804976,13674.8452 249.962624,13674.6598 249.011684,13674.6598 L247.909984,13674.6598 C247.610575,13674.6598 247.340685,13674.7382 247.117183,13674.8452 C246.757681,13674.9596 246.582674,13675.164 246.582674,13675.4533 L246.582674,13680.6591 C246.582674,13681.0881 246.280102,13681.4208 245.689718,13681.639 C245.203705,13681.7958 244.773568,13681.9039 244.36557,13681.9039 C243.958626,13681.9039 243.510567,13681.7958 243.048802,13681.639 C242.467906,13681.4208 242.16428,13681.0881 242.16428,13680.6591 L242.16428,13675.6715 C242.16428,13674.7668 242.740959,13674.0729 243.870069,13673.5909 C244.74932,13673.2296 245.622245,13673.0612 246.513093,13673.0612 L250.432823,13673.0612 Z M269.428227,13673.0215 C270.07765,13673.0215 270.752375,13673.2186 271.431317,13673.6233 C271.463999,13673.6339 271.472433,13673.7123 271.472433,13673.8627 C271.472433,13674.1911 271.260527,13674.4273 270.810359,13674.5524 C270.678577,13674.5767 270.496191,13674.5916 270.268471,13674.599 C270.030209,13674.6276 269.742396,13674.6382 269.428227,13674.6382 L266.291811,13674.6382 L266.317113,13680.6597 C266.317113,13681.1057 266.01665,13681.4352 265.41994,13681.6534 C265.052004,13681.8293 264.601836,13681.9035 264.095792,13681.9035 C263.591857,13681.9035 263.150123,13681.8293 262.779024,13681.6534 C262.164392,13681.4352 261.891339,13681.1057 261.891339,13680.6597 L261.8692,13674.6382 L258.74438,13674.6382 C258.409126,13674.6382 258.113934,13674.6276 257.899919,13674.599 C257.652169,13674.5916 257.483488,13674.5767 257.356977,13674.5524 C256.917351,13674.4273 256.683306,13674.1911 256.683306,13673.8627 C256.683306,13673.3118 257.370682,13673.0215 258.74438,13673.0215 L269.428227,13673.0215 Z M296.767238,13672.9929 C297.106709,13672.9929 297.435638,13673.0544 297.741372,13673.1646 C298.173618,13673.333 298.401338,13673.5438 298.401338,13673.8341 C298.401338,13674.0979 298.173618,13674.3203 297.741372,13674.4665 C297.435638,13674.5767 297.106709,13674.6382 296.767238,13674.6382 L293.480063,13674.6382 C291.977746,13674.6382 290.979364,13674.6986 290.488079,13674.7674 C289.824951,13674.885 289.497077,13675.1636 289.497077,13675.5927 C289.497077,13676.0683 289.944082,13676.3724 290.850744,13676.5006 C290.96355,13676.5006 291.18389,13676.508 291.453779,13676.526 C291.745809,13676.526 292.109528,13676.5398 292.543882,13676.5398 C294.07361,13676.5398 295.228022,13676.6298 295.996576,13676.8269 C297.600102,13677.2263 298.423477,13677.988 298.423477,13679.0897 C298.423477,13680.8345 296.149443,13681.7106 291.628786,13681.7106 L286.855107,13681.7106 C286.506148,13681.7106 286.203576,13681.6534 285.910492,13681.5644 C285.477193,13681.396 285.252636,13681.1598 285.252636,13680.8737 C285.252636,13680.5803 285.469813,13680.3483 285.897841,13680.1947 C286.205685,13680.0877 286.517745,13680.0485 286.855107,13680.0485 L290.177073,13680.0485 C290.943519,13680.0485 291.588724,13680.0485 292.082117,13680.0124 C292.569184,13679.9764 292.936066,13679.9478 293.1427,13679.9192 C293.824805,13679.8048 294.151625,13679.5368 294.151625,13679.1183 C294.151625,13678.4965 293.270266,13678.1818 291.483299,13678.1818 C287.327415,13678.1818 285.252636,13677.3057 285.252636,13675.5778 C285.252636,13674.3882 286.210956,13673.6233 288.13603,13673.2292 C288.570385,13673.1646 289.115436,13673.1073 289.760642,13673.0607 C290.407956,13673.0141 291.168076,13672.9929 292.037838,13672.9929 L296.767238,13672.9929 Z M221.677522,13674.6597 L218.405106,13674.6597 C218.100426,13674.6597 217.826319,13674.7381 217.605979,13674.8451 C217.248586,13674.9595 217.088339,13675.1639 217.088339,13675.4532 L217.088339,13679.4333 C217.088339,13679.7151 217.248586,13679.9047 217.605979,13680.0583 C217.826319,13680.1653 218.100426,13680.2013 218.405106,13680.2013 L221.677522,13680.2013 C221.98642,13680.2013 222.247876,13680.1653 222.475595,13680.0583 C222.829826,13679.9047 223.013267,13679.7151 223.013267,13679.4333 L223.013267,13675.4532 C223.013267,13675.1639 222.829826,13674.9595 222.475595,13674.8451 C222.247876,13674.7381 221.98642,13674.6597 221.677522,13674.6597 Z M282.530648,13676.5978 C282.87539,13676.5978 283.200101,13676.6508 283.500565,13676.7875 C283.945462,13676.9231 284.164747,13677.1593 284.164747,13677.4337 C284.164747,13677.5523 284.123631,13677.6562 284.026639,13677.7812 C283.939136,13677.8882 283.807354,13677.9708 283.649215,13678.028 C283.500565,13678.1127 283.326612,13678.1562 283.133683,13678.2134 C282.936537,13678.2642 282.738336,13678.2886 282.530648,13678.2886 L278.470701,13678.2886 C278.119633,13678.2886 277.806519,13678.2346 277.501838,13678.1127 C277.05905,13677.9496 276.836602,13677.7271 276.836602,13677.4337 C276.836602,13677.1593 277.05905,13676.9231 277.501838,13676.7875 C277.806519,13676.6508 278.119633,13676.5978 278.470701,13676.5978 L282.530648,13676.5978 Z M277.90836,13611.0151 C283.683584,13616.2538 284.397316,13623.9153 284.479548,13626.1379 L282.877077,13626.1972 C282.802224,13624.1335 282.142259,13617.0261 276.835126,13612.2101 C273.040852,13608.7681 267.720014,13607.2469 261.020206,13607.6844 C252.903476,13608.2088 252.268813,13612.2408 251.654181,13616.1404 C251.188199,13619.0898 250.707457,13622.1408 246.735014,13622.5985 L246.67703,13622.6048 L244.050874,13622.5254 C236.535071,13622.2965 231.999654,13622.1567 224.126458,13622.6694 C217.052388,13623.1313 211.344637,13624.9863 209.234013,13627.5108 C208.668931,13628.1857 208.411692,13628.8722 208.468622,13629.5533 C209.429051,13633.0684 214.554852,13634.1998 219.513026,13635.2952 C222.081198,13635.862 224.737927,13636.4489 226.803218,13637.378 L228.010343,13637.9225 L226.971899,13638.7457 C223.687886,13641.3486 218.466148,13643.8858 213.416254,13646.3383 C205.457662,13650.2051 196.438487,13654.5878 196.601897,13658.8126 C196.970888,13662.2238 202.443539,13665.563 213.583881,13664.6922 C222.884542,13664.0703 245.880011,13659.819 253.956679,13656.3898 C254.629296,13656.1027 255.24182,13656.0783 255.776328,13656.3199 C256.801067,13656.7807 257.220661,13658.0255 257.753061,13659.6018 C259.008682,13663.3224 260.715526,13668.4138 270.702509,13667.6786 C282.86548,13666.6277 283.964016,13654.235 284.011458,13650.4614 L285.61393,13650.4805 C285.508504,13658.963 281.569797,13668.3566 270.830074,13669.2836 C270.142698,13669.3344 269.488004,13669.3588 268.867046,13669.3588 C259.354479,13669.3588 257.42097,13663.6296 256.235985,13660.1188 C255.877537,13659.0594 255.507492,13657.964 255.12058,13657.7892 C254.983526,13657.7257 254.750535,13657.8009 254.581854,13657.8729 C246.376566,13661.3562 223.092231,13665.67 213.699849,13666.2982 C200.595426,13667.3227 195.439051,13662.9675 195.003643,13658.9312 C194.795954,13653.5972 203.502014,13649.3671 212.718335,13644.889 C217.127241,13642.747 221.666874,13640.5413 224.833865,13638.3304 C223.161812,13637.7498 221.210381,13637.3187 219.168284,13636.8684 L218.538086,13636.7289 C213.283958,13635.5622 208.023158,13634.2432 206.901995,13629.8987 L206.879856,13629.7832 C206.755453,13628.6306 207.134986,13627.5172 208.006857,13626.4748 C210.425324,13623.5826 216.412454,13621.5592 224.02314,13621.0623 C231.970135,13620.5443 236.795472,13620.6916 244.100424,13620.9151 L246.608503,13620.9914 C249.198814,13620.6704 249.578347,13619.0145 250.070685,13615.8883 C250.683209,13612.0035 251.521344,13606.6843 260.915835,13606.0773 C268.06581,13605.609 273.781996,13607.2702 277.90836,13611.0151 Z M211.21043,13654.0228 C212.01272,13653.7336 213.130233,13653.438 213.936741,13654.1393 C214.292025,13654.4582 214.481792,13654.8862 214.468086,13655.3195 C214.455435,13655.7146 214.267778,13656.0833 213.952554,13656.3291 C213.937795,13656.3471 213.919872,13656.364 213.90195,13656.381 C214.235096,13656.7348 214.472304,13657.1098 214.480738,13657.541 C214.487063,13657.8652 214.359498,13658.166 214.121236,13658.3885 L214.109639,13658.3991 C213.479193,13658.9648 212.461834,13658.7996 211.566769,13658.6512 C211.363298,13658.6184 211.075485,13658.5707 210.922618,13658.5612 C210.816138,13658.6301 210.67803,13658.7402 210.517783,13658.8621 C209.872577,13659.3494 208.914257,13660.0729 208.021301,13660.0729 C207.67445,13660.0729 207.338142,13659.9649 207.032407,13659.6905 C206.918547,13659.6015 206.835261,13659.4966 206.779385,13659.3812 C205.590182,13659.8537 205.113658,13659.9607 204.691955,13659.486 L204.488483,13659.2572 L204.444204,13658.8748 C204.424173,13658.3557 204.808977,13657.9415 205.117875,13657.6088 L205.312913,13657.3969 C205.680848,13657.0738 206.09728,13656.8122 206.500007,13656.559 C206.777277,13656.3852 207.042949,13656.2189 207.267506,13656.0473 C207.322328,13655.5345 207.470978,13654.7813 208.10037,13654.1997 C209.438223,13652.9019 210.601069,13653.5026 211.21043,13654.0228 Z M209.267433,13655.4445 C209.003869,13655.6892 208.973295,13656.0642 208.950102,13656.3375 C208.935342,13656.5367 208.914257,13656.7793 208.750847,13657.0018 L208.503096,13658.1788 C208.858381,13657.9743 209.287464,13657.6501 209.494099,13657.4944 C209.885228,13657.1978 210.143521,13657.0028 210.414466,13656.9128 C210.822463,13656.7963 211.271577,13656.8694 211.840876,13656.9626 C211.902023,13656.9721 211.971604,13656.9838 212.046457,13656.9954 C212.006395,13656.9594 211.971604,13656.9276 211.945248,13656.9022 L211.249438,13656.2147 L212.021154,13655.615 C212.065433,13655.5801 212.110766,13655.5472 212.158208,13655.5144 C211.969496,13655.5705 211.74283,13655.6479 211.48032,13655.7475 L210.797161,13656.0007 L210.110839,13655.3279 C209.852546,13655.0959 209.71971,13655.0091 209.267433,13655.4445 Z M228.677266,13648.1328 C228.825917,13648.2567 228.951373,13648.3881 229.053636,13648.5258 C231.227516,13648.4676 231.856908,13649.5301 232.005558,13650.1838 C232.382982,13651.6097 231.082028,13652.4466 230.456853,13652.8481 C230.407303,13652.8789 230.360916,13652.9085 230.318746,13652.9361 C230.26287,13653.2613 230.115274,13653.6247 229.894934,13653.952 C229.525944,13654.4997 228.785855,13655.2063 227.354173,13655.468 C225.937251,13655.7434 225.196107,13655.1512 224.703769,13654.7603 L224.694281,13654.7529 C223.64424,13655.1894 221.886793,13655.771 220.926364,13655.9532 C220.620629,13656.0072 220.3286,13656.0337 220.055547,13656.0337 C218.940142,13656.0337 218.136798,13655.593 217.95652,13654.8345 C217.739343,13654.0304 218.504734,13653.3354 219.581131,13652.5165 C219.273288,13652.347 218.999181,13652.0907 218.839988,13651.686 C218.725074,13651.2792 218.777787,13650.9433 218.95701,13650.6499 C219.39031,13649.938 220.48463,13649.6106 221.099262,13649.4793 C221.865707,13649.35 222.338015,13649.2971 222.960027,13649.2271 L223.204615,13649.1996 L223.204615,13649.1604 C223.214103,13648.4856 223.407032,13647.6751 224.835551,13647.3965 C226.353682,13647.1126 227.787473,13647.388 228.677266,13648.1328 Z M225.153937,13649.0778 C225.037969,13649.1 224.959954,13649.1233 224.907241,13649.1413 L224.907241,13649.1837 C224.903024,13649.5164 224.893536,13650.2071 224.16926,13650.7103 L223.994254,13650.8311 L223.148739,13650.9285 C222.5573,13650.9953 222.109241,13651.0451 221.416594,13651.1605 C221.339633,13651.1775 221.268998,13651.1944 221.201525,13651.2135 C221.376532,13651.2474 221.54943,13651.2877 221.711786,13651.3374 L223.150848,13651.7919 L222.020683,13652.7962 C221.80456,13652.988 221.468252,13653.239 221.102425,13653.5124 C220.817775,13653.7232 220.388692,13654.0431 220.055547,13654.3228 C220.210523,13654.3228 220.399235,13654.309 220.620629,13654.2688 C221.583166,13654.0876 223.646349,13653.3789 224.420174,13653.0039 L224.81552,13652.8121 L225.200324,13653.025 C225.395362,13653.1331 225.576694,13653.2719 225.76119,13653.4181 C226.148102,13653.7264 226.384256,13653.9171 227.03895,13653.7857 C228.328307,13653.5505 228.587655,13652.8428 228.631933,13652.6744 C228.556027,13652.0377 229.14114,13651.6616 229.538595,13651.4063 C229.983492,13651.1203 230.412575,13650.8226 230.352482,13650.5938 C230.302932,13650.3798 229.73785,13650.1615 228.59398,13650.2611 L227.669396,13650.3416 L227.669396,13649.5217 C227.469087,13649.2791 226.611976,13648.8076 225.153937,13649.0778 Z M304.322576,13626.5611 C306.340425,13626.5463 308.336135,13626.6289 310.232745,13626.8397 C314.446613,13627.308 314.422365,13628.6629 314.446613,13629.2562 C314.46559,13630.0539 314.13877,13631.198 310.41724,13631.4767 C308.511142,13631.6239 306.548114,13631.9163 304.522885,13631.9311 L304.522885,13631.9311 L284.309602,13632.1134 C278.569169,13632.16 273.478158,13632.6462 268.914277,13633.5976 C263.019922,13634.9207 260.230356,13636.4515 260.308371,13638.9962 C260.383224,13641.2273 262.78904,13642.8979 267.464673,13644.0855 C271.280031,13645.0146 275.531852,13645.5464 280.360353,13645.6333 C285.451363,13645.5655 287.9489,13644.8673 287.916218,13643.6448 L287.916218,13643.6448 L287.798141,13639.6975 C287.764405,13638.5894 289.51131,13637.7313 293.141119,13637.1338 C295.415153,13636.6899 298.098239,13636.4791 301.209353,13636.4515 C304.309925,13636.4219 307.010933,13636.5829 309.344006,13636.994 C313.00966,13637.5311 314.867262,13638.3489 314.897835,13639.4581 L314.897835,13639.4581 L314.999044,13643.0505 C315.066516,13645.361 311.562164,13647.1493 304.612497,13648.4396 C299.442417,13649.2839 294.127904,13649.8168 288.556152,13649.8666 L288.556152,13649.8666 L276.138051,13649.981 C266.717204,13650.053 258.320041,13649.4301 251.034066,13648.1536 C251.588606,13649.0466 251.932294,13649.856 251.875364,13650.5499 C251.711954,13652.3689 249.817453,13653.1274 248.288779,13652.9918 C246.614618,13652.8668 244.725388,13651.7036 243.207257,13650.7671 L243.207257,13650.7671 L242.943693,13650.6103 C242.816127,13650.7173 242.684345,13650.8243 242.555726,13650.9355 C241.371794,13651.9366 240.032887,13653.0702 238.261734,13653.0702 L238.261734,13653.0702 C238.16158,13653.0702 238.058262,13653.067 237.957054,13653.0628 C236.815292,13652.977 235.162216,13652.3117 234.210222,13651.1961 C233.678876,13650.5711 233.429017,13649.8708 233.490164,13649.1653 C233.544985,13648.5752 233.698907,13648.018 233.847557,13647.4745 C233.878131,13647.3601 233.90765,13647.2488 233.938223,13647.1387 C229.723301,13645.8187 227.156183,13644.6533 227.297454,13642.9795 C227.423965,13641.4349 229.496636,13640.8056 234.455864,13640.8056 L234.455864,13640.8056 L234.725754,13640.8067 C234.475895,13640.2622 234.327244,13639.6965 234.310376,13639.1032 C234.194408,13635.1061 239.212675,13631.287 249.661423,13629.217 C257.202528,13627.7084 265.72093,13626.9075 275.316784,13626.8185 L275.316784,13626.8185 Z M240.189971,13639.0079 C237.966542,13638.8182 237.103105,13639.4475 236.574922,13641.7919 L236.574922,13641.7919 L236.437868,13642.4106 L235.593408,13642.4223 L234.455864,13642.418 C229.536697,13642.418 228.928391,13643.0907 228.877786,13643.1691 C228.962127,13643.2835 229.593627,13644.113 234.714157,13645.6894 L234.714157,13645.6894 L235.803205,13646.0327 L235.67564,13646.7308 C235.605005,13647.1164 235.498525,13647.5094 235.392045,13647.9035 C235.253937,13648.4004 235.126372,13648.8655 235.087364,13649.3083 C235.065225,13649.57 235.17803,13649.8549 235.426835,13650.1484 C236.054118,13650.8815 237.286546,13651.3963 238.070913,13651.4546 L238.070913,13651.4546 L238.261734,13651.4578 C239.444611,13651.4578 240.503086,13650.5668 241.524662,13649.7056 C241.816691,13649.4555 242.107666,13649.2119 242.39337,13648.9905 L242.39337,13648.9905 L242.823507,13648.6578 L244.041175,13649.3941 C245.343183,13650.195 247.121716,13651.2893 248.413182,13651.3858 C248.484871,13651.39 248.554452,13651.3932 248.622979,13651.3932 C249.251316,13651.3932 250.213854,13651.1357 250.279218,13650.4132 C250.338256,13649.6844 248.747381,13647.6599 248.070548,13646.7986 C247.848099,13646.5126 247.64779,13646.2551 247.49176,13646.0517 L247.49176,13646.0517 L247.026833,13645.415 L248.105338,13644.5781 C249.028868,13643.881 250.420488,13642.8259 250.491123,13641.9318 C250.516426,13641.6574 250.459496,13641.4392 250.322442,13641.2739 C250.166412,13641.0885 249.895468,13640.9709 249.555997,13640.9423 L249.555997,13640.9423 L249.360959,13640.9338 C248.703102,13640.9338 247.994641,13641.1489 247.241901,13641.3819 C246.325751,13641.6637 245.377974,13641.971 244.394351,13641.8788 C243.965268,13641.8576 243.713301,13641.5419 243.364341,13641.1023 C242.779228,13640.366 241.794552,13639.1329 240.189971,13639.0079 Z M241.91927,13640.7554 C242.098494,13641.2099 242.229222,13642.1676 242.300912,13643.263 C242.989342,13643.1698 243.728377,13643.0511 244.573891,13642.8911 C244.68248,13645.0682 244.58338,13643.7916 244.700402,13645.5184 C244.146917,13645.7653 243.326704,13645.9157 242.421097,13646.0015 C242.442071,13646.9578 242.443584,13647.7587 242.442928,13648.114 L242.442182,13648.311 L239.825515,13648.4466 C239.825515,13648.4466 239.840274,13647.4317 239.808646,13646.1191 C238.355879,13646.1297 237.184599,13646.0587 237.184599,13646.0587 C237.184599,13646.0587 237.354334,13644.4241 237.053871,13643.4198 C238.048036,13643.4558 238.898822,13643.4632 239.686353,13643.4441 C239.607283,13642.4081 239.482881,13641.4642 239.285735,13640.8953 C240.993632,13640.7883 240.621479,13640.8486 241.91927,13640.7554 Z" transform="translate(-195 -13606)"/>
</svg>
