<svg height="17" viewBox="0 0 211 17" width="211" xmlns="http://www.w3.org/2000/svg"><path d="m207.637679 0c1.402814 0 2.780987.35580564 4.108116 1.09244846 1.335929.7437947 2.39376 1.79154397 3.13301 3.16291544.74277 1.35706774 1.121195 2.78744216 1.121195 4.24821204 0 1.46613378-.362584 2.87147666-1.089513 4.24284816-.753331 1.3266722-1.777719 2.3940892-3.104848 3.1432478-1.33417.7312789-2.715862 1.1103281-4.16796 1.1103281-1.450337 0-2.84083-.3790492-4.166199-1.1103281-1.318329-.7491586-2.351518-1.8165756-3.087247-3.1432478-.74805-1.3713715-1.117675-2.77671438-1.117675-4.24284816 0-1.46076988.369625-2.8911443 1.119435-4.24821204.74277-1.37137147 1.800601-2.41912074 3.141811-3.16291544 1.330649-.73664282 2.714102-1.09244846 4.109875-1.09244846zm-183.4013491 1.78390886c.5561973 0 1.0947935.07867059 1.6087479.21634413.730449.31468237 1.0965536.73127892 1.0965536 1.13535969 0 .5256626-.3661046.88683215-1.0965536 1.20687842-.5139544.20561633-1.0525506.27177114-1.6087479.27177114h-5.5162099c-1.5647449 0-2.9640387.28965082-4.2172428.89398402-1.6193085.84392091-2.4096015 2.09371056-2.4096015 3.78870425 0 1.49116529.6406829 2.61937319 1.909728 3.43289859 1.0314292.6400926 2.1895868 1.0262937 3.5061551 1.1049643 1.3887332-.0107279 2.0751792-.4648717 2.0751792-1.2783972v-2.62652501c0-.73485486.4910729-1.29627682 1.4820194-1.67711401.6213216-.28428692 1.357051-.40944468 2.207188-.40944468.8466168 0 1.580586.12515776 2.2159886.40944468.9944667.38083719 1.4943402.94225915 1.4943402 1.67711401v2.39587711c0 1.5394405-.9715852 2.7105596-2.877793 3.525873-1.4204152.5292385-2.8760329.8564367-4.3967748.8564367h-3.3829469c-2.6524979 0-5.0057757-.4952672-7.02463104-1.4428902-2.86899238-1.3695835-4.30172846-3.3721077-4.30172846-6.04154398 0-2.66586033 1.43273608-4.67553639 4.30172846-5.99148086 2.06989884-.97086664 4.40557544-1.4482541 7.02463104-1.4482541zm35.6895613 0c.8413364 0 1.5700253.13230963 2.2124684.38620109.9839059.38620109 1.4608979.9172276 1.4608979 1.67175011v5.35854017c0 1.75578457.7656514 3.03060577 2.2476707 3.81373577 1.057831.561422 2.4184022.8206774 4.0869941.8206774h5.5338111c.6019604 0 1.1247154.1448254 1.580586.2842869.7480501.3075305 1.1106345.6758519 1.1106345 1.1460875 0 .5077829-.3766653.8689524-1.1264756 1.1353597-.5245152.1984644-1.0402297.3075305-1.5999473.3075305h-7.8958894c-2.6419372 0-4.9899347-.4952672-6.978868-1.4428902-2.8936341-1.3695835-4.3228499-3.3721077-4.3228499-6.04154398v-5.38178376c0-.75452251.4893128-1.28554902 1.4556176-1.67175011.640683-.25389146 1.3605712-.38620109 2.2353499-.38620109zm32.3724428 0c2.5099283 0 4.8192032.47738746 6.9771079 1.46613378 2.8795531 1.39461506 4.3246101 3.38641144 4.3246101 5.99863273 0 2.64440473-1.445057 4.61653343-4.3422113 6.01651243-2.0786994.947623-4.3932546 1.4428902-7.0105501 1.4428902h-3.0168423c-.5737985 0-1.117675-.1090661-1.610508-.3075305-.7462901-.2664073-1.1211952-.6275768-1.1211952-1.1353597 0-.4702356.3749051-.838557 1.1211952-1.1460875.492833-.1394615 1.0367095-.2842869 1.610508-.2842869h.6230818c1.5858663 0 2.9605185-.2592554 4.1961214-.8921961 1.6474704-.8027976 2.4571247-2.0579512 2.4571247-3.71897348 0-1.76651241-.8008537-3.03418175-2.3831998-3.82446361-1.2039207-.6043332-2.610255-.9172276-4.1978815-.9172276h-1.8393233c-.4998736 0-.9504638.13230963-1.3236088.3128944-.6002002.19310055-.8923798.53817838-.8923798 1.02629365v8.78607484c0 .7241271-.5051539 1.2855491-1.49082 1.6538705-.8114144.2646192-1.5295426.446992-2.2107082.446992-.6794056 0-1.4274558-.1823728-2.1983875-.446992-.969825-.3683214-1.476739-.9297434-1.476739-1.6538705v-8.41775343c0-1.52692469.9627846-2.69804375 2.847871-3.5115692 1.4679384-.6096971 2.9253161-.89398401 4.4126159-.89398401zm53.567256-.00107278c.575559 0 1.107114.07867059 1.621069.21813209.730449.31468238 1.112394.73127893 1.112394 1.1353597 0 .52387463-.381945.88683214-1.112394 1.20687842-.513955.20382836-1.04551.26998317-1.621069.26998317h-5.507409c-1.570025 0-2.97812.29143879-4.187321.88146824-1.631629.8278292-2.465925 2.09549853-2.465925 3.75473286 0 1.68247794.836056 2.88935634 2.483526 3.69215394 1.214482.6347287 2.620816.893984 4.16972.893984h5.528531c.575558 0 1.117674.1448255 1.619308.282499.74277.3075305 1.108874.6758519 1.108874 1.1478755 0 .1859486-.068644.3862011-.230575.5846655-.14609.1752209-.366105.2968027-.630122.4344762-.248177.0965503-.538596.2288599-.860698.2968027-.329142.0840345-.660044.1269458-1.006787.1269458h-7.927572c-2.663059 0-4.989935-.4952672-7.021111-1.4428902-2.879553-1.3713715-4.294688-3.3738957-4.294688-6.041544 0-2.66764829 1.415135-4.67732435 4.294688-5.99326882 2.064619-.96907867 4.396775-1.4482541 7.021111-1.4482541zm-99.2219015.00089398c1.5066611 0 2.9763596.28428692 4.3879743.89398401 1.9185286.81352546 2.8813132 1.98464451 2.8813132 3.51156921v6.12021452c0 1.514409-.9627846 2.6962558-2.8813132 3.5115692-1.4116147.559634-2.8813132.8868322-4.3879743.8868322h-10.1664417c-1.4696986 0-2.9253162-.3271982-4.4020552-.8868322-1.9009275-.8510727-2.8373103-1.9971602-2.8373103-3.5115692v-6.12021452c0-1.5269247.9363828-2.69804375 2.8373103-3.51156921 1.476739-.60969709 2.9323566-.89398401 4.4020552-.89398401zm77.3681005-.06669121c1.084232 0 2.210708.33256206 3.344224 1.01556584.054564.01787968.068644.15018932.068644.40408078 0 .55427008-.353783.95298695-1.105354 1.16396718-.220014.04112327-.524515.06615482-.9047.07867059-.397787.04827514-.878299.06615482-1.402814.06615482h-5.236351l.042242 10.16281024c0 .7527346-.501633 1.3087926-1.49786 1.677114-.614281.2968027-1.365852.4219605-2.210708.4219605-.841337 0-1.578826-.1251578-2.198388-.4219605-1.026149-.3683214-1.482019-.9243794-1.482019-1.677114l-.036963-10.16281024h-5.216989c-.559718 0-1.052551-.01787968-1.409855-.06615482-.413628-.01251577-.695247-.03754732-.906461-.07867059-.733969-.21098023-1.124715-.6096971-1.124715-1.16396718 0-.92974338 1.147597-1.41964662 3.441031-1.41964662zm70.794763 0c1.110634 0 2.228309.33256206 3.374146 1.01556584.047523.01787968.084486.15018932.084486.40408078 0 .55427008-.383706.95298695-1.138796 1.16396718-.195374.04112327-.517475.06615482-.88886.07867059-.397787.04827514-.876539.06615482-1.430976.06615482h-5.201149l.031682 10.16281024c0 .7527346-.501633 1.3087926-1.4961 1.677114-.631882.2968027-1.376412.4219605-2.23007.4219605-.821975 0-1.571785-.1251578-2.198387-.4219605-.982146-.3683214-1.49082-.9243794-1.49082-1.677114l-.029922-10.16281024h-5.204669c-.552677 0-1.022629-.01787968-1.409855-.06615482-.380185-.01251577-.684685-.03754732-.90294-.07867059-.725169-.21098023-1.110635-.6096971-1.110635-1.16396718 0-.92974338 1.133516-1.41964662 3.42343-1.41964662zm-25.151383-.04827513c.566758 0 1.115915.10370214 1.626349.28965082.721649.28428691 1.101834.64009255 1.101834 1.12999579 0 .44520404-.380185.82067732-1.101834 1.06741691-.510434.18594868-1.059591.28965082-1.626349.28965082h-5.488048c-2.508168 0-4.175.10191418-4.995215.2181321-1.107114.19846445-1.654511.66870004-1.654511 1.39282709 0 .80279765.74629 1.31594447 2.259992 1.5322886.188333 0 .556197.01251578 1.006788.04291124.487552 0 1.094793.02324358 1.819962.02324358 2.553931 0 4.48126.15197728 5.764386.48453933 2.67714.67406395 4.051792 1.959613 4.051792 3.8190997 0 2.9447834-3.796575 4.4234329-11.343961 4.4234329h-7.969814c-.582599 0-1.087753-.0965503-1.577066-.2467396-.723409-.2842869-1.098314-.6830038-1.098314-1.1657551 0-.4952672.362585-.8868322 1.077192-1.1460875.513955-.1805848 1.03495-.2467396 1.598188-.2467396h5.546132c1.279605 0 2.356798 0 3.180533-.0607909.813174-.060791 1.425695-.1090661 1.770679-.1573412 1.138796-.1931006 1.684433-.6454565 1.684433-1.3517039 0-1.0495372-1.471459-1.5805637-4.454859-1.5805637-6.938385 0-10.402298-1.47864955-10.402298-4.3948254 0-2.00788809 1.599948-3.29880101 4.813923-3.96392511.725169-.10906605 1.63515-.20561633 2.712342-.28428692 1.080712-.07867059 2.349758-.11442995 3.801855-.11442995zm37.98251-.26342085c-1.179279 0-2.323356.31468237-3.43223.92974337-1.124715.6096971-1.983653 1.48580143-2.619056 2.62652503-.612521 1.11569205-.938142 2.31184266-.938142 3.54196467 0 1.21939419.323861 2.37799746.917021 3.51693306.621322 1.1174801 1.48906 2.0096761 2.604975 2.6265251 1.100073.6275768 2.270552.9404712 3.467432.9404712 1.214482 0 2.355038-.3128944 3.462152-.9404712 1.110635-.616849 1.973093-1.509045 2.578573-2.6265251.621322-1.1389356.927583-2.29753887.927583-3.51693306 0-1.23012201-.332663-2.42627262-.936383-3.54196467-.619562-1.1407236-1.4873-2.01682793-2.619056-2.62652503-1.093033-.615061-2.247671-.92974337-3.412869-.92974337zm-163.3472683 3.07643094h-5.4634063c-.5086742 0-.9663048.13230964-1.3341695.31289441-.59668.19310054-.864218.53817837-.864218 1.02629364v6.71739584c0 .4755995.267538.7956458.864218 1.0549012.3678647.1805847.8254953.2413757 1.3341695.2413757h5.4634063c.5157146 0 .9522239-.060791 1.3324094-.2413757.5913996-.2592554.8976602-.5793017.8976602-1.0549012v-6.71739584c0-.48811527-.3062606-.8331931-.8976602-1.02629364-.3801855-.18058477-.8166948-.31289441-1.3324094-.31289441zm162.7593893-.41414655c1.075432 0 1.832283.07867059 2.311035.24852756.475232.16270509.846617.45235591 1.135276.87968027.260497.41659655.415388.85643668.415388 1.34633992 0 .65797223-.244657 1.24263778-.704047 1.7504207-.466432.4809634-1.098314.75988641-1.872766.81352545.318581.13946151.582599.31468237.763891.50063105.366105.36295751.806134.96013879 1.33241 1.81657549l1.101833 1.7861801h-1.781239l-.793813-1.4482541c-.623082-1.1282078-1.149357-1.83981912-1.522502-2.13662181-.264018-.20382836-.651244-.31825831-1.156398-.31825831h-.869498v3.90313422h-1.434496v-9.14188054zm-61.163088 3.68523406c.575558 0 1.117674.0893984 1.619308.32004627.74277.22885991 1.108874.62757678 1.108874 1.0906605 0 .20025242-.068644.37547329-.230575.58645351-.14609.18058477-.366105.3200463-.630122.4165966-.248177.1430374-.538596.2163441-.860698.3128944-.329142.0858224-.660044.1269457-1.006787.1269457h-6.778215c-.586119 0-1.108874-.0911864-1.617548-.2968027-.73925-.2753471-1.110635-.65082037-1.110635-1.14608751 0-.46308372.371385-.86180059 1.110635-1.0906605.508674-.23064787 1.031429-.32004627 1.617548-.32004627zm61.178929-2.44259628h-1.656271v2.74631889h1.770679c.839576 0 1.416895-.13230963 1.737236-.38620109.285139-.22885991.44355-.59181742.44355-1.00841397 0-.26461927-.059844-.51851073-.214735-.71697518-.16017-.2181321-.355543-.38083719-.60724-.48990324-.260498-.11442995-.755091-.14482541-1.473219-.14482541z" fill-rule="evenodd" transform="translate(-5)"/></svg>