<svg height="12" viewBox="0 0 147 12" width="147" xmlns="http://www.w3.org/2000/svg"><path d="m144.192833 0c.974176 0 1.93124.24708725 2.852858.75864477.927729.51652409 1.662333 1.24412775 2.175701 2.19646905.515813.94240815.778608 1.93572372.778608 2.95014725 0 1.01814846-.251795 1.994081-.756606 2.94642231-.523146.92130019-1.234528 1.66256192-2.156145 2.18281092-.926506.5078326-1.886015.7710613-2.894416.7710613-1.007179 0-1.972799-.2632287-2.893194-.7710613-.915506-.520249-1.632999-1.26151073-2.143922-2.18281092-.519479-.95234131-.776163-1.92827385-.776163-2.94642231 0-1.01442353.256684-2.0077391.777386-2.95014725.515812-.9523413 1.250417-1.67994496 2.181813-2.19646905.924061-.51155752 1.884793-.75864477 2.85408-.75864477zm-42.897284 1.23808061c.399693 0 .768829.05463235 1.125742.15148062.507256.21852943.772496.50783259.772496.78844424 0 .36380182-.26524.61585565-.772496.83811001-.356913.14154747-.726049.18748831-1.125742.18748831h-3.8245901c-1.0902954 0-2.0681387.20238805-2.9078617.61213072-1.133076.57488139-1.7124481 1.45520731-1.7124481 2.60745338 0 1.16838744.5805944 2.00649745 1.7246712 2.56399581.8433898.44078379 1.8200109.62082223 2.8956386.62082223h3.8392571c.399694 0 .776163.10057321 1.12452.19617983.515813.21356284.770052.46934164.770052.79713574 0 .129131-.04767.2681952-.160122.4060177-.101451.1216812-.254239.206113-.437585.3017196-.172345.0670488-.374025.1589305-.597707.206113-.228571.0583573-.458364.0881568-.699158.0881568h-5.5052577c-1.8493463 0-3.4652324-.3439355-4.8757714-1.0020071-1.9996897-.9523413-2.9824222-2.3429831-2.9824222-4.19551664s.9827325-3.24814191 2.9824222-4.16199224c1.4337628-.6729713 3.0533158-1.00573201 4.8757714-1.00573201zm-84.4647643.00074498c.3862481 0 .7602732.05463236 1.117186.15023898.5072562.21852943.7614955.50783259.7614955.78844424 0 .36504347-.2542393.61585565-.7614955.83811001-.3569128.14278911-.7309379.18872996-1.117186.18872996h-3.8307013c-1.0866285 0-2.0583603.2011464-2.9286409.62082223-1.12451982.58605619-1.6733344 1.45396567-1.6733344 2.63104462 0 1.03553148.44491872 1.81900914 1.32620004 2.38395737.71627026.44450872 1.52054636.71270392 2.43482996.76733628.964398-.00744987 1.4410966-.32282756 1.4410966-.88777579v-1.82397572c0-.51031588.3410229-.90019224 1.0291801-1.16466251.4314734-.19742147.9423966-.28433658 1.5327695-.28433658.5879283 0 1.0976292.08691511 1.538881.28433658.6906018.26447027 1.0377362.65434663 1.0377362 1.16466251v1.66380358c0 1.06905588-.6747119 1.88233305-1.9984673 2.44852285-.9863995.3675268-1.9972451.5947477-3.0533159.5947477h-2.3492686c-1.84201244 0-3.47623314-.3439355-4.87821604-1.0020071-1.99235583-.95109961-2.98731144-2.34174141-2.98731144-4.19551659 0-1.8512919.99495561-3.24690028 2.98731144-4.1607506 1.43742972-.67421294 3.05942737-1.00573202 4.87821604-1.00573202zm15.5606657-.00012416c1.0462923 0 2.0669163.19742147 3.0472043.62082223 1.3323116.56494823 2.000912 1.37822536 2.000912 2.43858973v4.25014899c0 1.05167286-.6686004 1.87239982-2.000912 2.43858972-.980288.3886347-2.000912.6158557-3.0472043.6158557h-7.060029c-1.020624 0-2.0314696-.227221-3.0569828-.6158557-1.3200885-.5910228-1.9703543-1.38691686-1.9703543-2.43858972v-4.25014899c0-1.06036437.6502658-1.8736415 1.9703543-2.43858973 1.0255132-.42340076 2.0363588-.62082223 3.0569828-.62082223zm9.2237518.00012416c.5842614 0 1.0902954.09188169 1.5364364.26819521.683268.2681952 1.0145125.63696361 1.0145125 1.16093757v3.72120846c0 1.21929486.5317023 2.10458736 1.5608824 2.64842764.7346048.38987636 1.679446.56991481 2.8381903.56991481h3.8429244c.418028 0 .7810524.1005732 1.0976291.19742147.5194793.21356285.771274.46934165.771274.79589405 0 .3526271-.2615731.6034393-.7822747.7884443-.3642466.1378225-.7223818.2135628-1.1110745.2135628h-5.4832566c-1.8346786 0-3.4652323-.3439355-4.8464361-1.0020071-2.0094681-.95109961-3.0019791-2.34174141-3.0019791-4.19551659v-3.73734984c0-.52397396.3398006-.89274237 1.0108456-1.16093757.4449187-.17631352.9448411-.26819521 1.5523263-.26819521zm22.4808631 0c1.7430058 0 3.3466688.33151908 4.8452138 1.01814846 1.9996896.96848269 3.0032014 2.35167462 3.0032014 4.16571718 0 1.83639216-1.0035118 3.205926-3.0154245 4.17813357-1.4435412.6580716-3.0508712 1.0020071-4.8684375 1.0020071h-2.0950294c-.3984712 0-.7761632-.0757403-1.1184083-.2135628-.518257-.185005-.7786078-.4358172-.7786078-.7884443 0-.3265524.2603508-.5823312.7786078-.79589405.3422451-.09684827.7199371-.19742147 1.1184083-.19742147h.4326957c1.101296 0 2.0559156-.18003845 2.9139732-.61958059 1.1440767-.55749836 1.7063366-1.42913278 1.7063366-2.58262048 0-1.22674473-.5561484-2.10707066-1.6549999-2.65587751-.836056-.41967583-1.8126771-.63696361-2.9151955-.63696361h-1.2773078c-.3471344 0-.6600443.09188169-.9191728.21728778-.4168057.1340976-.6197082.37373498-.6197082.71270392v6.10144091c0 .502866-.3508013.8927424-1.0352917 1.1485211-.5634822.1837634-1.0621823.3104111-1.535214.3104111-.4718094 0-.9912887-.1266477-1.5266579-.3104111-.6734896-.2557787-1.0255133-.6456551-1.0255133-1.1485211v-5.84566215c0-1.06036437.6686004-1.87364149 1.9776882-2.43858972 1.0194017-.42340077 2.0314696-.62082224 3.0643166-.62082224zm22.0232324-.0464375c.7529393 0 1.535214.23094587 2.3223779.70525406.0378914.01241644.0476699.10429813.0476699.28061165 0 .38490978-.2456832.66179649-.767607.80831054-.1527881.02855782-.3642467.04594085-.6282644.05463236-.2762407.0335244-.6099298.04594084-.9741764.04594084h-3.636355l.0293353 7.05750716c0 .5227323-.3483567.9088837-1.0401809 1.1646625-.4265841.206113-.948508.2930281-1.535214.2930281-.5842614 0-1.0964069-.0869151-1.5266579-.2930281-.7126034-.2557788-1.0291802-.6419302-1.0291802-1.1646625l-.0256684-7.05750716h-3.6229096c-.3886927 0-.7309379-.01241644-.9790656-.04594084-.2872415-.00869151-.4828102-.02607454-.6294867-.05463236-.5097008-.14651405-.7810524-.42340076-.7810524-.80831054 0-.64565513.7969424-.98586571 2.3896047-.98586571zm49.1630303 0c.771274 0 1.547437.23094587 2.343157.70525406.033002.01241644.05867.10429813.05867.28061165 0 .38490978-.266462.66179649-.79083.80831054-.135676.02855782-.359358.04594085-.617264.05463236-.276241.0335244-.608707.04594084-.993733.04594084h-3.611909l.022001 7.05750716c0 .5227323-.348356.9088837-1.038958 1.1646625-.438807.206113-.955842.2930281-1.54866.2930281-.570816 0-1.091517-.0869151-1.526658-.2930281-.682045-.2557788-1.035291-.6419302-1.035291-1.1646625l-.020779-7.05750716h-3.614354c-.383803 0-.710159-.01241644-.979065-.04594084-.264018-.00869151-.475477-.02607454-.627043-.05463236-.503589-.14651405-.771273-.42340076-.771273-.80831054 0-.64565513.787163-.98586571 2.377381-.98586571zm-17.466238-.0335244c.393582 0 .774941.07201538 1.129409.2011464.501145.19742147.765162.44450872.765162.7847193 0 .30916948-.264017.56991481-.765162.74126175-.354468.12913102-.735827.2011464-1.129409.2011464h-3.811145c-1.741783 0-2.899305.07077374-3.468899.15148063-.768829.13782253-1.148966.46437503-1.148966.96724103 0 .55749837.518257.91385033 1.569439 1.06408931.130786 0 .386248.00869151.699158.02979947.338578 0 .760273.01614137 1.263862.01614137 1.773564 0 3.111987.10553978 4.003046.33648565 1.859125.46809997 2.813745 1.36084233 2.813745 2.65215258 0 2.04498842-2.63651 3.07182842-7.877751 3.07182842h-5.534593c-.404583 0-.755384-.0670488-1.095185-.171347-.502367-.1974214-.762717-.4743081-.762717-.8095521 0-.3439356.251794-.6158557.74805-.79589415.356912-.12540609.718715-.17134693 1.109852-.17134693h3.85148c.888616 0 1.636666 0 2.208704-.04221592.564705-.04221591.990066-.07574031 1.229638-.10926471.790831-.1340976 1.169745-.44823365 1.169745-.93868321 0-.7288453-1.021846-1.09761371-3.093652-1.09761371-4.818323 0-7.223817-1.02683997-7.223817-3.05196209 0-1.39436673 1.111074-2.29083403 3.343001-2.75272577.50359-.07574032 1.135521-.14278912 1.883571-.19742147.750495-.05463236 1.631776-.07946525 2.640177-.07946525zm26.376743-.18293114c-.818944 0-1.613442.21852942-2.383493.64565512-.781053.42340076-1.377537 1.03180655-1.818789 1.82397572-.425362.77478614-.651488 1.60544629-.651488 2.45969768 0 .84680152.224904 1.65138713.63682 2.44231466.431474.77602779 1.03407 1.39560837 1.809011 1.82397567.76394.4358172 1.576772.653105 2.407939.653105.84339 0 1.635443-.2172878 2.404272-.653105.771274-.4283673 1.370203-1.04794788 1.790676-1.82397567.431473-.79092753.644154-1.59551314.644154-2.44231466 0-.85425139-.231015-1.68491154-.650266-2.45969768-.430251-.79216917-1.032847-1.40057496-1.818788-1.82397572-.759051-.4271257-1.560883-.64565512-2.370048-.64565512zm-113.4356033 2.13641038h-3.7940322c-.3532459 0-.671045.09188169-.9265066.21728778-.4143611.1340976-.6001514.37373498-.6001514.71270392v4.66485825c0 .33027742.1857903.55253178.6001514.73257023.2554616.12540609.5732607.167622.9265066.167622h3.7940322c.3581351 0 .6612665-.04221591.9252842-.167622.4106942-.18003845.6233752-.40229281.6233752-.73257023v-4.66485825c0-.33896894-.212681-.57860632-.6233752-.71270392-.2640177-.12540609-.5671491-.21728778-.9252842-.21728778zm113.0273533-.28760178c.746828 0 1.272419.05463236 1.604886.17258858.330022.11298965.587928.31413605.788386.61088908.180901.28930316.288464.5947477.288464.93495828 0 .45692516-.169901.8629429-.488922 1.21556993-.323911.33400236-.762718.5276989-1.300532.56494823.221237.09684827.404583.21852943.53048.34766045.25424.25205383.559816.66676308.925285 1.26151078l.765162 1.24040281h-1.236972l-.551259-1.00573201c-.432696-.78347766-.798165-1.27765215-1.057293-1.48376513-.183346-.14154747-.452253-.22101272-.803054-.22101272h-.603818v2.71050986h-.996178v-6.34852814zm-42.474367 2.55919032c.399694 0 .776163.06208222 1.12452.22225436.515813.15893049.770052.43581721.770052.75740312 0 .13906418-.04767.26074534-.160122.40725939-.101451.12540609-.254239.22225435-.437585.28930316-.172345.09933155-.374025.15023898-.597707.21728778-.228571.05959893-.458364.08815675-.699158.08815675h-4.7070931c-.4070273 0-.7700516-.06332386-1.1232975-.20611298-.5133678-.19121324-.771274-.45195858-.771274-.7958941 0-.32158591.2579062-.59847263.771274-.75740312.3532459-.16017214.7162702-.22225436 1.1232975-.22225436zm42.485368-1.69624741h-1.150188v1.90716589h1.229638c.583039 0 .983955-.09188169 1.206414-.2681952.198013-.15893049.308021-.41098432.308021-.70028748 0-.18376338-.041559-.36007689-.149122-.49789943-.111229-.15148062-.246905-.26447027-.421694-.34021058-.180901-.07946525-.524369-.1005732-1.023069-.1005732z" fill-rule="evenodd" transform="translate(-3)"/></svg>