<svg xmlns="http://www.w3.org/2000/svg" xmlns:xlink="http://www.w3.org/1999/xlink" width="117" height="82" viewBox="0 0 117 82">
  <defs>
    <polygon id="goldtest-logo-a" points=".413 .091 8.787 .091 8.787 6.198 .413 6.198"/>
    <polygon id="goldtest-logo-c" points="0 .184 116.471 .184 116.471 60.705 0 60.705"/>
  </defs>
  <g fill="none" fill-rule="evenodd" transform="translate(.304 -.346)">
    <path fill="#1D1D1B" d="M108.152377 57.1780082L109.180751 57.1780082C109.667116 57.1780082 109.998916 57.1005274 110.188516 56.9600289 110.352355 56.8277951 110.447155 56.6160143 110.447155 56.3794397 110.447155 56.2275774 110.41212 56.0829466 110.320412 55.9713743 110.227673 55.8443058 110.114325 55.752362 109.970064 55.6872781 109.816529 55.6201281 109.532129 55.6077312 109.115833 55.6077312L108.152377 55.6077312 108.152377 57.1780082zM107.318755 60.129509L107.318755 54.893875 109.103468 54.893875C109.726881 54.893875 110.168938 54.9362312 110.447155 55.0354066 110.724342 55.1252843 110.935581 55.2916097 111.104573 55.5385151 111.256047 55.779222 111.345694 56.0312928 111.345694 56.3091905 111.345694 56.6872966 111.201433 57.0209805 110.935581 57.3154074 110.664577 57.5860736 110.297742 57.7513659 109.850533 57.7782259 110.034981 57.8577728 110.188516 57.9590144 110.29259 58.0643882 110.50589 58.2710036 110.761438 58.6170844 111.067477 59.1067629L111.707377 60.129509 110.669729 60.129509 110.211186 59.3009813C109.850533 58.6542751 109.545525 58.2431105 109.329133 58.0788513 109.175599 57.9590144 108.946842 57.8949636 108.659351 57.8949636L108.152377 57.8949636 108.152377 60.129509 107.318755 60.129509zM109.448664 53.3680204C108.761364 53.3680204 108.097764 53.5498419 107.452712 53.9031543 106.801477 54.249235 106.300685 54.7513104 105.930759 55.4062812 105.580412 56.0457558 105.391842 56.7306859 105.391842 57.4362774 105.391842 58.128439 105.57629 58.7989059 105.921485 59.4507775 106.284199 60.0871529 106.787051 60.6005921 107.433133 60.9559706 108.073033 61.3123821 108.748999 61.4911045 109.448664 61.4911045 110.148329 61.4911045 110.81399 61.3123821 111.456981 60.9559706 112.099973 60.6005921 112.600764 60.0871529 112.951112 59.4507775 113.313825 58.7989059 113.484877 58.128439 113.484877 57.4362774 113.484877 56.7306859 113.296307 56.0457558 112.94596 55.4062812 112.586338 54.7513104 112.084516 54.249235 111.427099 53.9031543 110.78926 53.5498419 110.121538 53.3680204 109.448664 53.3680204L109.448664 53.3680204zM109.448664 52.5611873C110.257555 52.5611873 111.057173 52.7678027 111.83206 53.1861988 112.603855 53.6149258 113.216964 54.2192758 113.643564 55.0013151 114.078407 55.779222 114.29686 56.598452 114.29686 57.4362774 114.29686 58.2710036 114.08562 59.0768036 113.664173 59.8640083 113.23242 60.6274521 112.633738 61.2369675 111.864003 61.6625952 111.090146 62.0830576 110.287438 62.3020699 109.448664 62.3020699 108.604738 62.3020699 107.797907 62.0830576 107.031264 61.6625952 106.261529 61.2369675 105.660785 60.6274521 105.233155 59.8640083 104.801403 59.0768036 104.588103 58.2710036 104.588103 57.4362774 104.588103 56.598452 104.801403 55.779222 105.238307 55.0013151 105.670059 54.2192758 106.284199 53.6149258 107.055994 53.1861988 107.829851 52.7678027 108.63462 52.5611873 109.448664 52.5611873L109.448664 52.5611873zM8.34765544 77.2993513C8.20339457 77.2249697 8.04882935 77.1681505 7.8757163 77.1681505L6.02402495 77.1681505C5.83545538 77.1681505 5.67676842 77.2249697 5.56135972 77.2993513 5.35630319 77.3861297 5.25944232 77.5483228 5.25944232 77.7353097L5.25944232 80.4925921C5.25944232 80.6589175 5.35630319 80.785986 5.56135972 80.9037568 5.67676842 80.9802044 5.83545538 81.0153291 6.02402495 81.0153291L7.8757163 81.0153291C8.04882935 81.0153291 8.20339457 80.9802044 8.34765544 80.9037568 8.54034675 80.785986 8.63823806 80.6589175 8.63823806 80.4925921L8.63823806 77.7353097C8.63823806 77.5483228 8.54034675 77.3861297 8.34765544 77.2993513L8.34765544 77.2993513zM5.21925536 82.1579122C4.70300752 82.1579122 4.20633794 82.0329099 3.71585097 81.7963352 3.0625553 81.4636845 2.73796834 80.9802044 2.73796834 80.3582921L2.73796834 77.8747751C2.73796834 77.269392 3.0625553 76.7838459 3.71585097 76.4532612 4.20633794 76.2125543 4.70300752 76.0803205 5.21925536 76.0803205L8.69182067 76.0803205C9.2018859 76.0803205 9.69752505 76.2125543 10.1849207 76.4532612 10.8351251 76.7838459 11.1669251 77.269392 11.1669251 77.8747751L11.1669251 80.3582921C11.1669251 81.0153291 10.8351251 81.4657506 10.1849207 81.7963352 9.69752505 82.0329099 9.2018859 82.1579122 8.69182067 82.1579122L5.21925536 82.1579122zM16.23584 79.673672C16.0256313 79.673672 15.8442748 79.6519774 15.6876487 79.5641659 15.437253 79.4525936 15.3032965 79.3100289 15.3032965 79.1209759 15.3032965 78.9195259 15.437253 78.7779943 15.6876487 78.652992 15.8587009 78.5806766 16.0472704 78.5434858 16.23584 78.5434858L18.567714 78.5434858C18.7686488 78.5434858 18.9366096 78.5806766 19.1148749 78.652992 19.3693923 78.7779943 19.4878923 78.9195259 19.4878923 79.1209759 19.4878923 79.1860597 19.4631618 79.2449451 19.413701 79.3348228 19.3590879 79.4247005 19.2890184 79.4773874 19.1983401 79.5176774 19.1148749 79.5641659 19.0159531 79.606522 18.9026053 79.6385474 18.7861662 79.673672 18.6831227 79.673672 18.567714 79.673672L16.23584 79.673672zM16.6727444 77.269702C16.1266139 77.269702 15.6649791 77.3761089 15.2826878 77.6106174 14.7365574 77.9195074 14.4841008 78.4143512 14.4841008 79.0713882L14.4841008 81.3214298C14.4841008 81.6127575 14.3151095 81.8338359 13.9730052 81.996029 13.7679486 82.1107006 13.5082791 82.157189 13.2280008 82.157189 12.9219617 82.157189 12.6767182 82.1107006 12.4634182 81.996029 12.1305877 81.8338359 11.9636573 81.6127575 11.9636573 81.3214298L11.9636573 79.0641566C11.9636573 78.0145504 12.4572356 77.1798243 13.4413008 76.6777489 14.1636356 76.3120396 14.9725269 76.1054242 15.849427 76.1054242L18.5543183 76.1054242C18.7531922 76.1054242 18.9324879 76.1570781 19.1086923 76.2118312 19.3539357 76.3213373 19.4878923 76.4835304 19.4878923 76.6777489 19.4878923 76.8440743 19.3786662 76.9856058 19.1931879 77.0930458 19.0066792 77.2056512 18.7861662 77.269702 18.5543183 77.269702L16.6727444 77.269702zM25.9520159 76.2269141C26.2003507 76.1752602 26.5239072 76.105011 26.8824986 76.0802172 27.2534551 76.0502579 27.6903594 76.0502579 28.1787855 76.0502579L30.8919204 76.0502579C31.0815204 76.0502579 31.2669987 76.0802172 31.4328987 76.1566649 31.6915378 76.2641049 31.8182813 76.4355956 31.8182813 76.615351 31.8182813 76.7992387 31.6915378 76.9758949 31.4328987 77.0833349 31.2669987 77.1432533 31.0815204 77.1680472 30.8919204 77.1680472L28.9959204 77.1680472C28.1468421 77.1680472 27.5811334 77.205238 27.2843681 77.2816857 26.9195942 77.339538 26.7341159 77.5482195 26.7341159 77.8374811 26.7341159 78.1680657 26.9845116 78.3622841 27.5038507 78.454228 27.5811334 78.454228 27.6903594 78.4717903 27.8562595 78.4717903L28.471429 78.4717903C29.3431769 78.4717903 30.0036856 78.5441057 30.4395595 78.6536118 31.3638595 78.9325426 31.8254943 79.4645773 31.8254943 80.2435173 31.8254943 81.4460188 30.5395117 82.0328066 27.9376638 82.0328066L25.2379246 82.0328066C25.0246246 82.0328066 24.8350246 81.9956158 24.693855 81.9387966 24.4352159 81.8261912 24.3084724 81.6526342 24.3084724 81.4656473 24.3084724 81.2662635 24.4321246 81.1102688 24.6907637 81.0152258 24.8401768 80.9408442 25.0246246 80.9036534 25.2379246 80.9036534L27.1339247 80.9036534C27.570829 80.9036534 27.9273595 80.9036534 28.2014551 80.8933227 28.5013116 80.8540658 28.7022464 80.8334042 28.8094117 80.8137758 29.198916 80.736295 29.3874856 80.5472419 29.3874856 80.2507488 29.3874856 79.823055 28.8763899 79.6061088 27.8706855 79.6061088 25.4955333 79.6061088 24.3084724 79.0348172 24.3084724 77.8374811 24.3084724 77.0006887 24.8700594 76.4727864 25.9520159 76.2269141M41.382365 81.7347639C41.1989476 82.0333231 40.860965 82.1872516 40.3642954 82.1872516 39.9624259 82.1872516 39.604865 82.0529516 39.2823389 81.8091454 39.2524563 81.7833185 39.232878 81.7667892 39.2174215 81.7347639 39.1926911 81.7192677 39.1772345 81.7192677 39.1576563 81.6893085L37.1225475 78.7057822C37.0679345 78.6231361 37.035991 78.5435892 37.035991 78.4444138 37.035991 78.232633 37.1575823 78.0787045 37.3883997 77.9537022 37.5666649 77.8741553 37.7490519 77.8379976 37.9170128 77.8379976 38.2395389 77.8379976 38.4703563 77.9320076 38.5919476 78.1479207L39.7697346 80.00436 41.794539 76.5456183C41.9779564 76.2294968 42.3107868 76.0797006 42.8270346 76.0797006 43.2938216 76.0797006 43.6812651 76.2263975 43.9388738 76.4836337 44.0831347 76.6251653 44.1552651 76.8142183 44.1552651 77.0001722 44.1552651 77.1303399 44.1181695 77.2439783 44.038826 77.386543L41.382365 81.7347639zM36.3177779 82.1872516C35.8200779 82.1872516 35.479004 82.0333231 35.305891 81.7347639L32.6453083 77.386543C32.5721474 77.2698053 32.5257778 77.1427368 32.5257778 77.0001722 32.5257778 76.6954145 32.7040431 76.4536745 33.0471779 76.2821837 33.3243648 76.1571814 33.583004 76.0797006 33.8612214 76.0797006 34.3424344 76.0797006 34.680417 76.2294968 34.8689866 76.5456183L37.550178 80.9031369C37.6140649 81.0002461 37.6439475 81.1097523 37.6439475 81.26678 37.6439475 81.6056292 37.4203432 81.8618323 37.0081693 82.0529516 36.7701388 82.1221677 36.5444736 82.1872516 36.3177779 82.1872516L36.3177779 82.1872516zM45.2797786 81.9860082C44.934583 81.8269143 44.7738351 81.5903397 44.7738351 81.3041774L44.7738351 76.9187657C44.7738351 76.6253719 44.934583 76.4063596 45.2797786 76.2297034 45.5476917 76.1057342 45.811483 76.0623449 46.0392091 76.0623449 46.2659047 76.0623449 46.5163004 76.1057342 46.7893656 76.2297034 47.1294091 76.4063596 47.3004613 76.6253719 47.3004613 76.9187657L47.3004613 81.3041774C47.3004613 81.5903397 47.1294091 81.8269143 46.7893656 81.9860082 46.5307265 82.0975805 46.2803308 82.1574989 46.0392091 82.1574989 45.811483 82.1574989 45.5476917 82.0975805 45.2797786 81.9860082M50.8550492 77.167634L49.0682752 77.167634 48.5891231 77.167634C48.4448622 77.155237 48.34491 77.1428401 48.27381 77.1304432 48.020323 77.033334 47.8935796 76.8742401 47.8935796 76.6645255 47.8935796 76.2636916 48.2789622 76.0622416 49.0682752 76.0622416L55.1694798 76.0622416C55.5352841 76.0622416 55.9196363 76.2120378 56.3132624 76.4827039 56.3287189 76.5002662 56.3513885 76.5446886 56.3513885 76.6645255 56.3513885 76.8742401 56.217432 77.033334 55.9484885 77.1304432 55.8773885 77.1428401 55.7805276 77.155237 55.6455406 77.167634L55.1694798 77.167634 53.3888884 77.167634 53.3888884 81.2916771C53.3888884 81.5871372 53.2178362 81.826811 52.880884 81.9859049 52.667584 82.0726833 52.4058536 82.122271 52.1214536 82.122271 51.838084 82.122271 51.5753231 82.0726833 51.3764492 81.9859049 51.0188883 81.826811 50.8622623 81.5871372 50.8622623 81.2916771L50.8550492 77.167634zM56.8772194 81.2313455C56.8772194 81.0918801 56.9266802 80.9575801 57.0214802 80.8532393L60.1735803 77.1672207 57.9643281 77.1672207C57.5356672 77.1672207 57.2821803 77.1672207 57.1647107 77.1424269 56.9122542 77.0463507 56.7855107 76.9079184 56.7855107 76.6775423 56.7855107 76.2643115 57.1781063 76.0628615 57.9643281 76.0628615L61.6759543 76.0628615C61.9706586 76.0628615 62.248876 76.1052176 62.5291543 76.2291869 62.9248413 76.405843 63.1278369 76.6651453 63.1278369 77.0008953 63.1278369 77.1424269 63.0732239 77.2818923 62.9784239 77.386233L59.8345673 81.0402262 62.32925 81.0402262C62.715663 81.0402262 63.1051674 81.1621293 63.4761239 81.4462255 63.4853978 81.4462255 63.4957022 81.5175078 63.4957022 81.6125508 63.4957022 81.8522247 63.3761717 81.9958224 63.1154717 82.098097 63.0433413 82.1104939 62.9495717 82.1228909 62.8125239 82.1228909 62.6754761 82.1569824 62.5126674 82.1569824 62.32925 82.1569824L58.1982368 82.1569824C57.9869977 82.1569824 57.7716368 82.1104939 57.5521542 82.0330132 57.1008237 81.8522247 56.8772194 81.587757 56.8772194 81.2313455M67.6856562 79.673672C67.4939953 79.673672 67.3033649 79.6240843 67.1343736 79.5641659 66.8860388 79.4401966 66.7541431 79.297632 66.7541431 79.0941159 66.7541431 78.9091951 66.8860388 78.7387374 67.1343736 78.6230328 67.3033649 78.558982 67.4939953 78.518692 67.6856562 78.518692L70.0113476 78.518692C70.2050693 78.518692 70.3812737 78.558982 70.557478 78.6230328 70.8078737 78.7387374 70.9418302 78.9091951 70.9418302 79.0941159 70.9418302 79.1736628 70.9170998 79.2335812 70.858365 79.3100289 70.8058128 79.3947413 70.7336824 79.4525936 70.6491867 79.4918505 70.557478 79.539372 70.4688606 79.5817282 70.3616954 79.606522 70.2370128 79.6385474 70.1277867 79.673672 70.0113476 79.673672L67.6856562 79.673672zM67.2930605 82.157189C66.384217 82.157189 65.5897518 81.9536729 64.9003909 81.5776328 63.9225083 81.0249367 63.4258387 80.2160374 63.4258387 79.1209759 63.4258387 78.0383112 63.9225083 77.2056512 64.9003909 76.6777489 65.6000561 76.2820804 66.4068866 76.0795973 67.2930605 76.0795973L70.0082562 76.0795973C70.1927041 76.0795973 70.3761215 76.129185 70.5554171 76.2118312 70.8058128 76.3213373 70.9325563 76.4835304 70.9325563 76.6643189 70.9325563 76.8440743 70.8058128 77.001102 70.5554171 77.1302366 70.3761215 77.1798243 70.1927041 77.2242466 70.0082562 77.2242466L68.1215301 77.2242466C67.585704 77.2242466 67.0993388 77.3399512 66.6820127 77.5961543 66.1266083 77.9319043 65.8432387 78.4546412 65.8432387 79.1333728 65.8432387 79.8162366 66.1317605 80.3110805 66.6995301 80.6592274 67.1096431 80.9030336 67.5908562 81.0146059 68.1215301 81.0146059L70.0113476 81.0146059C70.2050693 81.0146059 70.3812737 81.0517967 70.557478 81.1272113 70.8078737 81.2315521 70.9418302 81.3958113 70.9418302 81.5776328 70.9418302 81.6530475 70.9170998 81.7346605 70.858365 81.8266044 70.8058128 81.8906552 70.7336824 81.9381767 70.6491867 81.996029 70.557478 82.0332198 70.4688606 82.0724767 70.3616954 82.1107006 70.2370128 82.1230975 70.1277867 82.157189 70.0113476 82.157189L67.2930605 82.157189z"/>
    <g transform="translate(71.1 75.99)">
      <mask id="goldtest-logo-b" fill="#fff">
        <use xlink:href="#goldtest-logo-a"/>
      </mask>
      <path fill="#1D1D1B" d="M4.01251315,2.89819408 C4.23611751,2.80108485 4.41438273,2.75872869 4.5586436,2.75872869 L5.58598711,2.75872869 C5.76013059,2.75872869 5.90954364,2.71637254 6.04350016,2.65438792 C6.25680017,2.56967561 6.34129582,2.41574714 6.34129582,2.23082637 L6.34129582,1.59651712 C6.34129582,1.33514865 6.09296104,1.17812096 5.58598711,1.17812096 L3.71986967,1.17812096 C3.21392617,1.17812096 2.96043921,1.33514865 2.96043921,1.59651712 L2.96043921,1.68329558 L2.94292182,5.33212338 C2.94292182,5.62345108 2.77599138,5.84452954 2.42667398,6.00672262 C2.22573919,6.12139417 1.96194788,6.16891571 1.67857831,6.16891571 C1.38593482,6.16891571 1.14069134,6.12139417 0.919147851,6.00672262 C0.587347842,5.84452954 0.413204359,5.62345108 0.413204359,5.33212338 L0.413204359,1.88577867 C0.413204359,1.8485879 0.416295663,1.80106636 0.425569577,1.76904097 C0.483273926,1.17812096 0.830530457,0.745261713 1.45600439,0.457033243 C1.91248701,0.223557852 2.40194354,0.0913240025 2.89552182,0.0913240025 L6.0682306,0.0913240025 C7.12545672,0.0913240025 7.89003934,0.333064009 8.36610023,0.81034556 C8.63504371,1.07378018 8.77106111,1.35064481 8.77106111,1.68329558 L8.77106111,2.1264856 C8.77106111,2.89819408 8.28675675,3.43642717 7.31917846,3.74944949 L8.44338284,4.63273028 C8.67420024,4.79698951 8.78651763,5.0263326 8.78651763,5.2773703 C8.78651763,5.57076415 8.59794806,5.80733877 8.2321437,5.99742493 C7.96010891,6.12139417 7.68189151,6.19887494 7.43767846,6.19887494 C7.15740019,6.19887494 6.91730888,6.12139417 6.70091757,5.94990339 L3.90843924,3.74944949 C3.72193054,3.63477794 3.64258706,3.5025441 3.64258706,3.34654948 C3.64258706,3.16989332 3.76005662,3.00770024 4.01251315,2.89819408" mask="url(#goldtest-logo-b)"/>
    </g>
    <path fill="#1D1D1B" d="M84.5705671 82.1574989C83.6565714 82.1574989 82.8621062 81.9529497 82.1778974 81.5769097 81.2041366 81.0252466 80.7033452 80.2163474 80.7033452 79.1212858L80.7033452 76.9383942C80.7033452 76.6253719 80.8692452 76.4063596 81.2041366 76.2297034 81.4009496 76.1563549 81.6750453 76.0799072 81.9491409 76.0799072 82.2469366 76.0799072 82.4952714 76.1563549 82.7240279 76.2297034 83.0506757 76.4063596 83.2248192 76.6253719 83.2248192 76.9187657L83.2248192 79.1212858C83.2248192 79.822745 83.4762453 80.3578789 83.994554 80.6595374 84.3572671 80.9033435 84.8085975 81.0149158 85.3846106 81.0149158L87.2806106 81.0149158C87.4743324 81.0149158 87.6587802 81.0521066 87.8174672 81.1275212 88.0750759 81.231862 88.2018194 81.3961212 88.2018194 81.5769097 88.2018194 81.7669959 88.0750759 81.9384866 87.7968585 82.0531582 87.6412628 82.1110105 87.4619672 82.1574989 87.2764889 82.1574989L84.5705671 82.1574989zM93.9436082 77.7351031C93.9436082 77.5481162 93.8395343 77.3869562 93.6355082 77.2991447 93.504643 77.2247631 93.3583212 77.1679439 93.1893299 77.1679439L89.8630864 77.1679439C89.2520385 77.1679439 88.9418776 77.0005854 88.9418776 76.6400416 88.9418776 76.4530546 89.0686211 76.3115231 89.3169559 76.2123477 89.473582 76.1297015 89.6497863 76.0801139 89.8445385 76.0801139L93.9837952 76.0801139C94.4845865 76.0801139 94.9915604 76.2123477 95.48823 76.4530546 96.1528604 76.7846723 96.476417 77.2691854 96.476417 77.8745685L96.476417 81.304384C96.476417 81.5895132 96.3063952 81.8260879 95.9642909 81.9862148 95.7056517 82.0977871 95.4531952 82.1577056 95.2079517 82.1577056 94.974043 82.1577056 94.7236474 82.0977871 94.4619169 81.9862148 94.1229039 81.8260879 93.9436082 81.5895132 93.9436082 81.304384L93.9436082 79.7258424C93.9436082 79.5646824 93.8395343 79.425217 93.6355082 79.3105455 93.504643 79.2155024 93.3583212 79.1958739 93.1893299 79.1958739L91.3129081 79.1958739C91.1439168 79.1958739 90.9893516 79.2155024 90.8605473 79.3105455 90.6616733 79.425217 90.5679038 79.5646824 90.5679038 79.7258424L90.5679038 80.4923855C90.5679038 80.659744 90.6616733 80.7857794 90.8605473 80.9035501 90.9893516 80.9810309 91.1439168 81.0151224 91.3129081 81.0151224L92.2361777 81.0151224C92.4391734 81.0151224 92.6153777 81.0523132 92.7823082 81.1277278 93.0502212 81.2310355 93.1645995 81.3963278 93.1645995 81.5771163 93.1645995 81.7661694 93.0502212 81.9386932 92.7823082 82.0533648 92.627743 82.110184 92.4412342 82.1577056 92.2361777 82.1577056L90.5040168 82.1577056C90.0094081 82.1577056 89.5096472 82.0327032 89.0088559 81.7961286 88.3679254 81.4634778 88.0361254 81.0006594 88.0361254 80.3580855L88.0361254 79.8828701C88.0361254 79.2826524 88.3679254 78.7898747 89.0088559 78.471687 89.473582 78.2330462 89.964069 78.1152754 90.5040168 78.1152754L93.9436082 78.1152754 93.9436082 77.7351031zM105.233155 81.2913672C105.233155 81.5775295 105.062103 81.8089388 104.72412 81.9535696 104.454146 82.0723734 104.198598 82.1229942 103.967781 82.1229942 103.731812 82.1229942 103.475233 82.0723734 103.217625 81.9535696 102.870368 81.8089388 102.699316 81.5775295 102.699316 81.2913672L102.692103 77.7499794C102.692103 77.5733233 102.581846 77.4338579 102.378851 77.3243517 102.250046 77.2448048 102.09342 77.2055479 101.92752 77.2055479L100.598259 77.2055479C100.428238 77.2055479 100.263368 77.2448048 100.139716 77.3243517 99.9367201 77.4338579 99.8419201 77.5733233 99.8419201 77.7499794L99.8295549 81.2913672C99.8295549 81.5775295 99.6585027 81.8265011 99.3256723 81.9535696 99.045394 82.0723734 98.791907 82.1229942 98.5610896 82.1229942 98.3271809 82.1229942 98.0767853 82.0723734 97.80372 81.9535696 97.4760418 81.8089388 97.3080809 81.5775295 97.3080809 81.2913672L97.3101418 77.8543202C97.3101418 77.2241433 97.6398809 76.7468617 98.3055418 76.4359056 98.7898462 76.1993309 99.2854853 76.0619317 99.7893679 76.0619317L102.736411 76.0619317C103.227929 76.0619317 103.726659 76.1993309 104.221268 76.4359056 104.864259 76.7468617 105.192968 77.2241433 105.218729 77.8543202L105.233155 79.8233649 105.233155 81.2913672zM109.721626 82.1574989C109.523783 82.1574989 109.344487 82.1110105 109.170343 82.0531582 108.919948 81.9384866 108.793204 81.7669959 108.793204 81.5769097 108.793204 81.3961212 108.919948 81.231862 109.170343 81.1275212 109.344487 81.0521066 109.523783 81.0149158 109.721626 81.0149158L109.940078 81.0149158C110.481056 81.0149158 110.951965 80.9033435 111.379596 80.6595374 111.930878 80.3103574 112.206004 79.795885 112.206004 79.1212858 112.206004 78.399165 111.93603 77.8743619 111.391961 77.5582404 110.982878 77.298938 110.505787 77.1677373 109.955535 77.1677373L109.335213 77.1677373C109.161069 77.1677373 109.016809 77.2245565 108.882852 77.298938 108.675735 77.3867496 108.576813 77.5489427 108.576813 77.7348965L108.576813 81.3041774C108.576813 81.5903397 108.405761 81.8269143 108.068809 81.9860082 107.792652 82.0975805 107.542256 82.1574989 107.31453 82.1574989 107.07753 82.1574989 106.824043 82.0975805 106.564374 81.9860082 106.226391 81.8269143 106.048126 81.5903397 106.048126 81.3041774L106.048126 77.8743619C106.048126 77.2700119 106.375804 76.7844657 107.036313 76.4538811 107.537104 76.2121411 108.028622 76.0799072 108.539717 76.0799072L110.761335 76.0799072C111.62793 76.0799072 112.426517 76.2823903 113.165339 76.694588 114.147344 77.244185 114.638861 78.063415 114.638861 79.1336827 114.638861 80.2039504 114.147344 81.0149158 113.157096 81.5769097 112.443004 81.9529497 111.6506 82.1574989 110.757213 82.1574989L109.721626 82.1574989zM9.2533046 73.3924609C7.71383499 73.3924609 6.35160017 73.1083647 5.17999579 72.5680655 3.51172183 71.7849931 2.68016094 70.6351785 2.68016094 69.1062246 2.68016094 67.5762376 3.51172183 66.426423 5.17999579 65.674343 6.37839148 65.1195806 7.73444369 64.8437491 9.2533046 64.8437491L13.8459525 64.8437491C14.1664178 64.8437491 14.4837917 64.8933368 14.7815874 64.9677183 15.2030352 65.1495399 15.4163352 65.3861145 15.4163352 65.6175237 15.4163352 65.9191822 15.2030352 66.1247645 14.7815874 66.3096853 14.4837917 66.426423 14.1664178 66.4636137 13.8459525 66.4636137L10.6464525 66.4636137C9.73760896 66.4636137 8.92356546 66.6309722 8.19813935 66.9791191 7.25735237 67.4636322 6.79880888 68.1785215 6.79880888 69.1496138 6.79880888 70.0029354 7.17079585 70.6475754 7.90858717 71.1145262 8.50623936 71.4802354 9.17602199 71.6992477 9.94060462 71.7467693 10.7484655 71.742637 11.1472438 71.4802354 11.1472438 71.0153508L11.1472438 69.5122238C11.1472438 69.0865961 11.427522 68.7684084 12.0066264 68.5493961 12.368309 68.387203 12.7959395 68.3179869 13.2874569 68.3179869 13.7789743 68.3179869 14.2055743 68.387203 14.5734395 68.5493961 15.1484222 68.7684084 15.4390048 69.0865961 15.4390048 69.5122238L15.4390048 70.88415C15.4390048 71.7643316 14.8763874 72.4337654 13.7686699 72.8996832 12.9474134 73.2054739 12.1014264 73.3924609 11.2173133 73.3924609L9.2533046 73.3924609zM26.2600129 66.5680578C26.0364085 66.4637171 25.7829216 66.3862363 25.4861563 66.3862363L22.3124171 66.3862363C22.0197736 66.3862363 21.7549519 66.4637171 21.5385606 66.5680578 21.1933649 66.6827294 21.0377693 66.8800471 21.0377693 67.1600109L21.0377693 71.0082226C21.0377693 71.2747564 21.1933649 71.4586441 21.5385606 71.605341 21.7549519 71.7096818 22.0197736 71.7468726 22.3124171 71.7468726L25.4861563 71.7468726C25.7829216 71.7468726 26.0364085 71.7096818 26.2600129 71.605341 26.5979955 71.4586441 26.7762607 71.2747564 26.7762607 71.0082226L26.7762607 67.1600109C26.7762607 66.8800471 26.5979955 66.6827294 26.2600129 66.5680578L26.2600129 66.5680578zM20.9481214 73.3925642C20.0990432 73.3925642 19.2499649 73.2055772 18.3936735 72.8822242 17.2931692 72.3997772 16.7480692 71.7427403 16.7480692 70.8718564L16.7480692 67.3666263C16.7480692 66.4916101 17.2931692 65.8221763 18.3936735 65.3583247 19.2499649 65.0081116 20.0990432 64.8438524 20.9481214 64.8438524L26.8483912 64.8438524C27.7221999 64.8438524 28.5784912 65.0081116 29.3976869 65.3583247 30.509526 65.8221763 31.0700826 66.4916101 31.0700826 67.3666263L31.0700826 70.8718564C31.0700826 71.7427403 30.509526 72.4173395 29.3976869 72.8822242 28.5784912 73.2055772 27.7221999 73.3925642 26.8483912 73.3925642L20.9481214 73.3925642zM38.9743419 73.3924609C37.4410549 73.3924609 36.0798505 73.1083647 34.9237027 72.5680655 33.2451244 71.7849931 32.4135635 70.6351785 32.4135635 69.1062246L32.4135635 66.0204237C32.4135635 65.5927299 32.6989939 65.2869391 33.2605809 65.0648276 33.6294766 64.9212299 34.049894 64.8437491 34.5558375 64.8437491 35.0473549 64.8437491 35.4688027 64.9212299 35.8418201 65.0648276 36.412681 65.2869391 36.6908984 65.5927299 36.6908984 66.0204237L36.6908984 69.0917615C36.6908984 70.0990115 37.1329549 70.8242316 37.9964593 71.2746531 38.6075071 71.59594 39.3968202 71.7467693 40.3643985 71.7467693L43.5772942 71.7467693C43.9266116 71.7467693 44.2274986 71.8294154 44.4954116 71.9068962 44.932316 72.0856185 45.1404638 72.2973993 45.1404638 72.5680655 45.1404638 72.8542278 44.9220117 73.0608432 44.4799551 73.2158047 44.1780377 73.3294432 43.8802421 73.3924609 43.5566855 73.3924609L38.9743419 73.3924609zM51.5650188 73.3924609C51.2321883 73.3924609 50.9148144 73.3294432 50.629384 73.2158047 50.1945405 73.0608432 49.9812405 72.8542278 49.9812405 72.5680655 49.9812405 72.2973993 50.1945405 72.0856185 50.629384 71.9068962 50.9148144 71.8294154 51.2321883 71.7467693 51.5650188 71.7467693L51.9277318 71.7467693C52.8458493 71.7467693 53.6454667 71.59594 54.3626493 71.2343631 55.3188928 70.77671 55.7846493 70.0597546 55.7846493 69.1062246 55.7846493 68.091743 55.3209537 67.366523 54.4048971 66.9161015 53.7052319 66.5679545 52.8880971 66.386133 51.9668884 66.386133L50.8993579 66.386133C50.6118666 66.386133 50.3480753 66.4636137 50.1296231 66.5679545 49.783397 66.6826261 49.6144057 66.8799438 49.6144057 67.1599076L49.6144057 72.1878931C49.6144057 72.6062893 49.3207318 72.924477 48.7498709 73.1383239 48.2789622 73.2901862 47.8616361 73.3924609 47.4638882 73.3924609 47.072323 73.3924609 46.6374795 73.2901862 46.18821 73.1383239 45.6276534 72.924477 45.3339795 72.6062893 45.3339795 72.1878931L45.3339795 67.366523C45.3339795 66.4915068 45.8935056 65.822073 46.9878274 65.3582214 47.8369056 65.0080083 48.6808318 64.8437491 49.5474274 64.8437491L53.3456101 64.8437491C54.7995537 64.8437491 56.1422102 65.1195806 57.3931581 65.6826076 59.061432 66.4811761 59.9063886 67.6237592 59.9063886 69.1217207 59.9063886 70.6351785 59.061432 71.7643316 57.3838842 72.5680655 56.177245 73.1083647 54.8314971 73.3924609 53.3177884 73.3924609L51.5650188 73.3924609zM64.4288639 66.3662979L61.3952638 66.3662979C61.0747986 66.3662979 60.7893682 66.3570002 60.5812203 66.3322064 60.3431899 66.3260079 60.1741986 66.3094787 60.0526073 66.286751 59.6280681 66.1627817 59.3993116 65.9406702 59.3993116 65.6173171 59.3993116 65.0904479 60.0670334 64.8063517 61.3952638 64.8063517L71.7490728 64.8063517C72.3796989 64.8063517 73.0329946 64.9954048 73.6924729 65.3859079 73.7202946 65.3983048 73.7275077 65.4757856 73.7275077 65.6173171 73.7275077 65.9406702 73.5265729 66.1627817 73.0865772 66.286751 72.962925 66.3094787 72.7846598 66.3260079 72.5610554 66.3322064 72.3322989 66.3570002 72.0520207 66.3662979 71.7490728 66.3662979L68.7103206 66.3662979 68.7329901 72.1876865C68.7329901 72.6205458 68.4454988 72.9397665 67.8633031 73.1505142 67.509864 73.3199389 67.0719292 73.3922542 66.5804118 73.3922542 66.0919857 73.3922542 65.6653857 73.3199389 65.3078248 73.1505142 64.7112031 72.9397665 64.4463813 72.6205458 64.4463813 72.1876865L64.4288639 66.3662979zM80.5092113 69.8958053C80.1712287 69.8958053 79.8693113 69.8431184 79.5756374 69.7284468 79.1438852 69.5703861 78.9274939 69.3555061 78.9274939 69.072443 78.9274939 68.8059091 79.1438852 68.576566 79.5756374 68.4474314 79.8693113 68.3182968 80.1712287 68.2635437 80.5092113 68.2635437L84.4465027 68.2635437C84.7793332 68.2635437 85.0915549 68.3182968 85.3841984 68.4474314 85.816981 68.576566 86.0251289 68.8059091 86.0251289 69.072443 86.0251289 69.1860814 85.9870028 69.2862899 85.8932332 69.4050937 85.8087375 69.5125338 85.6799332 69.5920807 85.5284593 69.6437345 85.3841984 69.7284468 85.2162375 69.7687368 85.0297288 69.8234899 84.8390984 69.8710115 84.6453766 69.8958053 84.4465027 69.8958053L80.5092113 69.8958053zM79.8435504 73.3927708C78.2999591 73.3927708 76.9500895 73.1086746 75.7733329 72.5683754 74.0999068 71.785303 73.2786503 70.6344553 73.2786503 69.1065345 73.2786503 67.5755145 74.0999068 66.4267329 75.7733329 65.6746529 76.9696677 65.1188575 78.3226286 64.8430259 79.8435504 64.8430259L84.4310462 64.8430259C84.7659375 64.8430259 85.0771288 64.8936467 85.3749245 64.9680282 85.7963723 65.1498498 86.0179158 65.3864244 86.0179158 65.6168006 86.0179158 65.918459 85.7963723 66.1250744 85.3749245 66.3089621 85.0771288 66.4267329 84.7659375 66.4639237 84.4310462 66.4639237L81.233607 66.4639237C80.3257939 66.4639237 79.5055678 66.6302491 78.806933 66.9670321 77.8579025 67.4443137 77.3756591 68.1685006 77.3756591 69.1209976 77.3756591 70.0848584 77.8630547 70.7770199 78.8162069 71.234673 79.5220548 71.59625 80.3381591 71.7470792 81.233607 71.7470792L84.4465027 71.7470792C84.7793332 71.7470792 85.0915549 71.8297254 85.3841984 71.906173 85.816981 72.0859284 86.0251289 72.2977092 86.0251289 72.5683754 86.0251289 72.6727161 85.9870028 72.7873877 85.8932332 72.8999931 85.8087375 73.0012346 85.6799332 73.0714838 85.5284593 73.1510308 85.3841984 73.2057839 85.2162375 73.2822315 85.0297288 73.3194223 84.8390984 73.3700431 84.6453766 73.3927708 84.4465027 73.3927708L79.8435504 73.3927708zM89.8777185 65.0078017C90.2950446 64.9427179 90.8215968 64.8879648 91.4491316 64.8435425 92.0766664 64.7960209 92.8123969 64.7815579 93.656323 64.7815579L98.2386666 64.7815579C98.5684057 64.7815579 98.8888709 64.8352779 99.1846057 64.9427179 99.6029623 65.1080102 99.8245058 65.3115263 99.8245058 65.5925233 99.8245058 65.843561 99.6029623 66.0605071 99.1846057 66.2051379 98.8888709 66.3094787 98.5684057 66.3662979 98.2386666 66.3662979L95.0556535 66.3662979C93.5986186 66.3662979 92.627949 66.4262164 92.153949 66.4913002 91.5109577 66.6049387 91.1935838 66.8797371 91.1935838 67.2919348 91.1935838 67.7475218 91.625336 68.0440149 92.5042969 68.1690172 92.6176447 68.1690172 92.826823 68.1783149 93.0906143 68.1907118 93.3729534 68.1907118 93.7253621 68.2082741 94.1478404 68.2082741 95.6296056 68.2082741 96.7435057 68.2929864 97.4905709 68.4820395 99.0444666 68.8725426 99.8420231 69.6039611 99.8420231 70.6721626 99.8420231 72.3571111 97.639984 73.2063004 93.260636 73.2063004L88.6319228 73.2063004C88.2960011 73.2063004 88.0012967 73.1505142 87.7230793 73.0606365 87.2985402 72.8994765 87.0821489 72.6732327 87.0821489 72.3994673 87.0821489 72.1102057 87.2913272 71.8891273 87.7086533 71.7424304 88.0064489 71.6360234 88.3093967 71.5957334 88.6319228 71.5957334L91.8530621 71.5957334C92.5960056 71.5957334 93.2245708 71.5957334 93.6985708 71.5657742 94.1715404 71.5285834 94.5301317 71.5006903 94.7279752 71.4738303 95.3884839 71.3643242 95.7058578 71.1029557 95.7058578 70.7021219 95.7058578 70.099838 94.8495665 69.7961134 93.1194664 69.7961134 89.0925272 69.7961134 87.0821489 68.9500234 87.0821489 67.2774718 87.0821489 66.125591 88.0105707 65.3859079 89.8777185 65.0078017M105.511372 66.3662979L102.493229 66.3662979C102.174825 66.3662979 101.899698 66.3570002 101.674033 66.3322064 101.45352 66.3260079 101.277316 66.3094787 101.147481 66.286751 100.730155 66.1627817 100.507581 65.9406702 100.507581 65.6173171 100.507581 65.0904479 101.161907 64.8063517 102.493229 64.8063517L112.836733 64.8063517C113.479725 64.8063517 114.129929 64.9954048 114.792499 65.3859079 114.820321 65.3983048 114.839899 65.4757856 114.839899 65.6173171 114.839899 65.9406702 114.621447 66.1627817 114.182481 66.286751 114.070164 66.3094787 113.882625 66.3260079 113.664173 66.3322064 113.435416 66.3570002 113.157199 66.3662979 112.836733 66.3662979L109.816529 66.3662979 109.836107 72.1876865C109.836107 72.6205458 109.545525 72.9397665 108.967451 73.1505142 108.599586 73.3199389 108.167833 73.3922542 107.674255 73.3922542 107.195103 73.3922542 106.763351 73.3199389 106.397546 73.1505142 105.824625 72.9397665 105.531981 72.6205458 105.531981 72.1876865L105.511372 66.3662979z"/>
    <g transform="translate(0 .195)">
      <mask id="goldtest-logo-d" fill="#fff">
        <use xlink:href="#goldtest-logo-c"/>
      </mask>
      <path fill="#1D1D1B" d="M116.374731,32.1460371 C116.332484,30.7100602 114.52201,29.8061178 110.51877,29.218297 C108.303336,28.8329593 105.674696,28.6645678 102.538053,28.6924609 C99.7259962,28.7162216 97.36527,28.8928778 95.3600439,29.2286278 C95.3703482,29.1594117 95.381683,29.0932947 95.3909569,29.0230455 L95.3971395,28.9724247 L95.3919874,28.922837 C95.2446352,27.5488447 94.97157,26.4486177 94.5985526,25.5601716 L105.760222,25.45893 C107.086392,25.4475662 108.38577,25.3173985 109.64084,25.1923962 C110.270436,25.1293785 110.892818,25.0663608 111.509018,25.0209054 C114.56941,24.7894962 115.974923,23.9217115 115.932675,22.2574245 C115.895579,21.1602968 115.342236,19.8441568 111.34724,19.3989006 C109.720183,19.2201783 107.929288,19.1292675 106.022983,19.1292675 L85.9769045,19.3069568 C85.8470697,15.5816813 84.6095175,10.4276604 81.2018696,6.45754565 C77.2470608,1.85105553 71.2736302,-0.247123758 63.5257909,0.258050871 C54.7155732,0.826243194 53.9612949,5.59905871 53.3553993,9.4359065 C52.9236471,12.168395 52.5815427,14.3285589 49.6561383,14.678772 L47.1964904,14.6043905 C43.5580251,14.4928182 40.683112,14.4050066 37.6979423,14.4050066 C34.462377,14.4050066 31.4040465,14.5103805 27.7789768,14.7469551 C20.6102419,15.2139059 14.7614939,17.1695206 12.515146,19.8503552 C11.7371677,20.7790914 11.3971242,21.7636138 11.5063503,22.7760292 L11.5176851,22.8349146 C12.5944895,26.9847847 17.9527505,28.1645586 23.1348072,29.3061086 C25.3914594,29.8030186 27.5378551,30.2751348 29.3132943,30.9693625 C26.2085942,33.2607272 21.5108419,35.5376288 16.9604418,37.7442811 C8.14198066,42.0212197 -0.188054353,46.0605506 0.00257608703,50.953203 C0.346741314,54.1516093 4.28094142,57.8882486 14.2349417,57.8872155 C15.3478113,57.8872155 16.5245678,57.8407271 17.7281157,57.746717 C26.7876986,57.1464993 49.2759079,52.99353 57.2226211,49.6318976 C57.4297385,49.543053 57.6131559,49.4986307 57.7666907,49.4986307 C58.4241081,49.4986307 58.7641516,50.4098045 59.3092516,52.0203715 C60.4087256,55.2683654 62.2470213,60.7054494 71.1994389,60.7054494 C71.7981215,60.7054494 72.4287476,60.6816887 73.0779216,60.633134 C77.2202695,60.2756894 80.5331174,58.6176009 82.9247566,55.7063901 C86.2819132,51.6205707 87.0413437,45.9231513 87.0743176,42.8249536 L90.2872133,42.7960274 C95.3528309,42.7516051 100.46997,42.2970512 105.94467,41.4055058 C113.10104,40.0821343 116.543723,38.1916034 116.469531,35.6244072 L116.374731,32.1460371 Z" mask="url(#goldtest-logo-d)"/>
    </g>
    <path fill="#FEFEFE" d="M78.2506013,42.5298035 C68.8427314,42.6072843 60.471479,41.9698758 53.2625571,40.657868 C43.0282786,38.7590726 37.8400393,35.8974495 37.7236002,32.0192786 C37.6143741,28.1504054 42.4718438,24.4623207 52.5968962,22.4633168 C59.9037095,21.002546 68.1574923,20.2287713 77.456136,20.1461252 L105.561245,19.8940544 C107.512889,19.8795913 109.448046,19.9570721 111.285311,20.1585221 C115.366863,20.614109 115.346254,21.9261168 115.366863,22.4974083 C115.386441,23.2691168 115.069067,24.3765753 111.466667,24.6482745 C109.617037,24.7877399 107.713824,25.0687369 105.754967,25.0862992 L86.1694928,25.2629553 C80.6092665,25.3053115 75.6734838,25.7753615 71.2508576,26.6968661 C65.54534,27.9727162 62.8373574,29.4572477 62.91464,31.9159709 C62.9888313,34.0678702 65.3176139,35.6856687 69.8474054,36.8334172 C73.543575,37.7342603 77.6642838,38.2466664 82.3414275,38.3282795 C87.2730885,38.2642287 89.698732,37.5865303 89.6647277,36.4046902 L89.549319,32.5916032 C89.5153146,31.5192693 91.208319,30.6928078 94.725193,30.1163508 C96.9272322,29.6855577 99.5259888,29.4810085 102.542071,29.4572477 C105.54888,29.4262554 108.165154,29.581217 110.421806,29.9737862 C113.975776,30.4965232 115.775946,31.2857939 115.807889,32.3581278 L115.902689,35.8354648 C115.967607,38.0648449 112.573354,39.7973149 105.841524,41.0411396 C100.830519,41.8583035 95.6814365,42.375875 90.2819581,42.4223635 L78.2506013,42.5298035 Z"/>
    <path fill="#E20714" d="M46.0269469,42.1938469 C47.4788296,43.0544 49.6262557,44.5430638 51.3295644,44.6670331 C52.4537688,44.7589769 53.8592819,44.2548354 53.968508,43.0223746 C54.0694906,41.7785499 51.9230949,39.3518522 51.1203862,38.2691875 C52.1879166,37.4334283 54.0643384,36.2030336 54.1745949,34.8166443 C54.2663036,33.8042289 53.6057949,33.106902 52.560934,33.0180574 C50.8947209,32.8940881 49.1728644,34.0511343 47.5561122,33.9240659 C47.226373,33.9065036 46.0588904,31.3475719 43.4776512,31.1492212 C40.7274207,30.9374404 39.702138,32.0448989 39.1632206,34.4457697 C37.837051,34.463332 31.8357987,34.2226251 31.703903,35.8269936 C31.5771596,37.3156575 36.9683945,38.8384129 38.2842597,39.2547429 C38.1276336,40.100833 37.7834684,40.9613861 37.7030945,41.8126415 C37.5670771,43.4025469 39.8927685,44.6329415 41.3157989,44.7341831 C43.2324077,44.8767477 44.6523469,43.2517177 46.0269469,42.1938469"/>
    <path fill="#FEFEFE" d="M48.5662474,38.7021501 C48.4425952,36.8581077 48.5466691,38.2186701 48.4322909,35.8921808 C47.5285996,36.0688369 46.7341343,36.1928062 45.9994343,36.2909485 C45.9231821,35.1204723 45.7840734,34.0977261 45.5903517,33.6173453 C44.1972038,33.7175538 44.5990734,33.6493707 42.7721125,33.7640422 C42.984382,34.3694253 43.1152473,35.3797746 43.2018038,36.4872331 C42.3558168,36.5047954 41.4469733,36.49963 40.3825341,36.45934 C40.7019689,37.532707 40.5237037,39.2796401 40.5237037,39.2796401 C40.5237037,39.2796401 41.7746516,39.3509224 43.3285473,39.3416247 C43.3615212,40.7455763 43.349156,41.8303071 43.349156,41.8303071 L46.1539995,41.6856763 C46.1539995,41.6856763 46.1591517,40.6061109 46.1230865,39.2197216 C47.0968474,39.1257116 47.9758083,38.9624855 48.5662474,38.7021501"/>
    <path fill="#E20714" d="M28.3298473 46.7807085C27.3766951 47.2755524 24.9242602 48.1918916 23.7351385 48.4398301 22.454308 48.7125624 21.5434036 48.3458201 21.4341775 47.8582078 21.2775514 47.1505501 23.7001037 45.5379169 24.5203298 44.74658 23.7475037 44.4759138 22.7129471 44.5657915 22.4151515 43.7889177 22.3079863 43.2816769 23.0952385 42.7289807 24.3018776 42.4707115 25.3683776 42.2537653 25.9598472 42.2041776 27.0747777 42.0843407 28.0773908 41.3353599 26.746069 40.2423645 28.5884864 39.8611591 31.1522082 39.3270583 32.6597344 40.6060076 32.6514909 41.3353599 34.4248692 41.1411414 35.4841562 41.5616038 35.7077605 42.5192661 36.095204 44.1628915 33.637617 44.8395569 33.7416909 45.32407 33.8138214 45.6164308 33.4634735 47.3798932 31.1408735 47.8354801 29.5436995 48.1712301 29.0696995 47.1929062 28.3298473 46.7807085M15.2582665 46.987014L14.9202839 46.6058086C14.0815099 45.8000086 13.3323838 45.9714993 12.5853186 46.745274 11.8124925 47.5252471 11.9619055 48.7143186 11.8475273 48.8310563 11.1427099 49.5604087 10.1030011 50.0304587 9.36005765 50.7825387 9.24670982 50.9044418 8.51819241 51.658588 8.73458372 51.8703687 8.87678372 52.0170657 10.9541403 51.0180802 11.4034099 50.8641518 11.3529186 51.1038256 11.1324055 51.8424757 11.3312794 52.0315287 12.2648534 52.9396034 14.3102665 50.5728241 14.8811274 50.3693079 15.4715665 50.1719902 17.5561361 51.0439072 18.1774883 50.4064987 18.6288188 49.940581 17.32841 48.8827102 17.013097 48.5924156 17.3490187 48.3258817 17.7632535 48.101704 18.0466231 47.7990125 18.3712101 47.4870232 18.3186579 47.0293701 17.9878883 46.7111824 17.3181057 46.0541455 15.9682361 46.7008517 15.2582665 46.987014"/>
  </g>
</svg>
