<svg height="54" viewBox="0 0 54 54" width="54" xmlns="http://www.w3.org/2000/svg"><g fill="none" fill-rule="evenodd"><circle cx="27" cy="27" fill="#1e1e1e" r="27"/><path d="m33.4409529 14c4.086053 0 7.4100706 3.3241765 7.4100706 7.4099118v12.0312c0 4.0857353-3.3240176 7.4099117-7.4100706 7.4099117h-12.0312c-4.0857353 0-7.4097529-3.3240176-7.4097529-7.4099117v-12.0312c0-4.0857353 3.3240176-7.4099118 7.4097529-7.4099118zm0 2.3823529h-12.0312c-2.7721058 0-5.0274 2.255453-5.0274 5.0275589v12.0312c0 2.7722647 2.2552942 5.0275588 5.0274 5.0275588h12.0313589c2.7722647 0 5.0277176-2.2552941 5.0277176-5.0275588v-12.0312c0-2.7721059-2.2556118-5.0275589-5.0278765-5.0275589zm-6.0154411 4.1246471c3.8151 0 6.9188294 3.1037294 6.9188294 6.9188294 0 3.8149412-3.1037294 6.9185118-6.9188294 6.9185118s-6.9188294-3.1035706-6.9188294-6.9185118c0-3.8151 3.1037294-6.9188294 6.9188294-6.9188294zm0 2.3821941c-2.5014706 0-4.5364765 2.0350059-4.5364765 4.5364765 0 2.5013118 2.0351647 4.5361588 4.5364765 4.5361588 2.5013117 0 4.5364764-2.034847 4.5364764-4.5361588 0-2.5014706-2.0350058-4.5364765-4.5364764-4.5364765zm7.209-4.4022706c.4605882 0 .911647.1858236 1.235647.5114118.3255883.324.5114118.7750588.5114118 1.2356471 0 .459-.1858235.9100588-.5114118 1.235647-.3255882.324-.7750588.5114118-1.235647.5114118-.459 0-.9100589-.1874118-1.2340589-.5114118-.3255882-.3255882-.513-.7764882-.513-1.235647 0-.4605883.187253-.9116471.513-1.2356471.3241589-.3255882.7750589-.5114118 1.2340589-.5114118z" fill="#fff" fill-rule="nonzero"/></g></svg>