<svg height="26" viewBox="0 0 369 26" width="369" xmlns="http://www.w3.org/2000/svg"><g fill="none" fill-rule="evenodd"><path d="m363.703843 2.94999998c-.019136.05735132-1.402118 6.16895669-1.402118 6.16895669h6.498274c0 .03764728-1.698718 7.84329673-1.698718 7.86233003h-6.458264s-1.284694 5.7497135-1.284694 5.7687132h-7.188025c.019135-.0189997.454035-2.0562211.454035-2.074919h4.877837s1.30296-5.7114038 1.30296-5.7497218h6.459133l.848925-3.7691727h-6.497404c.039141-.0386534 1.382112-6.15000727 1.382112-6.15000727h-4.265498s-1.362977 6.09265597-1.382112 6.09265597h-2.251912c0-.0383181 1.817012-8.11018167 1.817012-8.14883512zm-96.917003 5.93971908c3.101358 0 4.740408 2.17079794 4.246362 5.00784394-.473954 2.836459-2.567301 5.0072569-5.668311 5.0072569-3.100401 0-4.739713-2.1707979-4.246102-5.0072569.474041-2.837046 2.567649-5.00784394 5.668051-5.00784394zm79.808911 0c2.705947 0 3.969766 1.71391584 3.969766 3.80849694 0 .6851974-.138298 1.4269915-.374883 2.1698756h-6.51741c.059146 1.4663157 1.164662 1.8845444 2.429351 1.8845444 1.08551 0 1.935304-.2282314 2.804234-.5132273l-.514051 2.2657966c-.750638.2276445-1.658709.3996146-2.804235.3996146-2.82424 0-4.641251-1.5426164-4.641251-4.1693742 0-3.0650259 2.132749-5.84572664 5.648479-5.84572664zm-29.999306.05726748c3.258356 0 4.185911 1.42808156 4.185911 3.04699876 0 .3996146-.039054.8178433-.137602 1.2184641l-1.224852 5.4064524h-2.508155l.21745-.9898135c-.671051.7614982-1.698197 1.2184642-2.903305 1.2184642-1.698197 0-3.001157-.9711995-3.001157-2.5891105 0-2.4754978 2.250955-3.521908 5.054668-3.521908.317042 0 .988092.0566806 1.698892.1326459l.040011-.190668c.039141-.1515953.039141-.3045322.039141-.4372619 0-.7428003-.533448-1.180733-2.014195-1.180733-1.106559 0-2.351156.3243201-2.982109.495284l.473954-2.18957963c.434291-.13323283 1.757605-.41923483 3.061348-.41923483zm-39.875622.03865345c.90894 0 1.916342.13331668 2.765354.36196735l-.473954 2.15084236c-.414112-.1136126-1.659752-.4568821-2.548252-.4568821-.927555 0-1.520062.2096174-1.520062.8001516 0 1.3133789 3.673512.7991454 3.673512 3.7501394 0 2.2844944-2.054902 3.1980071-4.582366 3.1980071-1.066201 0-2.191895-.1709639-3.081005-.3805813l.474998-2.1322284c.611556.1910034 1.75656.456966 2.783968.456966.809697 0 1.777001-.1327298 1.777001-.8948148 0-1.3133789-3.672556-.8378828-3.672556-3.7119052 0-1.960929 1.658795-3.14166201 4.403362-3.14166201zm61.678805 0c.908071 0 1.817012.190668 2.587654.45696597l-.47404 2.17046254c-.671486-.2479355-1.342971-.4192348-1.935305-.4192348-1.877028 0-3.061695 1.5043823-3.061695 3.3129613 0 1.5420296.86893 2.074877 2.152754 2.074877.769773 0 1.422123-.1712993 2.014457-.3809167l-.513182 2.2281493c-.534057.2090304-1.264689.3609611-2.133619.3609611-2.586785 0-4.384661-1.3320767-4.384661-4.1494186 0-3.4275801 2.646801-5.65480711 5.747637-5.65480711zm-53.68004-2.43676053-.591812 2.62742853h3.021163l-.454557 2.07487701h-3.040646l-.928512 4.1880721c-.19814.9524177.374362 1.2187157 1.185102 1.2187157.51266 0 1.105951-.113948 1.579905-.2285668l-.473954 2.0757993c-.593291.1899972-1.421949.2846604-1.916691.2846604-2.369856 0-3.672468-1.255776-3.159808-3.5411927l1.836756-8.07194746zm44.161039 2.3408396c2.073515 0 3.396481 1.44761784 2.784142 4.20802774l-1.243814 5.521155h-2.824588l1.185102-5.3878384c.2572-1.0847282.099158-2.0372297-1.224243-2.0372297-1.026711 0-2.014804.6664995-2.449008 2.6081437l-1.086206 4.8169244h-2.824501l2.113353-9.44259381h2.62636l-.256504 1.12271091c.948343-.97111559 2.053858-1.40929984 3.199907-1.40929984zm-21.111954 0c2.073255 0 3.395959 1.44761784 2.783359 4.20802774l-1.243553 5.521155h-2.824152l1.185798-5.3878384c.256156-1.0847282.098548-2.0372297-1.224852-2.0372297-1.028191 0-2.014805.6664995-2.449704 2.6081437l-1.085945 4.8169244h-2.824762l2.113352-9.44259381h2.626361l-.256504 1.12271091c.94756-.97111559 2.05351-1.40929984 3.200602-1.40929984zm-7.505415.28658893-2.113353 9.44259381h-2.804756l2.113005-9.44259381zm-3.456498-3.35161478-.552757 2.41814651h-4.483209l-.65235 3.02729468h4.247058l-.514051 2.4178111h-4.266803l-1.10595 4.9309563h-2.882517l2.804756-12.79420859zm-40.329483 0c2.942359 0 4.661953 1.52333168 4.661953 3.86517745 0 3.14166194-2.212249 5.02587104-6.182015 5.02587104h-1.244597l-.868756 3.9031601h-2.843862l2.804808-12.79420859zm59.807838 8.58721239-.104261-.00078c-1.441258 0-2.310014.5339375-2.310014 1.485349 0 .6475502.41446 1.0284669 1.224852 1.0284669 1.12526 0 2.072211-.7625043 2.408563-1.8849636l.118901-.5331829c-.553801-.0759653-1.16501-.0956694-1.442302-.0956694zm-49.735122-3.3316845c-1.125695 0-2.1137.8564967-2.528247 2.8173419-.414112 1.960929.474389 2.8177611 1.600693 2.8177611 1.12526 0 2.092564-.8761169 2.507458-2.8177611.4349-1.9422312-.453948-2.8173419-1.579904-2.8173419zm79.848314-.15235c-1.185537 0-2.073603.8375474-2.488497 2.1126082h4.009776c.019136-.1712994.039141-.3236493.039141-.4946133 0-1.0090982-.632344-1.6179949-1.56042-1.6179949zm-90.078638-2.76099674h-1.185102l-.92825 4.20710534h1.185798c1.855805 0 2.862511-.9514953 2.862511-2.49352489 0-1.199347-.631301-1.71358045-1.934957-1.71358045zm43.25175-3.12237717c.869191 0 1.520845.66658338 1.461003 1.52308014-.058451.85641291-.749855 1.5229963-1.717507 1.5229963-.868756 0-1.521106-.66658339-1.461003-1.5229963.058799-.85649676.750203-1.52308014 1.717507-1.52308014z" fill="#fff" fill-rule="nonzero"/><path d="m34.6796355 3c1.6608135 0 3.0039735.36764304 3.8508147.70061595l-.5838908 3.55357248-.3883214-.17474679c-.7768775-.33274022-1.8023841-.66524775-3.1981342-.63011225-1.6950909 0-2.4552993.7173693-2.4729076 1.41775257 0 .77042158.9196221 1.27814128 2.4212567 2.03111146 2.4736119 1.17296748 3.6209678 2.60840408 3.603829 4.48175478-.034747 3.4139612-2.967583 5.6200518-7.4724867 5.6200518-1.9261117-.0176837-3.7813206-.4211603-4.7882798-.8758277l.6007947-3.6941145.5653434.2629345c1.3957501.6133589 2.3141982.8753628 4.0283061.8753628 1.2361017 0 2.5614186-.5081851 2.5783226-1.6106488 0-.7178347-.5646391-1.2434712-2.2256873-2.0487956-1.6251274-.7881057-3.7979898-2.1009171-3.7627732-4.4645361.0183126-3.20361353 3.0039735-5.4443746 7.2438138-5.4443746zm-9.0278853.29830277-2.6851461 16.45644713h-4.2933696l2.6853809-16.45644713zm23.8845827 0 3.4636671 16.45621443h-3.9752465s-.3890257-1.8908021-.5122837-2.4685601h-5.5123325c-.1594137.4374486-.9010746 2.4685601-.9010746 2.4685601h-4.5049038l6.3772514-15.0908161c.4418506-1.0680263 1.2199021-1.36539833 2.2439999-1.36539833zm-42.558052 0c.93629123.03467014 1.69603005.33227485 1.94325038 1.38331511l1.50163462 7.56251042.4594588 2.2758966 4.2046238-11.22172213h4.5398855l-6.748434 16.43899573h-4.54012036l-3.82524435-14.29836983c-1.32065409-.76541007-2.8279823-1.38098172-4.51333529-1.80811836l.07066792-.33250754zm39.5374093 4.44661931c-.2120038.61266084-.5827169 1.61064882-.5648738 1.57551332 0 0-1.3605335 3.658979-1.7141079 4.6043801h3.5686125c-.1765524-.8227759-.9895856-4.76190817-.9895856-4.76190817z" fill="#fff" fill-rule="nonzero"/><path d="m98.8490077 2.78416667c-.1660762.13180555-.3285732.26758333-.487491.40733333-2.7155609 2.38333333-4.4339486 5.89225-4.4339486 9.8085s1.7183877 7.4251667 4.4339486 9.8081389c.1589178.1401111.3214148.2755278.487491.4073333.1660762-.1318055.3285732-.2672222.4874909-.4073333 2.7152034-2.3829722 4.4339484-5.8918889 4.4339484-9.8081389s-1.718745-7.42516667-4.4339484-9.8085c-.1589177-.13975-.3214147-.27552778-.4874909-.40733333zm7.9634263-2.78416667c-2.63825 0-5.090737.80022222-7.1330452 2.17280556.1041555.08630555.2101007.17116666.3110349.26 3.0359023 2.66463888 4.7768383 6.51625 4.7768383 10.56719444 0 4.0509444-1.740936 7.9025556-4.7764803 10.5668333-.1005764.0884723-.2068795.1736945-.3117509.2603611 2.0426662 1.3722223 4.4951532 2.1724445 7.1334032 2.1724445 7.115865 0 12.885223-5.8200278 12.885223-12.9996389 0-7.17997222-5.769358-13-12.885223-13zm-9.1052003 23.5668333c.1005763.0884723.2068794.1736945.3113929.26-2.0426659 1.3725834-4.4951534 2.1731667-7.133403 2.1731667-7.1162226 0-12.8852236-5.8203889-12.8852236-13 0-7.17961111 5.769001-13 12.8852236-13 2.6382496 0 5.0907371.80022222 7.133403 2.17280556-.1045135.08630555-.2104587.17116666-.3113929.25963888-3.0359019 2.665-4.7768387 6.51661112-4.7768387 10.56755556 0 4.0513056 1.7409368 7.9025556 4.7768387 10.5668333zm47.7243633-10.5108611c0-1.5191944.986077-2.7668333 2.599593-2.7668333 1.541574 0 2.58134 1.1934722 2.58134 2.7668333 0 1.5737222-1.039766 2.7671945-2.58134 2.7671945-1.613516 0-2.599593-1.248-2.599593-2.7671945zm6.937977 0v-4.32249998h-1.864421v1.04902778c-.591646-.77783333-1.487885-1.26605556-2.70697-1.26605556-2.402379 0-4.284695 1.89908336-4.284695 4.53952776 0 2.6408056 1.882316 4.54025 4.284695 4.54025 1.219085 0 2.115324-.4885833 2.70697-1.2660555v1.0486666h1.864421zm62.960424 0c0-1.5191944.986077-2.7668333 2.599593-2.7668333 1.541216 0 2.58134 1.1934722 2.58134 2.7668333 0 1.5737222-1.040124 2.7671945-2.58134 2.7671945-1.613516 0-2.599593-1.248-2.599593-2.7671945zm9.023593 3.9122778v.1357778h.123842c.028633 0 .051183-.0050556.068005-.0166111.016822-.0111945.025055-.0285278.025055-.0516389 0-.02275-.008233-.0393611-.025055-.0505556-.016822-.0111944-.039372-.0169722-.068005-.0169722zm.125273-.0953333c.064784 0 .114894.0148055.14997.0440555.035076.0288889.052615.06825.052615.1188056 0 .0418889-.013959.0769166-.041877.104-.027918.0274444-.068006.0444166-.119547.0505555l.165361.1924723h-.129568l-.152833-.1913889h-.049394v.1913889h-.108092v-.5098889zm-.031855.6846666c.058342 0 .113104-.0111944.163929-.0339444.050467-.0220278.094849-.0527222.133147-.0913611.03794-.0382778.068005-.0837778.089839-.1357778.021833-.052.032929-.10725.032929-.1664722s-.011096-.1148334-.032929-.1668334c-.021834-.052-.051899-.0975-.089839-.1357777-.038298-.039-.08268-.0689723-.133147-.091-.050825-.0220278-.105587-.0328611-.163929-.0328611-.059773 0-.115609.0108333-.167508.0328611-.052256.0220277-.097355.052-.135295.091-.037939.0382777-.068005.0837777-.089838.1357777-.021834.052-.032929.1076112-.032929.1668334s.011095.1144722.032929.1664722c.021833.052.051899.0975.089838.1357778.03794.0386389.083039.0693333.135295.0913611.051899.02275.107735.0339444.167508.0339444zm0-.9764444c.076238 0 .147822.0144444.215112.0429722.066931.0285278.125631.0678889.17574.1177222.050109.0498334.089839.1079723.11883.1751389.028992.0664445.043309.1375834.043309.2130556 0 .0751111-.014317.1458889-.043309.2119722-.028991.0664444-.068721.1245833-.11883.1744167-.050109.0498333-.108809.0891944-.17574.1184444-.06729.02925-.138874.0436945-.215112.0436945-.078385 0-.151401-.0144445-.219764-.0436945-.067648-.02925-.126705-.0686111-.176456-.1184444-.049394-.0498334-.089123-.1079723-.118115-.1744167-.028634-.0660833-.042951-.1368611-.042951-.2119722 0-.0754722.014317-.1466111.042951-.2130556.028992-.0671666.068721-.1253055.118115-.1751389.049751-.0498333.108808-.0891944.176456-.1177222.068363-.0285278.141379-.0429722.219764-.0429722zm-2.179034-3.5251667v-7.79530553h-1.864779v4.52183333c-.591288-.77783333-1.487527-1.26605556-2.70697-1.26605556-2.402379 0-4.284337 1.89908336-4.284337 4.53952776 0 2.6408056 1.881958 4.54025 4.284337 4.54025 1.219443 0 2.115682-.4885833 2.70697-1.2660555v1.0486666h1.864779zm-46.772288-2.8574722c1.201189 0 1.972155.7594167 2.16937 2.0980556h-4.446118c.197216-1.248.949928-2.0980556 2.276748-2.0980556zm.03615-1.68205556c-2.510113 0-4.266799 1.84455556-4.266799 4.53952776 0 2.7495 1.82827 4.54025 4.392072 4.54025 1.29067 0 2.473605-.3260833 3.513729-1.21225l-.914493-1.3924444c-.71692.5785-1.631413.9045833-2.491859.9045833-1.200832 0-2.294644-.5608055-2.563444-2.1164722h6.363869c.018254-.2350833.03615-.4701667.03615-.7236667-.017896-2.6949722-1.667205-4.53952776-4.069225-4.53952776zm22.498316 4.53952776c0-1.5191944.986078-2.7668333 2.599594-2.7668333 1.541574 0 2.58134 1.1934722 2.58134 2.7668333 0 1.5737222-1.039766 2.7671945-2.58134 2.7671945-1.613516 0-2.599594-1.248-2.599594-2.7671945zm6.937977 0v-4.32249998h-1.86442v1.04902778c-.591647-.77783333-1.487885-1.26605556-2.707329-1.26605556-2.402378 0-4.284337 1.89908336-4.284337 4.53952776 0 2.6408056 1.881959 4.54025 4.284337 4.54025 1.219444 0 2.115682-.4885833 2.707329-1.2660555v1.0486666h1.86442zm-17.461267 0c0 2.62275 1.810731 4.54025 4.571391 4.54025 1.291027 0 2.151116-.2896111 3.083505-1.0313333l-.896597-1.5191945c-.699023.5062778-1.433839.7774723-2.240597.7774723-1.487885-.0176945-2.58134-1.1028334-2.58134-2.7671945 0-1.6636389 1.093455-2.7487778 2.58134-2.7668333.806758 0 1.541574.2711944 2.240597.7774722l.896597-1.51919443c-.932389-.74172223-1.792478-1.03097223-3.083505-1.03097223-2.76066 0-4.571391 1.91713886-4.571391 4.53952776zm24.022709-4.53952776c-1.075916 0-1.774939.50627778-2.259209 1.26605556v-1.04902778h-1.846524v8.64536108h1.86442v-4.8471944c0-1.4289167.609543-2.2244445 1.828986-2.2244445.376177 0 .770966.0538056 1.165039.2170278l.573751-1.77269442c-.412328-.16286111-.949928-.23508334-1.326463-.23508334zm-49.945274.90422223c-.896597-.59655556-2.133578-.90422223-3.496191-.90422223-2.169012 0-3.567059 1.04902778-3.567059 2.76719446 0 1.4108611 1.039766 2.2789722 2.957517 2.5505278l.8787.1263889c1.02187.1448055 1.505782.416 1.505782.9042222 0 .6695-.681127 1.0490278-1.954259 1.0490278-1.290312 0-2.223059-.416-2.850498-.9042223l-.878342 1.4650278c1.022227.7597778 2.312897 1.1216111 3.711302 1.1216111 2.473963 0 3.907802-1.1757778 3.907802-2.8217222 0-1.5195556-1.129247-2.3154444-2.993667-2.5866389l-.878343-.12675c-.806758-.1083333-1.452451-.2708333-1.452451-.8496944 0-.6333889.609901-1.0129167 1.631771-1.0129167 1.093454 0 2.151116.416 2.671178.7413611zm24.040248-.90422223c-1.075558 0-1.774939.50627778-2.258851 1.26605556v-1.04902778h-1.846524v8.64536108h1.86442v-4.8471944c0-1.4289167.609543-2.2244445 1.828986-2.2244445.376177 0 .770608.0538056 1.164681.2170278l.574108-1.77269442c-.412327-.16286111-.950285-.23508334-1.32682-.23508334zm-15.90144.21702778h-3.047713v-2.62275h-1.882316v2.62275h-1.739148v1.71816668h1.739148v3.9429722c0 2.0077778.770966 3.2016111 2.975771 3.2016111.806758 0 1.739147-.2538611 2.330793-.6695l-.537958-1.6098333c-.555854.3253611-1.165397.4885833-1.649308.4885833-.932389 0-1.236982-.5788611-1.236982-1.4469722v-3.9068611h3.047713zm-27.858927 8.64536108v-5.4260555c0-2.04388891-1.29067-3.4182778-3.370202-3.43633336-1.093812-.01805555-2.223059.32536112-3.011921 1.53724996-.591646-.95838884-1.523677-1.53724996-2.832243-1.53724996-.914493 0-1.810732.27119445-2.510114 1.28411112v-1.06708334h-1.86442v8.64536108h1.882317v-4.7930277c0-1.5011389.824654-2.2966667 2.097428-2.2966667 1.237339 0 1.86442.8135833 1.86442 2.2786111v4.8110833h1.882674v-4.7930277c0-1.5011389.860447-2.2966667 2.097428-2.2966667 1.272774 0 1.882317.8135833 1.882317 2.2786111v4.8110833zm-22.568827 3.6768334v-.5048334h-.130642l-.150327.3470278-.150328-.3470278h-.130642v.5048334h.092344v-.3806111l.141022.3278888h.095565l.140664-.3289722v.3816945zm-.82716 0v-.4188889h.16715v-.0852222h-.425928v.0852222h.167508v.4188889z" fill="#fefefe"/></g></svg>