<svg height="73" viewBox="0 0 322 73" width="322" xmlns="http://www.w3.org/2000/svg"><g fill="none" fill-rule="evenodd"><path d="m113.703843 4.94999998c-.019136.05735132-1.402118 6.16895672-1.402118 6.16895672h6.498274c0 .0376473-1.698718 7.8432967-1.698718 7.86233h-6.458264s-1.284694 5.7497135-1.284694 5.7687132h-7.188025c.019135-.0189997.454035-2.0562211.454035-2.074919h4.877837s1.30296-5.7114038 1.30296-5.7497218h6.459133l.848925-3.7691727h-6.497404c.039141-.0386534 1.382112-6.15000727 1.382112-6.15000727h-4.265498s-1.362977 6.09265597-1.382112 6.09265597h-2.251912c0-.0383181 1.817012-8.11018167 1.817012-8.14883512zm-96.9170034 5.93971912c3.101358 0 4.7404087 2.1707979 4.2463624 5.0078439-.4739539 2.836459-2.567301 5.0072569-5.6683111 5.0072569-3.1004012 0-4.7397128-2.1707979-4.2461014-5.0072569.4740408-2.837046 2.5676489-5.0078439 5.6680501-5.0078439zm79.8089116 0c2.7059471 0 3.9697658 1.7139158 3.9697658 3.8084969 0 .6851974-.138298 1.4269915-.374883 2.1698756h-6.51741c.0591464 1.4663157 1.1646619 1.8845444 2.4293508 1.8845444 1.0855101 0 1.9353044-.2282314 2.8042344-.5132273l-.5140517 2.2657966c-.7506372.2276445-1.6587081.3996146-2.8042344.3996146-2.8242398 0-4.6412515-1.5426164-4.6412515-4.1693742 0-3.0650259 2.132749-5.8457266 5.6484796-5.8457266zm-29.9993066.0572674c3.2583568 0 4.1859113 1.4280816 4.1859113 3.0469988 0 .3996146-.039054.8178433-.1376023 1.2184641l-1.224852 5.4064524h-2.5081546l.2174499-.9898135c-.6710505.7614982-1.698197 1.2184642-2.9033046 1.2184642-1.698197 0-3.0011571-.9711995-3.0011571-2.5891105 0-2.4754978 2.2509548-3.521908 5.0546674-3.521908.317042 0 .9880925.0566806 1.6988928.1326459l.0400108-.190668c.039141-.1515953.039141-.3045322.039141-.4372619 0-.7428003-.5334482-1.180733-2.0141953-1.180733-1.1065592 0-2.3511557.3243201-2.9821084.495284l.4739538-2.1895796c.4342911-.1332329 1.7576044-.4192349 3.0613473-.4192349zm-39.875622.0386535c.9089408 0 1.9163428.1333167 2.7653544.3619673l-.4739539 2.1508424c-.4141117-.1136126-1.6597519-.4568821-2.5482524-.4568821-.9275544 0-1.520062.2096174-1.520062.8001516 0 1.3133789 3.6735123.7991454 3.6735123 3.7501394 0 2.2844944-2.0549019 3.1980071-4.5823661 3.1980071-1.0662005 0-2.1918954-.1709639-3.0810047-.3805813l.4749977-2.1322284c.6115562.1910034 1.7565606.456966 2.7839681.456966.8096965 0 1.7770009-.1327298 1.7770009-.8948148 0-1.3133789-3.6725556-.8378828-3.6725556-3.7119052 0-1.960929 1.6587952-3.141662 4.4033613-3.141662zm61.6788055 0c.908071 0 1.8170117.190668 2.5876543.456966l-.4740409 2.1704625c-.6714854-.2479355-1.3429708-.4192348-1.9353044-.4192348-1.8770279 0-3.0616952 1.5043823-3.0616952 3.3129613 0 1.5420296.86893 2.074877 2.1527544 2.074877.7697728 0 1.4221226-.1712993 2.0144563-.3809167l-.5131819 2.2281493c-.5340571.2090304-1.2646889.3609611-2.1336188.3609611-2.5867845 0-4.3846606-1.3320767-4.3846606-4.1494186 0-3.4275801 2.6468007-5.6548071 5.7476368-5.6548071zm-53.6800399-2.43676054-.5918118 2.62742854h3.0211625l-.4545574 2.074877h-3.040646l-.9285112 4.1880721c-.1981404.9524177.3743618 1.2187157 1.1851022 1.2187157.5126599 0 1.1059504-.113948 1.5799042-.2285668l-.4739538 2.0757993c-.5932905.1899972-1.4219487.2846604-1.9166908.2846604-2.3698564 0-3.6724685-1.255776-3.1598085-3.5411927l1.8367561-8.07194746zm44.1610383 2.34083964c2.0735157 0 3.3964811 1.4476178 2.7841421 4.2080277l-1.2438137 5.521155h-2.8245877l1.1851022-5.3878384c.2571998-1.0847282.0991571-2.0372297-1.2242432-2.0372297-1.0267116 0-2.0148041.6664995-2.4490082 2.6081437l-1.0862059 4.8169244h-2.8245008l2.1133525-9.4425938h2.6263604l-.256504 1.1227109c.9483427-.9711156 2.0538582-1.4092998 3.1999063-1.4092998zm-21.1119536 0c2.0732547 0 3.3959592 1.4476178 2.7833592 4.2080277l-1.2435527 5.521155h-2.8241528l1.185798-5.3878384c.256156-1.0847282.0985483-2.0372297-1.2248521-2.0372297-1.0281903 0-2.0148041.6664995-2.449704 2.6081437l-1.085945 4.8169244h-2.8247617l2.1133525-9.4425938h2.6263604l-.256504 1.1227109c.9475599-.9711156 2.0535103-1.4092998 3.2006022-1.4092998zm-7.5054152.2865889-2.1133524 9.4425938h-2.8047563l2.1130045-9.4425938zm-3.4564972-3.35161479-.5527578 2.41814649h-4.4832088l-.6523499 3.0272947h4.2470583l-.5140517 2.4178111h-4.2668027l-1.1059504 4.9309563h-2.8825164l2.8047563-12.79420859zm-40.32948348 0c2.94235862 0 4.66195278 1.52333168 4.66195278 3.86517749 0 3.1416619-2.21224874 5.025871-6.18201483 5.025871h-1.24459648l-.868756 3.9031601h-2.84386249l2.80480849-12.79420859zm59.80783838 8.58721239-.1042612-.00078c-1.4412582 0-2.3100141.5339375-2.3100141 1.485349 0 .6475502.4144595 1.0284669 1.224852 1.0284669 1.1252599 0 2.0722109-.7625043 2.4085625-1.8849636l.1189016-.5331829c-.5538015-.0759653-1.1650098-.0956694-1.442302-.0956694zm-49.7351223-3.3316845c-1.1256948 0-2.1137004.8564967-2.5282469 2.8173419-.4141117 1.960929.4743887 2.8177611 1.6006924 2.8177611 1.12526 0 2.0925643-.8761169 2.5074588-2.8177611.4348999-1.9422312-.4539485-2.8173419-1.5799043-2.8173419zm79.8483136-.15235c-1.1855371 0-2.0736026.8375474-2.4884971 2.1126082h4.0097769c.0191355-.1712994.0391409-.3236493.0391409-.4946133 0-1.0090982-.6323444-1.6179949-1.5604207-1.6179949zm-90.07863739-2.7609967h-1.18510217l-.92825031 4.2071053h1.18579801c1.85580477 0 2.86251101-.9514953 2.86251101-2.4935249 0-1.199347-.63130067-1.7135804-1.93495654-1.7135804zm43.25174969-3.12237721c.8691909 0 1.5208449.66658338 1.4610027 1.52308014-.0584506.85641291-.7498544 1.52299627-1.7175066 1.52299627-.868756 0-1.5211058-.66658336-1.4610027-1.52299627.0587985-.85649676.7502023-1.52308014 1.7175066-1.52308014zm108.695866-6.90443683 11.483706 6.60135337c.328688.18674714.594314.6381055.594314 1.01223283v13.20270674c0 .3734943-.266263.8254857-.594314 1.0122328l-11.483706 6.6013534c-.328688.1867471-.860577.1867471-1.189265 0l-11.483706-6.6013534c-.328688-.1867471-.594314-.6381055-.594314-1.0122328v-13.20270674c0-.37349429.266263-.82548569.594314-1.01223283l11.483706-6.60135337c.328688-.18674715.860577-.18674715 1.189265 0zm-6.305591 8.01809951c-1.251691 0-2.612944.63810551-3.348034 2.11752273-.829365 1.6971834-.109563 3.0202394.203201 3.4722308l5.147538 7.5825672.019775.0266777c.088825.1191886.405215.5183708.903228.5183708.547813 0 .860577-.4671844.907714-.5292224l1.549167-2.351115-1.330041-1.9459685-1.126203 1.5724742-.000637-.000633-2.941633-4.1103363-.006348-.0096077c-.075256-.1139441-.803069-1.2169929-1.29248-1.999032-.547814-.8875237.062425-2.2105798 1.298828-2.2105798.1567 0 .297476.0158261.438251.0620381l1.032565-1.88393057-.238176-.09340874c-.401984-.14243426-.825495-.21804752-1.216715-.21804752zm5.819566.00063305c-1.251691 0-2.612945.6381055-3.348034 2.11752268-.829365 1.6971834-.109563 3.0202395.203201 3.4722309 0 0 .985427 1.4325722 1.799504 2.6467451l1.330041 1.9149496 2.002705 3.0518915.010139.0131272c.059652.0797452.365475.4850762.881651.4850762.531889 0 .860577-.4823774.907715-.5292224l4.693362-6.9128097h-2.597019v-.0322851l-3.004058 4.3749476-1.533242-2.3352889 1.767655-2.6309191.042904-.0626683c.341807-.5129969.955768-1.769854.176222-3.4557746-.657377-1.43257213-2.081055-2.11752268-3.332746-2.11752268zm59.374732.1399021c3.238471 0 5.100401 2.05485168 5.084476 5.02887908v8.2675177h-2.87857v-8.3295557c0-1.1052899-.751014-2.2884439-2.174693-2.2884439s-2.190618.9964068-2.190618 2.2884439v8.3295557h-2.878571v-8.2675177c0-2.9740274 1.799505-5.02887908 5.037976-5.02887908zm16.944008.40451331-.000637 2.44417197h-3.676723v10.4470785h-2.909783v-10.4470785h-3.69201v-2.44417197zm-46.701125 0-.000637 2.44417197h-3.69201v10.4470785h-2.909783v-10.4470785h-3.69201v-2.44417197zm21.778146 0v12.89125047h-2.878571v-12.89125047zm-17.444684 0 1.752367 6.77290757.093638.7317955.140775-.7317955 2.346682-6.77290757h.938927l2.346681 6.77290757.140776.7317955.109563-.7317955 1.752367-6.77290757h2.832069l-3.676722 12.89125047h-1.17334l-2.706583-7.2084399-.094275-.5760674-.093638.5760674-2.706582 7.2084399h-1.17334l-3.676723-12.89125047zm-33.966365 1.57247427c1.235766 0 1.846005 1.3236891 1.298828 2.2105798-.500676.8254857-1.298828 2.0086396-1.298828 2.0086396s-.782227-1.1831539-1.298828-2.0086396c-.547814-.8875237.062425-2.2105798 1.298828-2.2105798zm128.312231.3149396c.296157 0 .557741.200236.643072.4919535l1.356617 4.6617425 3.200649-4.851094c.125496-.189412.333527-.302602.554946-.302602h2.320563c.325141 0 .514782.3750999.329996.6494234l-7.71834 11.463868c-.12476.1857415-.330731.2960864-.550679.2960864h-2.317768c-.326612 0-.516988-.3781655-.327936-.6530808l2.403099-3.4907156-2.556106-7.7185241c-.088127-.2684648.10431-.5470573.381488-.5470573zm-9.920616-.2234583c1.112687 0 2.227581.2495418 2.727503.996169l.161541.240913.102103-.6646073c.030454-.2009929.200381-.3490164.397083-.3490164h2.309235c.246871 0 .435188.2270764.395612.4774054l-1.24804 8.132878c-.052228.3358763-.331467.5825873-.662198.5825873h-2.080018c-.246136 0-.435188-.2263649-.396348-.4788588l.102986-.6602473s-1.140199 1.3603391-3.196383 1.3603391c-1.198092 0-2.205013-.355526-2.908729-1.2087732-.767171-.9279402-1.080953-2.2586383-.86027-3.6502533.424478-2.7897852 2.604068-4.7785355 5.155923-4.7785355zm34.398708 0c1.112687 0 2.226846.2495418 2.726768.996169l.162129.240913.10225-.6646073c.029572-.2009929.198174-.3490164.396348-.3490164h2.30791c.24746 0 .436366.2270764.398408.4774054l-1.248776 8.132878c-.051492.3358763-.332202.5825873-.661462.5825873h-2.079429c-.247608 0-.436513-.2263649-.39782-.4788588l.102986-.6602473s-1.140199 1.3603391-3.196383 1.3603391c-1.198018 0-2.203453-.355526-2.908612-1.2087732-.767243-.9279402-1.079584-2.2586383-.859636-3.6502533.424595-2.7897852 2.603332-4.7785355 5.155319-4.7785355zm-43.11626-4.36655836c1.614037 0 2.829695.43825748 3.51508 1.266935.624064.75457492.830668 1.83200709.614928 3.20333666-.47884 3.1344266-2.312177 4.7161501-5.488817 4.7161501h-1.526631c-.329304 0-.610617.2467109-.661418.5827235l-.526022 3.4318663c-.051493.3359369-.332114.5825873-.66211.5825873h-2.30229c-.247465 0-.436483-.2264255-.397691-.4773903l1.950407-12.72413602c.051492-.33531617.332114-.58207254.662168-.58207254zm34.397193 0c1.614081 0 2.829018.43825748 3.513726 1.266935.624094.75457492.832125 1.83200709.615561 3.20333666-.479473 3.1344266-2.312177 4.7161501-5.489435 4.7161501h-1.525954c-.32926 0-.610705.2467109-.661463.5827235l-.553474 3.6067303c-.035898.2351149-.232748.4077233-.462554.4077233h-2.475041c-.246136 0-.435041-.2264255-.396348-.4773903l1.950403-12.72413602c.051493-.33531617.332202-.58207254.661462-.58207254zm19.761492-.00060554c.246136 0 .435041.22707641.396201.47822293l-1.951727 12.72339417c-.050757.3359369-.331467.5825873-.662198.5825873h-1.989832c-.246136 0-.435041-.2264255-.396348-.4773903l1.979386-12.95711642c.030307-.20088694.199498-.34909214.396201-.34969768zm-44.893249 6.8870611c-1.314981 0-2.37981.9410047-2.587797 2.2869017-.10862.6602928.021142 1.2530682.362407 1.6695415.344134.4193798.880102.6407339 1.550686.6407339 1.335431 0 2.382649-.9113939 2.605392-2.2688718.100779-.6574014-.038693-1.2538403-.39061-1.6811981-.351182-.4229374-.884206-.6471072-1.540078-.6471072zm34.396648 0c-1.315128 0-2.378529.9410047-2.587884 2.2869017-.107253.6602928.021185 1.2530682.362362 1.6695415.34412.4193798.881411.6407339 1.550671.6407339 1.335431 0 2.383973-.9113939 2.605392-2.2688718.102251-.6574014-.037369-1.2538403-.39061-1.6811981-.351181-.4229374-.884206-.6471072-1.539931-.6471072zm-45.270958-4.13266515-.519223-.00018613c-.197468 0-.366659.1480084-.39701.34901645l-.510501 3.32524643.864774-.0000811c1.234419-.00219 2.472894-.0635095 2.727207-1.7804553.096601-.6254744.019023-1.07820425-.234145-1.38298621-.424463-.51074027-1.245995-.51074027-2.116828-.51074027zm34.397816 0-.51914-.00018613c-.198174 0-.365894.1480084-.396201.34901645l-.511251 3.32524643.864106-.0000811c1.235137-.00219 2.473494-.0635095 2.727154-1.7804553.096512-.6254744.019714-1.07820425-.233483-1.38298621-.424449-.51074027-1.246569-.51074027-2.116799-.51074027zm-265.5493415 41.24560405c1.6608135 0 3.0039735.367643 3.8508147.7006159l-.5838908 3.5535725-.3883214-.1747468c-.7768775-.3327402-1.8023841-.6652477-3.1981342-.6301122-1.6950909 0-2.4552993.7173693-2.4729076 1.4177526 0 .7704215.9196221 1.2781412 2.4212567 2.0311114 2.4736119 1.1729675 3.6209678 2.6084041 3.603829 4.4817548-.034747 3.4139612-2.967583 5.6200518-7.4724867 5.6200518-1.9261117-.0176837-3.7813206-.4211603-4.7882798-.8758277l.6007947-3.6941145.5653434.2629345c1.3957501.6133589 2.3141982.8753628 4.0283061.8753628 1.2361017 0 2.5614186-.5081851 2.5783226-1.6106488 0-.7178347-.5646391-1.2434712-2.2256873-2.0487956-1.6251274-.7881057-3.7979898-2.1009171-3.7627732-4.4645361.0183126-3.2036135 3.0039735-5.4443746 7.2438138-5.4443746zm-9.0278853.2983028-2.6851461 16.4564471h-4.2933696l2.6853809-16.4564471zm23.8845827 0 3.4636671 16.4562144h-3.9752465s-.3890257-1.8908021-.5122837-2.4685601h-5.5123325c-.1594137.4374486-.9010746 2.4685601-.9010746 2.4685601h-4.5049038l6.3772514-15.0908161c.4418506-1.0680263 1.2199021-1.3653983 2.2439999-1.3653983zm-42.558052 0c.93629123.0346701 1.69603005.3322748 1.94325038 1.3833151l1.50163462 7.5625104.4594588 2.2758966 4.2046238-11.2217221h4.5398855l-6.748434 16.4389957h-4.54012036l-3.82524435-14.2983698c-1.32065409-.7654101-2.8279823-1.3809818-4.51333529-1.8081184l.07066792-.3325075zm39.5374093 4.4466193c-.2120038.6126608-.5827169 1.6106488-.5648738 1.5755133 0 0-1.3605335 3.658979-1.7141079 4.6043801h3.5686125c-.1765524-.8227759-.9895856-4.7619082-.9895856-4.7619082z" fill="#fff" fill-rule="nonzero"/><path d="m108.849008 49.7841667c-.166077.1318055-.328574.2675833-.487491.4073333-2.715561 2.3833333-4.433949 5.89225-4.433949 9.8085s1.718388 7.4251667 4.433949 9.8081389c.158917.1401111.321414.2755278.487491.4073333.166076-.1318055.328573-.2672222.487491-.4073333 2.715203-2.3829722 4.433948-5.8918889 4.433948-9.8081389s-1.718745-7.4251667-4.433948-9.8085c-.158918-.13975-.321415-.2755278-.487491-.4073333zm7.963426-2.7841667c-2.63825 0-5.090737.8002222-7.133045 2.1728056.104155.0863055.2101.1711666.311035.26 3.035902 2.6646388 4.776838 6.51625 4.776838 10.5671944s-1.740936 7.9025556-4.77648 10.5668333c-.100577.0884723-.20688.1736945-.311751.2603611 2.042666 1.3722223 4.495153 2.1724445 7.133403 2.1724445 7.115865 0 12.885223-5.8200278 12.885223-12.9996389 0-7.1799722-5.769358-13-12.885223-13zm-9.1052 23.5668333c.100576.0884723.206879.1736945.311393.26-2.042666 1.3725834-4.495154 2.1731667-7.133403 2.1731667-7.116223 0-12.885224-5.8203889-12.885224-13s5.769001-13 12.885224-13c2.638249 0 5.090737.8002222 7.133403 2.1728056-.104514.0863055-.210459.1711666-.311393.2596388-3.035902 2.665-4.776839 6.5166112-4.776839 10.5675556 0 4.0513056 1.740937 7.9025556 4.776839 10.5668333zm47.724363-10.5108611c0-1.5191944.986077-2.7668333 2.599593-2.7668333 1.541574 0 2.58134 1.1934722 2.58134 2.7668333 0 1.5737222-1.039766 2.7671945-2.58134 2.7671945-1.613516 0-2.599593-1.248-2.599593-2.7671945zm6.937977 0v-4.3225h-1.864421v1.0490278c-.591646-.7778333-1.487885-1.2660556-2.70697-1.2660556-2.402379 0-4.284695 1.8990834-4.284695 4.5395278 0 2.6408056 1.882316 4.54025 4.284695 4.54025 1.219085 0 2.115324-.4885833 2.70697-1.2660555v1.0486666h1.864421zm62.960424 0c0-1.5191944.986077-2.7668333 2.599593-2.7668333 1.541216 0 2.58134 1.1934722 2.58134 2.7668333 0 1.5737222-1.040124 2.7671945-2.58134 2.7671945-1.613516 0-2.599593-1.248-2.599593-2.7671945zm9.023593 3.9122778v.1357778h.123842c.028633 0 .051183-.0050556.068005-.0166111.016822-.0111945.025055-.0285278.025055-.0516389 0-.02275-.008233-.0393611-.025055-.0505556-.016822-.0111944-.039372-.0169722-.068005-.0169722zm.125273-.0953333c.064784 0 .114894.0148055.14997.0440555.035076.0288889.052615.06825.052615.1188056 0 .0418889-.013959.0769166-.041877.104-.027918.0274444-.068006.0444166-.119547.0505555l.165361.1924723h-.129568l-.152833-.1913889h-.049394v.1913889h-.108092v-.5098889zm-.031855.6846666c.058342 0 .113104-.0111944.163929-.0339444.050467-.0220278.094849-.0527222.133147-.0913611.03794-.0382778.068005-.0837778.089839-.1357778.021833-.052.032929-.10725.032929-.1664722s-.011096-.1148334-.032929-.1668334c-.021834-.052-.051899-.0975-.089839-.1357777-.038298-.039-.08268-.0689723-.133147-.091-.050825-.0220278-.105587-.0328611-.163929-.0328611-.059773 0-.115609.0108333-.167508.0328611-.052256.0220277-.097355.052-.135295.091-.037939.0382777-.068005.0837777-.089838.1357777-.021834.052-.032929.1076112-.032929.1668334s.011095.1144722.032929.1664722c.021833.052.051899.0975.089838.1357778.03794.0386389.083039.0693333.135295.0913611.051899.02275.107735.0339444.167508.0339444zm0-.9764444c.076238 0 .147822.0144444.215112.0429722.066931.0285278.125631.0678889.17574.1177222.050109.0498334.089839.1079723.11883.1751389.028992.0664445.043309.1375834.043309.2130556 0 .0751111-.014317.1458889-.043309.2119722-.028991.0664444-.068721.1245833-.11883.1744167-.050109.0498333-.108809.0891944-.17574.1184444-.06729.02925-.138874.0436945-.215112.0436945-.078385 0-.151401-.0144445-.219764-.0436945-.067648-.02925-.126705-.0686111-.176456-.1184444-.049394-.0498334-.089123-.1079723-.118115-.1744167-.028634-.0660833-.042951-.1368611-.042951-.2119722 0-.0754722.014317-.1466111.042951-.2130556.028992-.0671666.068721-.1253055.118115-.1751389.049751-.0498333.108808-.0891944.176456-.1177222.068363-.0285278.141379-.0429722.219764-.0429722zm-2.179034-3.5251667v-7.7953055h-1.864779v4.5218333c-.591288-.7778333-1.487527-1.2660556-2.70697-1.2660556-2.402379 0-4.284337 1.8990834-4.284337 4.5395278 0 2.6408056 1.881958 4.54025 4.284337 4.54025 1.219443 0 2.115682-.4885833 2.70697-1.2660555v1.0486666h1.864779zm-46.772288-2.8574722c1.201189 0 1.972155.7594167 2.16937 2.0980556h-4.446118c.197216-1.248.949928-2.0980556 2.276748-2.0980556zm.03615-1.6820556c-2.510113 0-4.266799 1.8445556-4.266799 4.5395278 0 2.7495 1.82827 4.54025 4.392072 4.54025 1.29067 0 2.473605-.3260833 3.513729-1.21225l-.914493-1.3924444c-.71692.5785-1.631413.9045833-2.491859.9045833-1.200832 0-2.294644-.5608055-2.563444-2.1164722h6.363869c.018254-.2350833.03615-.4701667.03615-.7236667-.017896-2.6949722-1.667205-4.5395278-4.069225-4.5395278zm22.498316 4.5395278c0-1.5191944.986078-2.7668333 2.599594-2.7668333 1.541574 0 2.58134 1.1934722 2.58134 2.7668333 0 1.5737222-1.039766 2.7671945-2.58134 2.7671945-1.613516 0-2.599594-1.248-2.599594-2.7671945zm6.937977 0v-4.3225h-1.86442v1.0490278c-.591647-.7778333-1.487885-1.2660556-2.707329-1.2660556-2.402378 0-4.284337 1.8990834-4.284337 4.5395278 0 2.6408056 1.881959 4.54025 4.284337 4.54025 1.219444 0 2.115682-.4885833 2.707329-1.2660555v1.0486666h1.86442zm-17.461267 0c0 2.62275 1.810731 4.54025 4.571391 4.54025 1.291027 0 2.151116-.2896111 3.083505-1.0313333l-.896597-1.5191945c-.699023.5062778-1.433839.7774723-2.240597.7774723-1.487885-.0176945-2.58134-1.1028334-2.58134-2.7671945 0-1.6636389 1.093455-2.7487778 2.58134-2.7668333.806758 0 1.541574.2711944 2.240597.7774722l.896597-1.5191944c-.932389-.7417223-1.792478-1.0309723-3.083505-1.0309723-2.76066 0-4.571391 1.9171389-4.571391 4.5395278zm24.022709-4.5395278c-1.075916 0-1.774939.5062778-2.259209 1.2660556v-1.0490278h-1.846524v8.6453611h1.86442v-4.8471944c0-1.4289167.609543-2.2244445 1.828986-2.2244445.376177 0 .770966.0538056 1.165039.2170278l.573751-1.7726944c-.412328-.1628611-.949928-.2350834-1.326463-.2350834zm-49.945274.9042223c-.896597-.5965556-2.133578-.9042223-3.496191-.9042223-2.169012 0-3.567059 1.0490278-3.567059 2.7671945 0 1.4108611 1.039766 2.2789722 2.957517 2.5505278l.8787.1263889c1.02187.1448055 1.505782.416 1.505782.9042222 0 .6695-.681127 1.0490278-1.954259 1.0490278-1.290312 0-2.223059-.416-2.850498-.9042223l-.878342 1.4650278c1.022227.7597778 2.312897 1.1216111 3.711302 1.1216111 2.473963 0 3.907802-1.1757778 3.907802-2.8217222 0-1.5195556-1.129247-2.3154444-2.993667-2.5866389l-.878343-.12675c-.806758-.1083333-1.452451-.2708333-1.452451-.8496944 0-.6333889.609901-1.0129167 1.631771-1.0129167 1.093454 0 2.151116.416 2.671178.7413611zm24.040248-.9042223c-1.075558 0-1.774939.5062778-2.258851 1.2660556v-1.0490278h-1.846524v8.6453611h1.86442v-4.8471944c0-1.4289167.609543-2.2244445 1.828986-2.2244445.376177 0 .770608.0538056 1.164681.2170278l.574108-1.7726944c-.412327-.1628611-.950285-.2350834-1.32682-.2350834zm-15.90144.2170278h-3.047713v-2.62275h-1.882316v2.62275h-1.739148v1.7181667h1.739148v3.9429722c0 2.0077778.770966 3.2016111 2.975771 3.2016111.806758 0 1.739147-.2538611 2.330793-.6695l-.537958-1.6098333c-.555854.3253611-1.165397.4885833-1.649308.4885833-.932389 0-1.236982-.5788611-1.236982-1.4469722v-3.9068611h3.047713zm-27.858927 8.6453611v-5.4260555c0-2.0438889-1.29067-3.4182778-3.370202-3.4363334-1.093812-.0180555-2.223059.3253612-3.011921 1.53725-.591646-.9583888-1.523677-1.53725-2.832243-1.53725-.914493 0-1.810732.2711945-2.510114 1.2841112v-1.0670834h-1.86442v8.6453611h1.882317v-4.7930277c0-1.5011389.824654-2.2966667 2.097428-2.2966667 1.237339 0 1.86442.8135833 1.86442 2.2786111v4.8110833h1.882674v-4.7930277c0-1.5011389.860447-2.2966667 2.097428-2.2966667 1.272774 0 1.882317.8135833 1.882317 2.2786111v4.8110833zm-22.568827 3.6768334v-.5048334h-.130642l-.150327.3470278-.150328-.3470278h-.130642v.5048334h.092344v-.3806111l.141022.3278888h.095565l.140664-.3289722v.3816945zm-.82716 0v-.4188889h.16715v-.0852222h-.425928v.0852222h.167508v.4188889z" fill="#fefefe"/></g></svg>